<svg width="27" height="27" viewBox="0 0 27 27" fill="none" xmlns="http://www.w3.org/2000/svg">
<path fill-rule="evenodd" clip-rule="evenodd" d="M3.66406 4.41264C3.66406 2.58486 5.10644 1.10315 6.8857 1.10315H19.7722C21.5515 1.10315 22.9939 2.58486 22.9939 4.41264V24.2696C22.9939 24.6418 22.8111 24.989 22.5078 25.1928C22.2045 25.3966 21.8216 25.4294 21.4896 25.2802L17.6245 23.5431L13.7594 25.2802C13.485 25.4035 13.1729 25.4035 12.8985 25.2802L9.03346 23.5431L5.16837 25.2802C4.83635 25.4294 4.45346 25.3966 4.15016 25.1928C3.84685 24.989 3.66406 24.6418 3.66406 24.2696V4.41264ZM6.8857 3.30947C6.29261 3.30947 5.81182 3.80338 5.81182 4.41264V22.5828L8.60302 21.3284C8.87742 21.205 9.18949 21.205 9.46389 21.3284L13.329 23.0654L17.1941 21.3284C17.4685 21.205 17.7805 21.205 18.0549 21.3284L20.8461 22.5828V4.41264C20.8461 3.80338 20.3653 3.30947 19.7722 3.30947H6.8857Z" fill="black"/>
<path fill-rule="evenodd" clip-rule="evenodd" d="M14.4021 13.2379H7.42188V11.0316H14.4021V13.2379Z" fill="black"/>
<path fill-rule="evenodd" clip-rule="evenodd" d="M14.4021 17.6505H7.42188V15.4442H14.4021V17.6505Z" fill="black"/>
<path fill-rule="evenodd" clip-rule="evenodd" d="M19.2356 13.2379H17.0879V11.0316H19.2356V13.2379Z" fill="black"/>
<path fill-rule="evenodd" clip-rule="evenodd" d="M19.2356 17.6505H17.0879V15.4442H19.2356V17.6505Z" fill="black"/>
<path fill-rule="evenodd" clip-rule="evenodd" d="M14.4021 8.82534H7.42188V6.61902H14.4021V8.82534Z" fill="black"/>
<path fill-rule="evenodd" clip-rule="evenodd" d="M19.2356 8.82534H17.0879V6.61902H19.2356V8.82534Z" fill="black"/>
</svg>
