<svg width="25" height="27" viewBox="0 0 25 27" fill="none" xmlns="http://www.w3.org/2000/svg">
<path fill-rule="evenodd" clip-rule="evenodd" d="M3.72461 4.54662C3.72461 2.70903 5.06361 1.21936 6.71535 1.21936H18.6783C20.3301 1.21936 21.6691 2.70903 21.6691 4.54662V24.5102C21.6691 24.8845 21.4994 25.2335 21.2178 25.4384C20.9362 25.6433 20.5808 25.6763 20.2726 25.5263L16.6845 23.7799L13.0964 25.5263C12.8417 25.6503 12.552 25.6503 12.2972 25.5263L8.70918 23.7799L5.1211 25.5263C4.81288 25.6763 4.45743 25.6433 4.17586 25.4384C3.8943 25.2335 3.72461 24.8845 3.72461 24.5102V4.54662ZM6.71535 3.43754C6.16477 3.43754 5.71844 3.93409 5.71844 4.54662V22.8144L8.3096 21.5532C8.56433 21.4292 8.85403 21.4292 9.10876 21.5532L12.6968 23.2996L16.2849 21.5532C16.5396 21.4292 16.8293 21.4292 17.0841 21.5532L19.6752 22.8144V4.54662C19.6752 3.93409 19.2289 3.43754 18.6783 3.43754H6.71535Z" fill="white"/>
<path fill-rule="evenodd" clip-rule="evenodd" d="M13.6928 13.4193H7.21289V11.2012H13.6928V13.4193Z" fill="white"/>
<path fill-rule="evenodd" clip-rule="evenodd" d="M13.6928 17.8556H7.21289V15.6375H13.6928V17.8556Z" fill="white"/>
<path fill-rule="evenodd" clip-rule="evenodd" d="M18.1794 13.4193H16.1855V11.2012H18.1794V13.4193Z" fill="white"/>
<path fill-rule="evenodd" clip-rule="evenodd" d="M18.1794 17.8556H16.1855V15.6375H18.1794V17.8556Z" fill="white"/>
<path fill-rule="evenodd" clip-rule="evenodd" d="M13.6928 8.98295H7.21289V6.76477H13.6928V8.98295Z" fill="white"/>
<path fill-rule="evenodd" clip-rule="evenodd" d="M18.1794 8.98295H16.1855V6.76477H18.1794V8.98295Z" fill="white"/>
</svg>
