<svg width="64" height="70" viewBox="0 0 64 70" fill="none" xmlns="http://www.w3.org/2000/svg">
<rect width="64" height="70" fill="#F5F5F5"/>
<path d="M60.8816 12.8726C55.6744 12.3551 50.4671 11.967 45.2275 11.6759V11.6436L44.516 7.43894C44.0308 4.46337 43.3193 0 35.7509 0H27.277C19.7409 0 19.0294 4.26931 18.5119 7.4066L17.8327 11.5465C14.8248 11.7406 11.8168 11.9347 8.80892 12.2257L2.2109 12.8726C0.852489 13.002 -0.117809 14.1987 0.0115644 15.5248C0.140937 16.8508 1.30529 17.8211 2.66371 17.6917L9.26173 17.0449C26.2097 15.363 43.2869 16.0099 60.4288 17.7241H60.6876C61.9166 17.7241 62.9839 16.7861 63.1133 15.5248C63.2103 14.1987 62.24 13.002 60.8816 12.8726Z" fill="#292D32"/>
<path d="M54.9305 22.2845C54.1542 21.4759 53.0869 21.0231 51.9872 21.0231H11.1056C10.0059 21.0231 8.90621 21.4759 8.16232 22.2845C7.41842 23.0931 6.99796 24.1927 7.06265 25.3248L9.06793 58.5089C9.4237 63.4251 9.87651 69.5703 21.1643 69.5703H41.9285C53.2163 69.5703 53.6694 63.4574 54.0249 58.5089L56.0301 25.3571C56.0948 24.1927 55.6744 23.0931 54.9305 22.2845ZM36.9153 53.3663H26.145C24.8191 53.3663 23.7194 52.2667 23.7194 50.9406C23.7194 49.6145 24.8191 48.5149 26.145 48.5149H36.9153C38.2414 48.5149 39.341 49.6145 39.341 50.9406C39.341 52.2667 38.2414 53.3663 36.9153 53.3663ZM39.6321 40.429H23.4607C22.1346 40.429 21.0349 39.3294 21.0349 38.0033C21.0349 36.6772 22.1346 35.5776 23.4607 35.5776H39.6321C40.9582 35.5776 42.0579 36.6772 42.0579 38.0033C42.0579 39.3294 40.9582 40.429 39.6321 40.429Z" fill="#292D32"/>
</svg>
