<svg width="34" height="35" viewBox="0 0 34 35" fill="none" xmlns="http://www.w3.org/2000/svg">
<path d="M32.7943 7.04103C29.9894 6.78812 27.1844 6.59844 24.3621 6.45618V6.44038L23.9788 4.38552C23.7175 2.93131 23.3342 0.75 19.2575 0.75H14.6929C10.6336 0.75 10.2503 2.83647 9.97155 4.36971L9.60569 6.39296C7.98546 6.4878 6.36522 6.58264 4.74498 6.7249L1.19092 7.04103C0.459199 7.10425 -0.0634583 7.6891 0.00622923 8.33717C0.0759168 8.98524 0.703105 9.45944 1.43482 9.39621L4.98889 9.08008C14.118 8.25814 23.3168 8.57427 32.5504 9.41202H32.6898C33.3518 9.41202 33.9267 8.95363 33.9964 8.33717C34.0487 7.6891 33.526 7.10425 32.7943 7.04103Z" fill="#292D32"/>
<path d="M29.5887 11.6408C29.1705 11.2456 28.5956 11.0243 28.0033 11.0243H5.98208C5.38973 11.0243 4.79739 11.2456 4.39669 11.6408C3.99598 12.0359 3.7695 12.5733 3.80434 13.1266L4.8845 29.3441C5.07614 31.7467 5.32005 34.75 11.4003 34.75H22.5851C28.6653 34.75 28.9094 31.7626 29.1008 29.3441L30.181 13.1424C30.2158 12.5733 29.9894 12.0359 29.5887 11.6408ZM19.8847 26.8309H14.0832C13.369 26.8309 12.7766 26.2935 12.7766 25.6454C12.7766 24.9973 13.369 24.4599 14.0832 24.4599H19.8847C20.599 24.4599 21.1913 24.9973 21.1913 25.6454C21.1913 26.2935 20.599 26.8309 19.8847 26.8309ZM21.3481 20.5083H12.6372C11.9229 20.5083 11.3306 19.9708 11.3306 19.3228C11.3306 18.6747 11.9229 18.1373 12.6372 18.1373H21.3481C22.0624 18.1373 22.6547 18.6747 22.6547 19.3228C22.6547 19.9708 22.0624 20.5083 21.3481 20.5083Z" fill="#292D32"/>
</svg>
