<svg width="31" height="31" viewBox="0 0 31 31" fill="none" xmlns="http://www.w3.org/2000/svg">
<path d="M12.0607 9.79432C11.4749 9.20854 10.5251 9.20854 9.93934 9.79432C9.35356 10.3801 9.35356 11.3299 9.93934 11.9156L13.3787 15.355L9.93934 18.7943C9.35356 19.3801 9.35356 20.3299 9.93934 20.9156C10.5251 21.5014 11.4749 21.5014 12.0607 20.9156L15.5 17.4763L18.9394 20.9156C19.5251 21.5014 20.4749 21.5014 21.0607 20.9156C21.6464 20.3299 21.6464 19.3801 21.0607 18.7943L17.6213 15.355L21.0607 11.9156C21.6464 11.3299 21.6464 10.3801 21.0607 9.79432C20.4749 9.20854 19.5251 9.20854 18.9394 9.79432L15.5 13.2337L12.0607 9.79432Z" fill="black"/>
<path fill-rule="evenodd" clip-rule="evenodd" d="M15.5 0.35498C7.21572 0.35498 0.5 7.07071 0.5 15.355C0.5 23.6392 7.21572 30.355 15.5 30.355C23.7842 30.355 30.5 23.6392 30.5 15.355C30.5 7.07071 23.7842 0.35498 15.5 0.35498ZM3.5 15.355C3.5 8.72756 8.87258 3.35498 15.5 3.35498C22.1275 3.35498 27.5 8.72756 27.5 15.355C27.5 21.9824 22.1275 27.355 15.5 27.355C8.87258 27.355 3.5 21.9824 3.5 15.355Z" fill="black"/>
</svg>
