<svg width="24" height="28" viewBox="0 0 24 28" fill="none" xmlns="http://www.w3.org/2000/svg">
<path d="M15 4.25818C15.552 4.25818 16 4.7524 16 5.36134V7.56766H21C21.552 7.56766 22 8.06188 22 8.67083V23.0119C22 23.6209 21.552 24.1151 21 24.1151H3C2.448 24.1151 2 23.6209 2 23.0119V8.67083C2 8.06188 2.448 7.56766 3 7.56766H8V5.36134C8 4.7524 8.448 4.25818 9 4.25818H15ZM16 9.77399H8V21.9088H16V9.77399ZM4 9.77399V21.9088H6V9.77399H4ZM14 6.4645H10V7.56766H14V6.4645ZM18 9.77399V21.9088H20V9.77399H18Z" fill="white"/>
</svg>
