<svg width="24" height="27" viewBox="0 0 24 27" fill="none" xmlns="http://www.w3.org/2000/svg">
<path d="M15 3.30945C15.552 3.30945 16 3.80366 16 4.41261V6.61893H21C21.552 6.61893 22 7.11315 22 7.7221V22.0632C22 22.6721 21.552 23.1664 21 23.1664H3C2.448 23.1664 2 22.6721 2 22.0632V7.7221C2 7.11315 2.448 6.61893 3 6.61893H8V4.41261C8 3.80366 8.448 3.30945 9 3.30945H15ZM16 8.82526H8V20.96H16V8.82526ZM4 8.82526V20.96H6V8.82526H4ZM14 5.51577H10V6.61893H14V5.51577ZM18 8.82526V20.96H20V8.82526H18Z" fill="black"/>
</svg>
