<svg width="41" height="40" viewBox="0 0 41 40" fill="none" xmlns="http://www.w3.org/2000/svg">
<ellipse cx="20.1146" cy="20" rx="20.1146" ry="20" fill="#A2C6F3"/>
<path d="M14.0056 29.4073C14.0056 27.6784 14.6963 26.0204 15.9258 24.798C17.1553 23.5755 18.8228 22.8887 20.5615 22.8887C22.3002 22.8887 23.9677 23.5755 25.1972 24.798C26.4267 26.0204 27.1174 27.6784 27.1174 29.4073H25.4784C25.4784 28.1106 24.9604 26.8671 24.0383 25.9503C23.1162 25.0334 21.8655 24.5184 20.5615 24.5184C19.2574 24.5184 18.0068 25.0334 17.0847 25.9503C16.1626 26.8671 15.6446 28.1106 15.6446 29.4073H14.0056ZM20.5615 22.0739C17.8449 22.0739 15.6446 19.8861 15.6446 17.185C15.6446 14.4839 17.8449 12.2961 20.5615 12.2961C23.2781 12.2961 25.4784 14.4839 25.4784 17.185C25.4784 19.8861 23.2781 22.0739 20.5615 22.0739ZM20.5615 20.4443C22.3725 20.4443 23.8394 18.9858 23.8394 17.185C23.8394 15.3843 22.3725 13.9258 20.5615 13.9258C18.7504 13.9258 17.2836 15.3843 17.2836 17.185C17.2836 18.9858 18.7504 20.4443 20.5615 20.4443Z" fill="#001018"/>
</svg>
