<svg width="24" height="24" viewBox="0 0 24 24" fill="none" xmlns="http://www.w3.org/2000/svg">
<path d="M17.8822 19.2969C16.1234 20.4125 14.0829 21.0033 12.0002 20.9999C6.60815 20.9999 2.12215 17.1199 1.18115 11.9999C1.61118 9.67066 2.78278 7.54284 4.52115 5.93394L1.39215 2.80794L2.80715 1.39294L22.6062 21.1929L21.1912 22.6069L17.8812 19.2969H17.8822ZM5.93515 7.34994C4.57616 8.58553 3.62947 10.2087 3.22315 11.9999C3.53545 13.3664 4.16242 14.6411 5.05416 15.7225C5.94589 16.804 7.07778 17.6623 8.3597 18.2293C9.64163 18.7962 11.0382 19.056 12.4382 18.9881C13.8383 18.9201 15.2031 18.5263 16.4242 17.8379L14.3962 15.8099C13.5328 16.3538 12.5104 16.588 11.4964 16.4744C10.4824 16.3607 9.53719 15.9058 8.81572 15.1844C8.09425 14.4629 7.63938 13.5177 7.52571 12.5037C7.41205 11.4897 7.64634 10.4673 8.19015 9.60394L5.93515 7.34994ZM12.9142 14.3279L9.67215 11.0859C9.49422 11.5389 9.45234 12.0339 9.55166 12.5103C9.65098 12.9867 9.88717 13.4237 10.2313 13.7678C10.5754 14.1119 11.0124 14.3481 11.4888 14.4474C11.9652 14.5468 12.4602 14.5049 12.9132 14.3269L12.9142 14.3279ZM20.8072 16.5919L19.3762 15.1619C20.0446 14.2092 20.5205 13.1351 20.7772 11.9999C20.5054 10.8097 19.9944 9.68709 19.2753 8.70044C18.5562 7.71379 17.6439 6.88367 16.594 6.26055C15.5441 5.63743 14.3784 5.23431 13.1679 5.07571C11.9573 4.9171 10.7272 5.00632 9.55215 5.33794L7.97415 3.75994C9.22115 3.26994 10.5802 2.99994 12.0002 2.99994C17.3922 2.99994 21.8782 6.87994 22.8192 11.9999C22.5127 13.6656 21.824 15.2375 20.8072 16.5919ZM11.7232 7.50794C12.3597 7.46861 12.9973 7.56501 13.5937 7.79076C14.1901 8.01651 14.7318 8.36646 15.1827 8.81739C15.6336 9.26833 15.9836 9.80997 16.2093 10.4064C16.4351 11.0028 16.5315 11.6404 16.4922 12.2769L11.7222 7.50794H11.7232Z" fill="#001018"/>
</svg>
