<svg width="19" height="22" viewBox="0 0 19 22" fill="none" xmlns="http://www.w3.org/2000/svg">
<path d="M18.7324 7.09686C17.6085 2.20321 13.2947 0 9.50537 0C9.50537 0 9.50537 0 9.49466 0C5.71604 0 1.39153 2.19261 0.267582 7.08627C-0.984813 12.5519 2.39773 17.1808 5.45914 20.0937C6.59378 21.1741 8.04959 21.7143 9.50537 21.7143C10.9611 21.7143 12.4169 21.1741 13.5409 20.0937C16.6023 17.1808 19.9848 12.5625 18.7324 7.09686ZM9.50537 12.4036C7.64283 12.4036 6.1335 10.9101 6.1335 9.06704C6.1335 7.22397 7.64283 5.73045 9.50537 5.73045C11.3679 5.73045 12.8772 7.22397 12.8772 9.06704C12.8772 10.9101 11.3679 12.4036 9.50537 12.4036Z" fill="#292D32"/>
</svg>
