<svg width="534" height="435" viewBox="0 0 534 435" fill="none" xmlns="http://www.w3.org/2000/svg">
<rect x="246.554" width="164.77" height="435" fill="#6829FF"/>
<ellipse cx="312.703" cy="45.0202" rx="9.62163" ry="8.77016" fill="white"/>
<ellipse cx="312.703" cy="45.0202" rx="9.62163" ry="8.77016" fill="white"/>
<ellipse cx="313.906" cy="45.0202" rx="3.60811" ry="2.92339" fill="black"/>
<ellipse cx="359.608" cy="45.0202" rx="9.62163" ry="8.77016" fill="white"/>
<ellipse cx="359.608" cy="45.0202" rx="9.62163" ry="8.77016" fill="white"/>
<ellipse cx="360.209" cy="45.0202" rx="4.20946" ry="2.92339" fill="black"/>
<rect width="15.1541" height="5.86779" transform="matrix(0.967983 0.256988 -0.269958 0.961227 324.43 72.823)" fill="black"/>
<path d="M334.797 77.2141L348.684 70.3488L351.409 75.5606L337.522 82.4259L334.797 77.2141Z" fill="black"/>
<path d="M349.987 132.137H458.23V435H349.987V132.137Z" fill="#1B1D21"/>
<ellipse cx="376.768" cy="171.774" rx="6.69546" ry="5.08159" fill="white"/>
<ellipse cx="376.768" cy="171.774" rx="6.69546" ry="5.08159" fill="white"/>
<ellipse cx="379.001" cy="172.282" rx="3.34773" ry="1.52448" fill="black"/>
<ellipse cx="403.55" cy="171.774" rx="6.69546" ry="5.08159" fill="white"/>
<ellipse cx="403.55" cy="171.774" rx="6.69546" ry="5.08159" fill="white"/>
<ellipse cx="405.782" cy="172.282" rx="3.34773" ry="1.52448" fill="black"/>
<path d="M345.48 325.185C310.884 277.709 254.381 246.734 190.628 246.734C127.348 246.734 71.2394 277.242 36.5654 324.173C13.5544 355.304 0 393.595 0 435H190.628H369.831C369.831 435 368.018 356.082 345.48 325.185Z" fill="#FF8433"/>
<ellipse cx="147.332" cy="299.939" rx="9.02028" ry="8.77016" fill="black"/>
<ellipse cx="227.913" cy="297.601" rx="9.02028" ry="8.77016" fill="black"/>
<path d="M206.39 331.753C203.869 334.18 199.688 335.83 194.921 335.957C190.19 336.082 185.952 334.678 183.294 332.416C181.53 330.915 180.463 329.04 180.405 326.984L194.659 326.605L208.057 326.25C208.057 326.25 208.032 330.173 206.39 331.753Z" fill="black"/>
<rect x="402.906" y="240.887" width="120.27" height="193.814" fill="#E6CA0B"/>
<path d="M515.257 214.715C504.006 201.54 485.631 192.943 464.899 192.943C444.32 192.943 426.073 201.41 414.797 214.434C407.314 223.074 402.906 233.701 402.906 245.191H464.899H523.176C523.176 245.191 522.586 223.29 515.257 214.715Z" fill="#E6CA0B"/>
<ellipse cx="448.007" cy="243.81" rx="3.00676" ry="2.92339" fill="black"/>
<ellipse cx="517.764" cy="243.81" rx="3.00676" ry="2.92339" fill="black"/>
<rect x="478.676" y="260.766" width="55.3244" height="3.50806" fill="black"/>
</svg>
