<svg width="100" height="28" viewBox="0 0 100 28" fill="none" xmlns="http://www.w3.org/2000/svg">
<rect x="0.5" y="2.5" width="99" height="24" rx="12" fill="black" stroke="black"/>
<path d="M31.9631 13.9091C31.9631 14.9962 31.7642 15.9309 31.3665 16.7131C30.9688 17.492 30.4235 18.0919 29.7308 18.5128C29.0414 18.9304 28.2576 19.1392 27.3793 19.1392C26.4976 19.1392 25.7105 18.9304 25.0178 18.5128C24.3284 18.0919 23.7848 17.4903 23.3871 16.7081C22.9893 15.9259 22.7905 14.9929 22.7905 13.9091C22.7905 12.822 22.9893 11.889 23.3871 11.1101C23.7848 10.3279 24.3284 9.72798 25.0178 9.31037C25.7105 8.88944 26.4976 8.67898 27.3793 8.67898C28.2576 8.67898 29.0414 8.88944 29.7308 9.31037C30.4235 9.72798 30.9688 10.3279 31.3665 11.1101C31.7642 11.889 31.9631 12.822 31.9631 13.9091ZM30.4418 13.9091C30.4418 13.0805 30.3075 12.3828 30.0391 11.8161C29.7739 11.246 29.4093 10.8151 28.9453 10.5234C28.4846 10.2285 27.9626 10.081 27.3793 10.081C26.7926 10.081 26.2689 10.2285 25.8082 10.5234C25.3475 10.8151 24.983 11.246 24.7145 11.8161C24.4493 12.3828 24.3168 13.0805 24.3168 13.9091C24.3168 14.7377 24.4493 15.437 24.7145 16.0071C24.983 16.5739 25.3475 17.0047 25.8082 17.2997C26.2689 17.5914 26.7926 17.7372 27.3793 17.7372C27.9626 17.7372 28.4846 17.5914 28.9453 17.2997C29.4093 17.0047 29.7739 16.5739 30.0391 16.0071C30.3075 15.437 30.4418 14.7377 30.4418 13.9091ZM34.1791 19V11.3636H35.6158V12.5767H35.6954C35.8346 12.1657 36.0799 11.8426 36.4312 11.6072C36.7858 11.3686 37.1869 11.2493 37.6343 11.2493C37.7271 11.2493 37.8365 11.2526 37.9624 11.2592C38.0917 11.2659 38.1928 11.2741 38.2657 11.2841V12.706C38.206 12.6894 38.1 12.6712 37.9475 12.6513C37.7951 12.6281 37.6426 12.6165 37.4901 12.6165C37.1388 12.6165 36.8256 12.6911 36.5505 12.8402C36.2787 12.986 36.0633 13.1899 35.9042 13.4517C35.7451 13.7102 35.6656 14.0052 35.6656 14.3366V19H34.1791ZM39.9721 19V11.3636H41.4586V19H39.9721ZM40.7228 10.1854C40.4643 10.1854 40.2422 10.0992 40.0566 9.92685C39.8743 9.75118 39.7832 9.54238 39.7832 9.30043C39.7832 9.05516 39.8743 8.84635 40.0566 8.67401C40.2422 8.49834 40.4643 8.41051 40.7228 8.41051C40.9813 8.41051 41.2017 8.49834 41.384 8.67401C41.5696 8.84635 41.6624 9.05516 41.6624 9.30043C41.6624 9.54238 41.5696 9.75118 41.384 9.92685C41.2017 10.0992 40.9813 10.1854 40.7228 10.1854ZM47.0801 22.0227C46.4736 22.0227 45.9516 21.9432 45.5141 21.7841C45.0799 21.625 44.7253 21.4145 44.4502 21.1527C44.1751 20.8909 43.9696 20.6042 43.8337 20.2926L45.1114 19.7656C45.2009 19.9115 45.3202 20.0656 45.4693 20.228C45.6218 20.3937 45.8273 20.5346 46.0858 20.6506C46.3477 20.7666 46.6841 20.8246 47.0951 20.8246C47.6585 20.8246 48.1242 20.687 48.4921 20.4119C48.86 20.1402 49.0439 19.706 49.0439 19.1094V17.608H48.9495C48.86 17.7704 48.7307 17.951 48.5617 18.1499C48.3959 18.3487 48.1673 18.5211 47.8756 18.6669C47.5839 18.8127 47.2044 18.8857 46.7371 18.8857C46.1339 18.8857 45.5903 18.7448 45.1064 18.4631C44.6258 18.178 44.2447 17.7588 43.9629 17.2053C43.6845 16.6484 43.5453 15.964 43.5453 15.152C43.5453 14.34 43.6829 13.6439 43.958 13.0639C44.2364 12.4839 44.6175 12.0398 45.1014 11.7315C45.5853 11.42 46.1339 11.2642 46.747 11.2642C47.221 11.2642 47.6038 11.3438 47.8955 11.5028C48.1871 11.6586 48.4142 11.8409 48.5766 12.0497C48.7423 12.2585 48.8699 12.4425 48.9594 12.6016H49.0688V11.3636H50.5254V19.169C50.5254 19.8253 50.373 20.3639 50.0681 20.7848C49.7631 21.2057 49.3505 21.5173 48.8301 21.7195C48.3131 21.9216 47.7298 22.0227 47.0801 22.0227ZM47.0652 17.6527C47.4928 17.6527 47.854 17.5533 48.149 17.3544C48.4473 17.1522 48.6727 16.8639 48.8252 16.4893C48.9809 16.1115 49.0588 15.6591 49.0588 15.1321C49.0588 14.6184 48.9826 14.166 48.8301 13.7749C48.6777 13.3838 48.454 13.0788 48.159 12.8601C47.864 12.638 47.4994 12.527 47.0652 12.527C46.6178 12.527 46.2449 12.643 45.9466 12.875C45.6483 13.1037 45.4229 13.4152 45.2705 13.8097C45.1213 14.2041 45.0468 14.6449 45.0468 15.1321C45.0468 15.6326 45.123 16.0717 45.2754 16.4496C45.4279 16.8274 45.6533 17.1224 45.9516 17.3345C46.2532 17.5466 46.6244 17.6527 47.0652 17.6527ZM52.9391 19V11.3636H54.4256V19H52.9391ZM53.6898 10.1854C53.4312 10.1854 53.2092 10.0992 53.0236 9.92685C52.8413 9.75118 52.7501 9.54238 52.7501 9.30043C52.7501 9.05516 52.8413 8.84635 53.0236 8.67401C53.2092 8.49834 53.4312 8.41051 53.6898 8.41051C53.9483 8.41051 54.1687 8.49834 54.351 8.67401C54.5366 8.84635 54.6294 9.05516 54.6294 9.30043C54.6294 9.54238 54.5366 9.75118 54.351 9.92685C54.1687 10.0992 53.9483 10.1854 53.6898 10.1854ZM58.3319 14.4659V19H56.8454V11.3636H58.2722V12.6065H58.3667C58.5424 12.2022 58.8174 11.8774 59.192 11.6321C59.5698 11.3868 60.0454 11.2642 60.6188 11.2642C61.1392 11.2642 61.5949 11.3736 61.986 11.5923C62.3771 11.8078 62.6804 12.1293 62.8958 12.5568C63.1112 12.9844 63.219 13.513 63.219 14.1428V19H61.7325V14.3217C61.7325 13.7682 61.5883 13.3357 61.2999 13.0241C61.0116 12.7093 60.6155 12.5518 60.1117 12.5518C59.767 12.5518 59.4604 12.6264 59.192 12.7756C58.9268 12.9247 58.7164 13.1435 58.5606 13.4318C58.4081 13.7169 58.3319 14.0616 58.3319 14.4659ZM67.8549 19.169C67.371 19.169 66.9335 19.0795 66.5424 18.9006C66.1513 18.7183 65.8414 18.4548 65.6127 18.1101C65.3873 17.7654 65.2746 17.3428 65.2746 16.8423C65.2746 16.4115 65.3575 16.0568 65.5232 15.7784C65.6889 15.5 65.9126 15.2796 66.1944 15.1172C66.4761 14.9548 66.791 14.8321 67.139 14.7493C67.487 14.6664 67.8416 14.6035 68.2029 14.5604C68.6603 14.5073 69.0315 14.4643 69.3165 14.4311C69.6016 14.3946 69.8087 14.3366 69.938 14.2571C70.0672 14.1776 70.1319 14.0483 70.1319 13.8693V13.8345C70.1319 13.4003 70.0092 13.0639 69.764 12.8253C69.522 12.5866 69.1607 12.4673 68.6802 12.4673C68.1797 12.4673 67.7853 12.5784 67.4969 12.8004C67.2119 13.0192 67.0147 13.2628 66.9053 13.5312L65.5083 13.2131C65.674 12.7491 65.916 12.3745 66.2341 12.0895C66.5556 11.8011 66.9252 11.5923 67.3428 11.4631C67.7604 11.3305 68.1996 11.2642 68.6603 11.2642C68.9652 11.2642 69.2883 11.3007 69.6297 11.3736C69.9744 11.4432 70.2959 11.5724 70.5942 11.7614C70.8958 11.9503 71.1428 12.2204 71.335 12.5717C71.5272 12.9197 71.6233 13.3722 71.6233 13.929V19H70.1716V17.956H70.112C70.0159 18.1482 69.8717 18.3371 69.6794 18.5227C69.4872 18.7083 69.2403 18.8625 68.9387 18.9851C68.6371 19.1077 68.2758 19.169 67.8549 19.169ZM68.178 17.9759C68.589 17.9759 68.9403 17.8946 69.232 17.7322C69.527 17.5698 69.7507 17.3577 69.9032 17.0959C70.0589 16.8307 70.1368 16.5473 70.1368 16.2457V15.2614C70.0838 15.3144 69.9811 15.3641 69.8286 15.4105C69.6794 15.4536 69.5088 15.4917 69.3165 15.5249C69.1243 15.5547 68.937 15.5829 68.7547 15.6094C68.5724 15.6326 68.42 15.6525 68.2973 15.669C68.009 15.7055 67.7455 15.7668 67.5069 15.853C67.2715 15.9392 67.0826 16.0634 66.9401 16.2259C66.8009 16.3849 66.7313 16.5971 66.7313 16.8622C66.7313 17.2301 66.8672 17.5085 67.139 17.6974C67.4107 17.883 67.7571 17.9759 68.178 17.9759ZM75.5098 8.81818V19H74.0233V8.81818H75.5098Z" fill="white"/>
</svg>
