<svg width="22" height="22" viewBox="0 0 22 22" fill="none" xmlns="http://www.w3.org/2000/svg">
<path d="M7.6251 2H3.12502C2.50369 2 2 2.50367 2 3.12497V7.62486C2 8.24617 2.50369 8.74984 3.12502 8.74984H7.6251C8.24643 8.74984 8.75012 8.24617 8.75012 7.62486V3.12497C8.75012 2.50367 8.24643 2 7.6251 2Z" stroke="white" stroke-width="2.24999" stroke-linejoin="round"/>
<path d="M7.6251 13.2498H3.12502C2.50369 13.2498 2 13.7534 2 14.3747V18.8746C2 19.4959 2.50369 19.9996 3.12502 19.9996H7.6251C8.24643 19.9996 8.75012 19.4959 8.75012 18.8746V14.3747C8.75012 13.7534 8.24643 13.2498 7.6251 13.2498Z" stroke="white" stroke-width="2.24999" stroke-linejoin="round"/>
<path d="M18.8751 13.2498H14.375C13.7537 13.2498 13.25 13.7534 13.25 14.3747V18.8746C13.25 19.4959 13.7537 19.9996 14.375 19.9996H18.8751C19.4964 19.9996 20.0001 19.4959 20.0001 18.8746V14.3747C20.0001 13.7534 19.4964 13.2498 18.8751 13.2498Z" stroke="white" stroke-width="2.24999" stroke-linejoin="round"/>
<path d="M18.8751 2H14.375C13.7537 2 13.25 2.50367 13.25 3.12497V7.62486C13.25 8.24617 13.7537 8.74984 14.375 8.74984H18.8751C19.4964 8.74984 20.0001 8.24617 20.0001 7.62486V3.12497C20.0001 2.50367 19.4964 2 18.8751 2Z" stroke="white" stroke-width="2.24999" stroke-linejoin="round"/>
</svg>
