<svg width="24" height="24" viewBox="0 0 24 24" fill="none" xmlns="http://www.w3.org/2000/svg">
<path fill-rule="evenodd" clip-rule="evenodd" d="M12 11.1567C11.5308 11.1567 11.1505 10.7764 11.1505 10.3072L11.1505 3.90188C11.1505 3.4327 11.5308 3.05236 12 3.05236C12.4692 3.05236 12.8495 3.4327 12.8495 3.90188L12.8495 10.3072C12.8495 10.7764 12.4692 11.1567 12 11.1567Z" fill="white"/>
<path d="M5.59469 5.46516C4.88083 6.16497 4.28114 6.98083 3.82617 7.8822C3.20144 9.11989 2.84955 10.5188 2.84955 11.9999C2.84955 17.0536 6.94636 21.1504 12 21.1504C17.0537 21.1504 21.1505 17.0536 21.1505 11.9999C21.1505 10.5188 20.7986 9.11989 20.1739 7.8822C19.7841 7.10994 19.288 6.40045 18.705 5.77294" stroke="white" stroke-width="1.69904" stroke-linecap="round"/>
</svg>
