<svg width="15" height="15" viewBox="0 0 15 15" fill="none" xmlns="http://www.w3.org/2000/svg">
<path d="M7.5 0C6.04259 0.00276663 4.61744 0.428927 3.39813 1.22657C2.17882 2.02422 1.21799 3.15892 0.632662 4.49247C0.0473343 5.82602 -0.137224 7.30086 0.101467 8.73735C0.340158 10.1738 0.991796 11.51 1.97701 12.583C2.68066 13.3451 3.53467 13.9533 4.48523 14.3693C5.43578 14.7852 6.46227 15 7.5 15C8.53773 15 9.56422 14.7852 10.5148 14.3693C11.4653 13.9533 12.3193 13.3451 13.023 12.583C14.0082 11.51 14.6598 10.1738 14.8985 8.73735C15.1372 7.30086 14.9527 5.82602 14.3673 4.49247C13.782 3.15892 12.8212 2.02422 11.6019 1.22657C10.3826 0.428927 8.95741 0.00276663 7.5 0ZM7.5 13.514C5.94339 13.5116 4.44839 12.906 3.32958 11.8247C3.66926 10.9985 4.2471 10.2919 4.98967 9.79454C5.73225 9.29722 6.60603 9.03169 7.5 9.03169C8.39397 9.03169 9.26775 9.29722 10.0103 9.79454C10.7529 10.2919 11.3307 10.9985 11.6704 11.8247C10.5516 12.906 9.05661 13.5116 7.5 13.514ZM5.99715 6.00621C5.99715 5.70923 6.08529 5.41892 6.25042 5.17199C6.41556 4.92506 6.65027 4.7326 6.92488 4.61895C7.19949 4.50531 7.50167 4.47557 7.79319 4.53351C8.08472 4.59145 8.3525 4.73445 8.56268 4.94445C8.77286 5.15445 8.91599 5.422 8.97398 5.71327C9.03197 6.00454 9.0022 6.30645 8.88846 6.58083C8.77471 6.8552 8.58208 7.08971 8.33494 7.2547C8.0878 7.4197 7.79724 7.50776 7.5 7.50776C7.10142 7.50776 6.71916 7.34956 6.43732 7.06797C6.15548 6.78637 5.99715 6.40444 5.99715 6.00621ZM12.6924 10.5109C12.021 9.3635 10.9877 8.47103 9.75428 7.97324C10.1369 7.53979 10.3862 7.00523 10.4722 6.43373C10.5583 5.86222 10.4775 5.27804 10.2395 4.75128C10.0015 4.22453 9.61646 3.77757 9.13053 3.46405C8.6446 3.15054 8.07844 2.98377 7.5 2.98377C6.92156 2.98377 6.3554 3.15054 5.86947 3.46405C5.38354 3.77757 4.99848 4.22453 4.76048 4.75128C4.52249 5.27804 4.44168 5.86222 4.52775 6.43373C4.61382 7.00523 4.86312 7.53979 5.24572 7.97324C4.01232 8.47103 2.97901 9.3635 2.30764 10.5109C1.77258 9.60025 1.48987 8.5637 1.48858 7.50776C1.48858 5.91481 2.12193 4.38711 3.24929 3.26073C4.37665 2.13435 5.90567 1.50155 7.5 1.50155C9.09433 1.50155 10.6234 2.13435 11.7507 3.26073C12.8781 4.38711 13.5114 5.91481 13.5114 7.50776C13.5101 8.5637 13.2274 9.60025 12.6924 10.5109Z" fill="black"/>
</svg>
