<svg width="25" height="28" viewBox="0 0 25 28" fill="none" xmlns="http://www.w3.org/2000/svg">
<path fill-rule="evenodd" clip-rule="evenodd" d="M13.1856 5.47059C12.8821 5.28068 12.5116 5.28068 12.2081 5.47059L6.2266 9.21377C5.9127 9.41021 5.71844 9.77974 5.71844 10.1804V17.5676C5.71844 17.9683 5.9127 18.3378 6.2266 18.5343L12.2081 22.2774C12.5116 22.4674 12.8821 22.4674 13.1856 22.2774L19.1671 18.5343C19.481 18.3378 19.6752 17.9683 19.6752 17.5676V10.1804C19.6752 9.77974 19.481 9.4102 19.1671 9.21376L13.1856 5.47059ZM11.2306 3.53729C12.141 2.96755 13.2527 2.96755 14.1631 3.53729L20.1446 7.28046C21.0863 7.86978 21.6691 8.97837 21.6691 10.1804V17.5676C21.6691 18.7697 21.0863 19.8783 20.1446 20.4676L14.1631 24.2108C13.2527 24.7805 12.141 24.7805 11.2306 24.2108L5.24911 20.4676C4.30739 19.8783 3.72461 18.7697 3.72461 17.5676V10.1804C3.72461 8.97837 4.30739 7.86978 5.24911 7.28046L11.2306 3.53729Z" fill="white"/>
<path fill-rule="evenodd" clip-rule="evenodd" d="M12.6966 11.6558C11.5955 11.6558 10.7028 12.6489 10.7028 13.874C10.7028 15.099 11.5955 16.0921 12.6966 16.0921C13.7978 16.0921 14.6905 15.099 14.6905 13.874C14.6905 12.6489 13.7978 11.6558 12.6966 11.6558ZM8.70898 13.874C8.70898 11.4238 10.4943 9.43762 12.6966 9.43762C14.899 9.43762 16.6843 11.4238 16.6843 13.874C16.6843 16.3241 14.899 18.3103 12.6966 18.3103C10.4943 18.3103 8.70898 16.3241 8.70898 13.874Z" fill="white"/>
</svg>
