<svg width="27" height="27" viewBox="0 0 27 27" fill="none" xmlns="http://www.w3.org/2000/svg">
<path fill-rule="evenodd" clip-rule="evenodd" d="M14.0762 4.87937C13.7493 4.69047 13.3501 4.69047 13.0232 4.87937L6.57992 8.60254C6.24178 8.79793 6.03252 9.16549 6.03252 9.56403V16.9118C6.03252 17.3103 6.24178 17.6779 6.57992 17.8733L13.0232 21.5964C13.3501 21.7853 13.7493 21.7853 14.0762 21.5964L20.5194 17.8733C20.8576 17.6779 21.0668 17.3103 21.0668 16.9118V9.56403C21.0668 9.16549 20.8576 8.79793 20.5194 8.60254L14.0762 4.87937ZM11.9702 2.95639C12.9509 2.3897 14.1484 2.3897 15.1291 2.95639L21.5724 6.67956C22.5868 7.26573 23.2146 8.3684 23.2146 9.56403V16.9118C23.2146 18.1074 22.5868 19.2101 21.5724 19.7962L15.1291 23.5194C14.1484 24.0861 12.9509 24.0861 11.9702 23.5194L5.52696 19.7962C4.51254 19.2101 3.88477 18.1074 3.88477 16.9118V9.56403C3.88477 8.3684 4.51254 7.26573 5.52696 6.67956L11.9702 2.95639Z" fill="black"/>
<path fill-rule="evenodd" clip-rule="evenodd" d="M13.5494 11.0315C12.3632 11.0315 11.4017 12.0193 11.4017 13.2378C11.4017 14.4564 12.3632 15.4442 13.5494 15.4442C14.7356 15.4442 15.6972 14.4564 15.6972 13.2378C15.6972 12.0193 14.7356 11.0315 13.5494 11.0315ZM9.25391 13.2378C9.25391 10.8008 11.1771 8.8252 13.5494 8.8252C15.9218 8.8252 17.8449 10.8008 17.8449 13.2378C17.8449 15.6749 15.9218 17.6505 13.5494 17.6505C11.1771 17.6505 9.25391 15.6749 9.25391 13.2378Z" fill="black"/>
</svg>
