<svg width="21" height="23" viewBox="0 0 21 23" fill="none" xmlns="http://www.w3.org/2000/svg">
<path d="M14.6987 19.8569H6.10767C5.25324 19.8569 4.43381 19.5082 3.82963 18.8876C3.22546 18.2669 2.88604 17.4252 2.88604 16.5474V5.51581C2.88604 5.22323 2.7729 4.94264 2.57151 4.73576C2.37012 4.52887 2.09697 4.41265 1.81216 4.41265C1.52735 4.41265 1.2542 4.52887 1.05281 4.73576C0.851422 4.94264 0.738281 5.22323 0.738281 5.51581V16.5474C0.738281 18.0103 1.30398 19.4133 2.31094 20.4477C3.3179 21.4821 4.68362 22.0632 6.10767 22.0632H14.6987C14.9835 22.0632 15.2567 21.947 15.4581 21.7401C15.6594 21.5333 15.7726 21.2527 15.7726 20.9601C15.7726 20.6675 15.6594 20.3869 15.4581 20.18C15.2567 19.9731 14.9835 19.8569 14.6987 19.8569ZM8.25543 12.1348C8.25543 12.4274 8.36857 12.708 8.56996 12.9148C8.77135 13.1217 9.0445 13.2379 9.32931 13.2379H14.6987C14.9835 13.2379 15.2567 13.1217 15.4581 12.9148C15.6594 12.708 15.7726 12.4274 15.7726 12.1348C15.7726 11.8422 15.6594 11.5616 15.4581 11.3547C15.2567 11.1478 14.9835 11.0316 14.6987 11.0316H9.32931C9.0445 11.0316 8.77135 11.1478 8.56996 11.3547C8.36857 11.5616 8.25543 11.8422 8.25543 12.1348ZM20.0681 7.65594C20.0569 7.5546 20.0353 7.45476 20.0037 7.35809V7.25881C19.952 7.14538 19.8832 7.04111 19.7996 6.94992L13.3564 0.330949C13.2676 0.24514 13.1661 0.174389 13.0557 0.121348C13.0236 0.116671 12.9911 0.116671 12.959 0.121348C12.8499 0.057079 12.7295 0.015824 12.6046 0H8.25543C7.401 0 6.58157 0.348677 5.97739 0.969326C5.37322 1.58998 5.0338 2.43176 5.0338 3.30949V14.3411C5.0338 15.2188 5.37322 16.0606 5.97739 16.6813C6.58157 17.3019 7.401 17.6506 8.25543 17.6506H16.8465C17.7009 17.6506 18.5203 17.3019 19.1245 16.6813C19.7287 16.0606 20.0681 15.2188 20.0681 14.3411V7.72213C20.0681 7.72213 20.0681 7.72213 20.0681 7.65594ZM13.6248 3.76178L16.4062 6.61897H14.6987C14.4139 6.61897 14.1407 6.50275 13.9394 6.29586C13.738 6.08898 13.6248 5.80839 13.6248 5.51581V3.76178ZM17.9203 14.3411C17.9203 14.6337 17.8072 14.9143 17.6058 15.1212C17.4044 15.328 17.1313 15.4443 16.8465 15.4443H8.25543C7.97062 15.4443 7.69748 15.328 7.49609 15.1212C7.29469 14.9143 7.18155 14.6337 7.18155 14.3411V3.30949C7.18155 3.01691 7.29469 2.73632 7.49609 2.52943C7.69748 2.32255 7.97062 2.20632 8.25543 2.20632H11.4771V5.51581C11.48 5.89215 11.5453 6.26522 11.6704 6.61897H9.32931C9.0445 6.61897 8.77135 6.7352 8.56996 6.94208C8.36857 7.14896 8.25543 7.42956 8.25543 7.72213C8.25543 8.01471 8.36857 8.2953 8.56996 8.50219C8.77135 8.70907 9.0445 8.8253 9.32931 8.8253H17.9203V14.3411Z" fill="black"/>
</svg>
