<svg width="19" height="23" viewBox="0 0 19 23" fill="none" xmlns="http://www.w3.org/2000/svg">
<path d="M13.6786 20.6562H5.70332C4.91012 20.6562 4.14942 20.3057 3.58855 19.6817C3.02767 19.0577 2.71258 18.2114 2.71258 17.3289V6.23807C2.71258 5.94392 2.60755 5.66182 2.42059 5.45382C2.23363 5.24583 1.98006 5.12898 1.71566 5.12898C1.45127 5.12898 1.1977 5.24583 1.01074 5.45382C0.823782 5.66182 0.71875 5.94392 0.71875 6.23807V17.3289C0.71875 18.7997 1.24391 20.2102 2.1787 21.2502C3.11348 22.2901 4.38133 22.8744 5.70332 22.8744H13.6786C13.943 22.8744 14.1966 22.7575 14.3836 22.5495C14.5705 22.3415 14.6755 22.0594 14.6755 21.7653C14.6755 21.4711 14.5705 21.189 14.3836 20.981C14.1966 20.7731 13.943 20.6562 13.6786 20.6562ZM7.69715 12.8926C7.69715 13.1867 7.80218 13.4688 7.98913 13.6768C8.17609 13.8848 8.42966 14.0017 8.69406 14.0017H13.6786C13.943 14.0017 14.1966 13.8848 14.3836 13.6768C14.5705 13.4688 14.6755 13.1867 14.6755 12.8926C14.6755 12.5984 14.5705 12.3163 14.3836 12.1083C14.1966 11.9004 13.943 11.7835 13.6786 11.7835H8.69406C8.42966 11.7835 8.17609 11.9004 7.98913 12.1083C7.80218 12.3163 7.69715 12.5984 7.69715 12.8926ZM18.6632 8.3897C18.6528 8.28781 18.6328 8.18743 18.6034 8.09024V7.99042C18.5554 7.87639 18.4915 7.77156 18.414 7.67988L12.4325 1.02535C12.3501 0.939084 12.2559 0.867953 12.1533 0.814626C12.1236 0.809924 12.0934 0.809924 12.0636 0.814626C11.9624 0.750013 11.8505 0.708536 11.7346 0.692627H7.69715C6.90395 0.692627 6.14324 1.04318 5.58237 1.66716C5.0215 2.29114 4.7064 3.13744 4.7064 4.01989V15.1108C4.7064 15.9932 5.0215 16.8395 5.58237 17.4635C6.14324 18.0875 6.90395 18.438 7.69715 18.438H15.6725C16.4656 18.438 17.2264 18.0875 17.7872 17.4635C18.3481 16.8395 18.6632 15.9932 18.6632 15.1108V8.45624C18.6632 8.45624 18.6632 8.45624 18.6632 8.3897ZM12.6817 4.47462L15.2637 7.34715H13.6786C13.4142 7.34715 13.1607 7.2303 12.9737 7.02231C12.7867 6.81431 12.6817 6.53221 12.6817 6.23807V4.47462ZM16.6694 15.1108C16.6694 15.4049 16.5643 15.687 16.3774 15.895C16.1904 16.103 15.9369 16.2199 15.6725 16.2199H7.69715C7.43275 16.2199 7.17918 16.103 6.99222 15.895C6.80526 15.687 6.70023 15.4049 6.70023 15.1108V4.01989C6.70023 3.72574 6.80526 3.44364 6.99222 3.23565C7.17918 3.02765 7.43275 2.9108 7.69715 2.9108H10.6879V6.23807C10.6906 6.61642 10.7513 6.9915 10.8673 7.34715H8.69406C8.42966 7.34715 8.17609 7.464 7.98913 7.672C7.80218 7.87999 7.69715 8.16209 7.69715 8.45624C7.69715 8.75039 7.80218 9.03249 7.98913 9.24048C8.17609 9.44848 8.42966 9.56533 8.69406 9.56533H16.6694V15.1108Z" fill="white"/>
</svg>
