<svg width="18" height="16" viewBox="0 0 18 16" fill="none" xmlns="http://www.w3.org/2000/svg">
<path d="M0.0566348 13.3074C-0.0443069 13.5556 -0.00800672 13.8561 0.147099 14.0564C0.302205 14.2566 0.542124 14.3127 0.745005 14.1961L3.36928 12.6882C5.57487 11.4209 7.98179 10.8412 10.3846 10.9776C10.4131 11.9381 10.4554 12.8982 10.5116 13.8574L10.5835 15.0848C10.6271 15.8294 11.294 16.2457 11.7993 15.8437C13.9928 14.0988 15.8996 11.8506 17.4182 9.21871L17.9014 8.38131C18.0329 8.15345 18.0329 7.84655 17.9014 7.61869L17.4182 6.78129C15.8996 4.14943 13.9928 1.90117 11.7993 0.15633C11.294 -0.245671 10.6271 0.170581 10.5835 0.915205L10.5116 2.14259C10.4634 2.96591 10.4254 3.78993 10.3975 4.61435H9.72228C5.96231 4.61435 2.52181 7.24653 0.823255 11.4226L0.0566348 13.3074Z" fill="#555555"/>
</svg>
