<svg width="18" height="20" viewBox="0 0 18 20" fill="none" xmlns="http://www.w3.org/2000/svg">
<path d="M14.5 0.5C12.8431 0.5 11.5 1.84315 11.5 3.5C11.5 3.76447 11.5342 4.02096 11.5985 4.26526C11.5276 4.2799 11.4577 4.30512 11.3909 4.34157L8.63435 5.84513L5.1279 7.84881C5.09206 7.86929 5.05855 7.89228 5.02747 7.91743C4.58006 7.65224 4.05781 7.5 3.5 7.5C1.84315 7.5 0.5 8.84315 0.5 10.5C0.5 12.1569 1.84315 13.5 3.5 13.5C4.37407 13.5 5.16083 13.1262 5.70915 12.5297L8.63574 14.1556L11.5902 15.7671C11.5313 16.0017 11.5 16.2472 11.5 16.5C11.5 18.1569 12.8431 19.5 14.5 19.5C16.1569 19.5 17.5 18.1569 17.5 16.5C17.5 14.8431 16.1569 13.5 14.5 13.5C13.6356 13.5 12.8565 13.8656 12.3091 14.4506L9.36167 12.843L6.4163 11.2066C6.47101 10.98 6.5 10.7434 6.5 10.5C6.5 9.96031 6.35749 9.4539 6.10805 9.01636L9.36566 7.15486L12.1091 5.65842C12.1762 5.62185 12.2354 5.57653 12.2862 5.52466C12.8347 6.12408 13.6235 6.5 14.5 6.5C16.1569 6.5 17.5 5.15685 17.5 3.5C17.5 1.84315 16.1569 0.5 14.5 0.5Z" fill="#555555"/>
</svg>
