<svg width="61" height="43" viewBox="0 0 61 43" fill="none" xmlns="http://www.w3.org/2000/svg">
<path d="M9.10938 18.4754C12.4187 18.4754 15.1094 15.7848 15.1094 12.4755C15.1094 9.16614 12.4187 6.47554 9.10938 6.47554C5.8 6.47554 3.10938 9.16614 3.10938 12.4755C3.10938 15.7848 5.8 18.4754 9.10938 18.4754ZM51.1094 18.4754C54.4187 18.4754 57.1094 15.7848 57.1094 12.4755C57.1094 9.16614 54.4187 6.47554 51.1094 6.47554C47.8 6.47554 45.1094 9.16614 45.1094 12.4755C45.1094 15.7848 47.8 18.4754 51.1094 18.4754ZM54.1094 21.4754H48.1094C46.4594 21.4754 44.9687 22.141 43.8812 23.2192C47.6594 25.291 50.3406 29.0316 50.9219 33.4753H57.1094C58.7688 33.4753 60.1094 32.1347 60.1094 30.4753V27.4754C60.1094 24.166 57.4187 21.4754 54.1094 21.4754ZM30.1094 21.4754C35.9125 21.4754 40.6094 16.7786 40.6094 10.9755C40.6094 5.17242 35.9125 0.475586 30.1094 0.475586C24.3062 0.475586 19.6094 5.17242 19.6094 10.9755C19.6094 16.7786 24.3062 21.4754 30.1094 21.4754ZM37.3094 24.4754H36.5312C34.5813 25.4129 32.4156 25.9754 30.1094 25.9754C27.8031 25.9754 25.6469 25.4129 23.6875 24.4754H22.9094C16.9469 24.4754 12.1094 29.3129 12.1094 35.2753V37.9753C12.1094 40.4596 14.125 42.4752 16.6094 42.4752H43.6094C46.0938 42.4752 48.1094 40.4596 48.1094 37.9753V35.2753C48.1094 29.3129 43.2719 24.4754 37.3094 24.4754ZM16.3375 23.2192C15.25 22.141 13.7594 21.4754 12.1094 21.4754H6.10938C2.8 21.4754 0.109375 24.166 0.109375 27.4754V30.4753C0.109375 32.1347 1.45 33.4753 3.10938 33.4753H9.2875C9.87813 29.0316 12.5594 25.291 16.3375 23.2192Z" fill="black"/>
</svg>
