<svg width="176" height="32" viewBox="0 0 176 32" fill="none" xmlns="http://www.w3.org/2000/svg">
<path fill-rule="evenodd" clip-rule="evenodd" d="M0 16C0 7.16344 7.16344 0 16 0C24.8366 0 32 7.16344 32 16C32 24.8366 24.8366 32 16 32C7.16344 32 0 24.8366 0 16ZM8.2 13.3V24H11.6V13.3H8.2ZM8 9.9C8 11 8.8 11.8 9.9 11.8C11 11.8 11.8 11 11.8 9.9C11.8 8.8 11 8 9.9 8C8.9 8 8 8.8 8 9.9ZM20.6 24H23.8V17.4C23.8 14.1 21.8 13 19.9 13C18.2 13 17 14.1 16.7 14.8V13.3H13.5V24H16.9V18.3C16.9 16.8 17.9 16 18.9 16C19.9 16 20.6 16.5 20.6 18.2V24Z" fill="black"/>
<path fill-rule="evenodd" clip-rule="evenodd" d="M48 16C48 7.16344 55.1634 0 64 0C72.8366 0 80 7.16344 80 16C80 24.8366 72.8366 32 64 32C55.1634 32 48 24.8366 48 16ZM70.1 11.5C70.8 11.4 71.4 11.3 72 11C71.6 11.7 71 12.3 70.3 12.7C70.5 17.4 67.1 22.5 61 22.5C59.2 22.5 57.5 21.9 56 21C57.7 21.2 59.5 20.7 60.7 19.8C59.2 19.8 58 18.8 57.6 17.5C58.1 17.6 58.6 17.5 59.1 17.4C57.6 17 56.5 15.6 56.5 14.1C57 14.3 57.5 14.5 58 14.5C56.6 13.5 56.1 11.6 57 10.1C58.7 12.1 61.1 13.4 63.8 13.5C63.3 11.5 64.9 9.5 67 9.5C67.9 9.5 68.8 9.9 69.4 10.5C70.2 10.3 70.9 10.1 71.5 9.7C71.3 10.5 70.8 11.1 70.1 11.5Z" fill="black"/>
<path fill-rule="evenodd" clip-rule="evenodd" d="M96 16C96 7.16344 103.163 0 112 0C120.837 0 128 7.16344 128 16C128 24.8366 120.837 32 112 32C103.163 32 96 24.8366 96 16ZM112 8C116.4 8 120 11.6 120 16C120 20 117.1 23.4 113.1 24V18.3H115L115.4 16H113.2V14.5C113.2 13.9 113.5 13.3 114.5 13.3H115.5V11.3C115.5 11.3 114.6 11.1 113.7 11.1C111.9 11.1 110.7 12.2 110.7 14.2V16H108.7V18.3H110.7V23.9C106.9 23.3 104 20 104 16C104 11.6 107.6 8 112 8Z" fill="black"/>
<path d="M160 18.8C158.5 18.8 157.2 17.6 157.2 16C157.2 14.5 158.4 13.2 160 13.2C161.5 13.2 162.8 14.4 162.8 16C162.8 17.5 161.5 18.8 160 18.8Z" fill="black"/>
<path fill-rule="evenodd" clip-rule="evenodd" d="M163.4 9.2H156.6C155.8 9.3 155.4 9.4 155.1 9.5C154.7 9.6 154.4 9.8 154.1 10.1C153.863 10.3374 153.75 10.5748 153.615 10.8617C153.579 10.9373 153.542 11.0166 153.5 11.1C153.485 11.1464 153.467 11.1952 153.448 11.2475C153.343 11.5333 153.2 11.9238 153.2 12.6V19.4C153.3 20.2 153.4 20.6 153.5 20.9C153.6 21.3 153.8 21.6 154.1 21.9C154.337 22.1374 154.575 22.2495 154.862 22.3851C154.937 22.4209 155.017 22.4583 155.1 22.5C155.146 22.5155 155.195 22.5333 155.248 22.5525C155.533 22.6571 155.924 22.8 156.6 22.8H163.4C164.2 22.7 164.6 22.6 164.9 22.5C165.3 22.4 165.6 22.2 165.9 21.9C166.137 21.6626 166.25 21.4252 166.385 21.1383C166.421 21.0626 166.458 20.9835 166.5 20.9C166.515 20.8536 166.533 20.8048 166.552 20.7525C166.657 20.4667 166.8 20.0762 166.8 19.4V12.6C166.7 11.8 166.6 11.4 166.5 11.1C166.4 10.7 166.2 10.4 165.9 10.1C165.663 9.86261 165.425 9.75045 165.138 9.61488C165.063 9.57918 164.983 9.54167 164.9 9.5C164.854 9.48453 164.805 9.46666 164.752 9.44752C164.467 9.3429 164.076 9.2 163.4 9.2ZM160 11.7C157.6 11.7 155.7 13.6 155.7 16C155.7 18.4 157.6 20.3 160 20.3C162.4 20.3 164.3 18.4 164.3 16C164.3 13.6 162.4 11.7 160 11.7ZM165.4 11.6C165.4 12.1523 164.952 12.6 164.4 12.6C163.848 12.6 163.4 12.1523 163.4 11.6C163.4 11.0477 163.848 10.6 164.4 10.6C164.952 10.6 165.4 11.0477 165.4 11.6Z" fill="black"/>
<path fill-rule="evenodd" clip-rule="evenodd" d="M144 16C144 7.16344 151.163 0 160 0C168.837 0 176 7.16344 176 16C176 24.8366 168.837 32 160 32C151.163 32 144 24.8366 144 16ZM156.6 7.7H163.4C164.3 7.8 164.9 7.9 165.4 8.1C166 8.4 166.4 8.6 166.9 9.1C167.4 9.6 167.7 10.1 167.9 10.6C168.1 11.1 168.3 11.7 168.3 12.6V19.4C168.2 20.3 168.1 20.9 167.9 21.4C167.6 22 167.4 22.4 166.9 22.9C166.4 23.4 165.9 23.7 165.4 23.9C164.9 24.1 164.3 24.3 163.4 24.3H156.6C155.7 24.2 155.1 24.1 154.6 23.9C154 23.6 153.6 23.4 153.1 22.9C152.6 22.4 152.3 21.9 152.1 21.4C151.9 20.9 151.7 20.3 151.7 19.4V12.6C151.8 11.7 151.9 11.1 152.1 10.6C152.4 10 152.6 9.6 153.1 9.1C153.6 8.6 154.1 8.3 154.6 8.1C155.1 7.9 155.7 7.7 156.6 7.7Z" fill="black"/>
</svg>
