<svg width="197" height="32" viewBox="0 0 197 32" fill="none" xmlns="http://www.w3.org/2000/svg">
<rect x="121.757" width="75.2431" height="28.4303" rx="9.62963" fill="#0047FF"/>
<path d="M143.745 18.5604C143.087 18.5604 142.484 18.4478 141.938 18.2224C141.392 17.9971 140.92 17.6764 140.521 17.2604C140.123 16.8358 139.811 16.3374 139.585 15.7654C139.369 15.1848 139.26 14.5521 139.26 13.8674C139.26 13.2088 139.377 12.5978 139.611 12.0344C139.845 11.4711 140.17 10.9771 140.586 10.5524C141.002 10.1278 141.488 9.79842 142.042 9.56442C142.597 9.33042 143.199 9.21342 143.849 9.21342C144.291 9.21342 144.72 9.27842 145.136 9.40842C145.552 9.53842 145.934 9.72042 146.28 9.95442C146.627 10.1798 146.917 10.4441 147.151 10.7474L146.072 11.9304C145.847 11.6964 145.613 11.5014 145.37 11.3454C145.136 11.1808 144.889 11.0594 144.629 10.9814C144.378 10.8948 144.118 10.8514 143.849 10.8514C143.451 10.8514 143.074 10.9251 142.718 11.0724C142.372 11.2198 142.068 11.4278 141.808 11.6964C141.557 11.9651 141.358 12.2858 141.21 12.6584C141.063 13.0224 140.989 13.4298 140.989 13.8804C140.989 14.3398 141.059 14.7558 141.197 15.1284C141.345 15.5011 141.548 15.8218 141.808 16.0904C142.077 16.3591 142.393 16.5671 142.757 16.7144C143.13 16.8531 143.537 16.9224 143.979 16.9224C144.265 16.9224 144.543 16.8834 144.811 16.8054C145.08 16.7274 145.327 16.6191 145.552 16.4804C145.786 16.3331 145.999 16.1641 146.189 15.9734L147.021 17.3124C146.813 17.5464 146.536 17.7588 146.189 17.9494C145.843 18.1401 145.453 18.2918 145.019 18.4044C144.595 18.5084 144.17 18.5604 143.745 18.5604ZM154.322 18.5604C153.672 18.5604 153.07 18.4434 152.515 18.2094C151.961 17.9754 151.475 17.6504 151.059 17.2344C150.652 16.8098 150.336 16.3114 150.11 15.7394C149.885 15.1674 149.772 14.5434 149.772 13.8674C149.772 13.1914 149.885 12.5674 150.11 11.9954C150.336 11.4234 150.652 10.9294 151.059 10.5134C151.475 10.0888 151.961 9.75942 152.515 9.52542C153.07 9.29142 153.672 9.17442 154.322 9.17442C154.981 9.17442 155.588 9.29142 156.142 9.52542C156.697 9.75942 157.178 10.0888 157.585 10.5134C157.993 10.9381 158.309 11.4364 158.534 12.0084C158.76 12.5718 158.872 13.1914 158.872 13.8674C158.872 14.5348 158.76 15.1544 158.534 15.7264C158.309 16.2984 157.993 16.7968 157.585 17.2214C157.178 17.6461 156.697 17.9754 156.142 18.2094C155.588 18.4434 154.981 18.5604 154.322 18.5604ZM154.322 16.9484C154.738 16.9484 155.115 16.8748 155.453 16.7274C155.8 16.5714 156.099 16.3548 156.35 16.0774C156.602 15.7914 156.797 15.4621 156.935 15.0894C157.083 14.7168 157.156 14.3094 157.156 13.8674C157.156 13.4254 157.083 13.0181 156.935 12.6454C156.797 12.2728 156.602 11.9478 156.35 11.6704C156.099 11.3844 155.8 11.1678 155.453 11.0204C155.115 10.8644 154.738 10.7864 154.322 10.7864C153.915 10.7864 153.538 10.8644 153.191 11.0204C152.845 11.1678 152.546 11.3801 152.294 11.6574C152.043 11.9348 151.848 12.2598 151.709 12.6324C151.571 13.0051 151.501 13.4168 151.501 13.8674C151.501 14.3094 151.571 14.7211 151.709 15.1024C151.848 15.4751 152.043 15.8001 152.294 16.0774C152.546 16.3548 152.845 16.5714 153.191 16.7274C153.538 16.8748 153.915 16.9484 154.322 16.9484ZM162.33 18.4304V9.33042H166.282C166.828 9.33042 167.326 9.46042 167.777 9.72042C168.227 9.97175 168.583 10.3184 168.843 10.7604C169.111 11.1938 169.246 11.6834 169.246 12.2294C169.246 12.7494 169.111 13.2304 168.843 13.6724C168.583 14.1058 168.227 14.4524 167.777 14.7124C167.335 14.9638 166.836 15.0894 166.282 15.0894H163.981V18.4304H162.33ZM167.608 18.4304L165.294 14.3224L167.036 13.9974L169.61 18.4434L167.608 18.4304ZM163.981 13.6204H166.295C166.546 13.6204 166.763 13.5641 166.945 13.4514C167.135 13.3301 167.283 13.1654 167.387 12.9574C167.491 12.7494 167.543 12.5198 167.543 12.2684C167.543 11.9824 167.478 11.7354 167.348 11.5274C167.218 11.3194 167.036 11.1548 166.802 11.0334C166.568 10.9121 166.299 10.8514 165.996 10.8514H163.981V13.6204ZM173.019 18.4304V9.33042H176.802C177.322 9.33042 177.79 9.45609 178.206 9.70742C178.631 9.95875 178.969 10.3011 179.22 10.7344C179.472 11.1678 179.597 11.6531 179.597 12.1904C179.597 12.7364 179.472 13.2304 179.22 13.6724C178.969 14.1058 178.631 14.4524 178.206 14.7124C177.79 14.9724 177.322 15.1024 176.802 15.1024H174.709V18.4304H173.019ZM174.709 13.5424H176.685C176.902 13.5424 177.097 13.4818 177.27 13.3604C177.452 13.2391 177.595 13.0788 177.699 12.8794C177.812 12.6801 177.868 12.4548 177.868 12.2034C177.868 11.9521 177.812 11.7311 177.699 11.5404C177.595 11.3411 177.452 11.1851 177.27 11.0724C177.097 10.9511 176.902 10.8904 176.685 10.8904H174.709V13.5424Z" fill="white"/>
<path d="M7.31675 25.4304C6.24257 25.4304 5.25644 25.285 4.35835 24.9941C3.46027 24.6839 2.65023 24.2282 1.92824 23.6271C1.20625 23.026 0.563504 22.2988 0 21.4457L2.24521 18.6534C3.10808 19.972 3.95333 20.8833 4.78098 21.3875C5.60863 21.8916 6.54193 22.1437 7.58089 22.1437C8.17961 22.1437 8.72551 22.0468 9.21857 21.8529C9.71164 21.6396 10.099 21.3584 10.3808 21.0094C10.6626 20.6409 10.8034 20.224 10.8034 19.7587C10.8034 19.429 10.7418 19.1285 10.6185 18.857C10.5129 18.5662 10.3456 18.3141 10.1167 18.1008C9.88774 17.8681 9.60598 17.6548 9.2714 17.4609C8.93682 17.267 8.55822 17.1022 8.13559 16.9664C7.71296 16.8307 7.24631 16.7047 6.73563 16.5883C5.76711 16.375 4.92186 16.0939 4.19987 15.7448C3.47788 15.3764 2.87035 14.9304 2.37728 14.4069C1.88422 13.8639 1.52322 13.2628 1.2943 12.6035C1.06537 11.9249 0.950913 11.159 0.950913 10.3058C0.950913 9.45258 1.1182 8.66726 1.45278 7.94981C1.80497 7.23236 2.28043 6.61186 2.87915 6.08831C3.47788 5.56477 4.17345 5.15757 4.96588 4.86671C5.75831 4.57585 6.61237 4.43042 7.52806 4.43042C8.56702 4.43042 9.49152 4.56615 10.3016 4.83762C11.1292 5.10909 11.8512 5.51629 12.4675 6.05923C13.1015 6.58277 13.621 7.22266 14.026 7.9789L11.7543 10.4512C11.4022 9.85009 11.0059 9.35563 10.5657 8.96781C10.1255 8.56061 9.65001 8.26006 9.13933 8.06615C8.62866 7.85286 8.09157 7.74621 7.52806 7.74621C6.89412 7.74621 6.33942 7.84316 5.86396 8.03707C5.40612 8.23097 5.04512 8.51214 4.78098 8.88056C4.51684 9.22959 4.38477 9.65618 4.38477 10.1603C4.38477 10.5481 4.46401 10.8972 4.62249 11.2074C4.78098 11.4983 5.0011 11.7601 5.28285 11.9927C5.58221 12.2254 5.96082 12.429 6.41866 12.6035C6.87651 12.7781 7.39599 12.9332 7.9771 13.0689C8.94563 13.2822 9.8173 13.5731 10.5921 13.9415C11.3669 14.2905 12.0273 14.7171 12.5732 15.2213C13.1191 15.706 13.5329 16.2684 13.8147 16.9083C14.0964 17.5288 14.2373 18.2268 14.2373 19.0024C14.2373 20.3404 13.9467 21.4941 13.3656 22.4637C12.8021 23.4138 12.0009 24.1506 10.9619 24.6742C9.92296 25.1783 8.7079 25.4304 7.31675 25.4304Z" fill="white"/>
<path d="M25.0131 25.1396V8.26975H19.7302V4.77945H33.8882V8.26975H28.4469V25.1396H25.0131Z" fill="white"/>
<path d="M37.1824 25.1396L44.3935 4.77945H47.616L54.7743 25.1396H51.2084L47.2462 13.5634C47.1582 13.3307 47.0349 12.9623 46.8764 12.4581C46.7355 11.954 46.5771 11.411 46.401 10.8293C46.2249 10.2282 46.0664 9.67557 45.9255 9.17142C45.7846 8.64787 45.679 8.26976 45.6085 8.03707L46.2689 8.00798C46.1632 8.39579 46.04 8.83208 45.8991 9.31685C45.7582 9.80161 45.6085 10.3058 45.4501 10.8293C45.2916 11.3529 45.1331 11.857 44.9746 12.3418C44.8337 12.8265 44.7017 13.2628 44.5784 13.6506L40.6162 25.1396H37.1824ZM49.7638 20.9191L48.5536 17.3832L50.0726 17.1991L51.3404 20.4858L49.7638 20.9191Z" fill="white"/>
<path d="M68.3172 25.4304C66.9789 25.4304 65.755 25.1783 64.6456 24.6742C63.5362 24.17 62.5765 23.4526 61.7664 22.5218C60.9564 21.5717 60.3225 20.4567 59.8646 19.177C59.4244 17.8778 59.2043 16.4623 59.2043 14.9304C59.2043 13.4567 59.442 12.0897 59.9174 10.8293C60.3929 9.56892 61.0533 8.46366 61.8985 7.51352C62.7438 6.56338 63.7299 5.82654 64.8569 5.303C65.9839 4.77945 67.2078 4.51768 68.5285 4.51768C69.4266 4.51768 70.2982 4.66311 71.1435 4.95397C71.9888 5.24482 72.7636 5.65203 73.4679 6.17557C74.1723 6.67973 74.7623 7.27114 75.2377 7.94981L73.0453 10.5966C72.5875 10.0731 72.112 9.63679 71.6189 9.28776C71.1435 8.91934 70.6416 8.64787 70.1133 8.47336C69.6027 8.27945 69.0744 8.1825 68.5285 8.1825C67.7184 8.1825 66.9524 8.34732 66.2304 8.67696C65.5261 9.0066 64.9097 9.47197 64.3814 10.0731C63.8708 10.6742 63.4657 11.3916 63.1664 12.2254C62.867 13.0398 62.7173 13.9512 62.7173 14.9595C62.7173 15.9872 62.8582 16.918 63.14 17.7517C63.4393 18.5855 63.8532 19.303 64.3814 19.9041C64.9273 20.5052 65.5701 20.9706 66.3097 21.3002C67.0669 21.6105 67.8945 21.7656 68.7926 21.7656C69.3737 21.7656 69.9372 21.6783 70.4831 21.5038C71.029 21.3293 71.5309 21.0869 71.9888 20.7767C72.4642 20.447 72.8956 20.0689 73.2831 19.6423L74.9736 22.6382C74.5509 23.1617 73.9874 23.6368 73.2831 24.0634C72.5787 24.49 71.7862 24.8293 70.9058 25.0814C70.0429 25.3141 69.18 25.4304 68.3172 25.4304Z" fill="white"/>
<path d="M84.3135 25.0814V21.7947C84.3135 21.7947 84.3135 13.4629 84.3135 8.12433V4.77945H87.7473V8.12433V21.7947V25.0814H84.3135Z" fill="white"/>
<path d="M96.4081 25.1396L103.619 4.77945H106.842L114 25.1396H110.434L106.472 13.5634C106.384 13.3307 106.261 12.9623 106.102 12.4581C105.961 11.954 105.803 11.411 105.627 10.8293C105.451 10.2282 105.292 9.67557 105.151 9.17142C105.01 8.64787 104.905 8.26976 104.834 8.03707L105.495 8.00798C105.389 8.39579 105.266 8.83208 105.125 9.31685C104.984 9.80161 104.834 10.3058 104.676 10.8293C104.517 11.3529 104.359 11.857 104.2 12.3418C104.059 12.8265 103.927 13.2628 103.804 13.6506L99.842 25.1396H96.4081ZM108.775 20.2918L107.767 17.3832L109.298 17.1991L110.566 20.4858L108.775 20.2918Z" fill="white"/>
</svg>
