<svg width="25" height="25" viewBox="0 0 25 25" fill="none" xmlns="http://www.w3.org/2000/svg">
<path fill-rule="evenodd" clip-rule="evenodd" d="M24.2168 9.92848C24.2168 9.31922 23.736 8.82532 23.1429 8.82532H13.478C12.8849 8.82532 12.4041 9.31922 12.4041 9.92848V23.1664C12.4041 23.7757 12.8849 24.2696 13.478 24.2696H23.1429C23.736 24.2696 24.2168 23.7757 24.2168 23.1664V9.92848ZM22.069 11.0316V22.0633H14.5519V11.0316H22.069Z" fill="black"/>
<path fill-rule="evenodd" clip-rule="evenodd" d="M14.5527 1.10316C14.5527 0.493902 14.0719 0 13.4789 0H1.66619C1.0731 0 0.592312 0.493902 0.592312 1.10316V23.1664C0.592312 23.7757 1.0731 24.2696 1.66619 24.2696H13.4789C14.0719 24.2696 14.5527 23.7757 14.5527 23.1664V1.10316ZM12.405 2.20632V22.0632H2.74007V2.20632H12.405Z" fill="black"/>
<path fill-rule="evenodd" clip-rule="evenodd" d="M10.793 7.17061V5.51587H8.64521V7.17061H10.793Z" fill="black"/>
<path fill-rule="evenodd" clip-rule="evenodd" d="M10.793 12.1348V10.4801H8.64521V12.1348H10.793Z" fill="black"/>
<path fill-rule="evenodd" clip-rule="evenodd" d="M10.793 17.0992V15.4445H8.64521V17.0992H10.793Z" fill="black"/>
<path fill-rule="evenodd" clip-rule="evenodd" d="M6.49805 7.17061V5.51587H4.35029V7.17061H6.49805Z" fill="black"/>
<path fill-rule="evenodd" clip-rule="evenodd" d="M6.49805 12.1348V10.4801H4.35029V12.1348H6.49805Z" fill="black"/>
<path fill-rule="evenodd" clip-rule="evenodd" d="M6.49805 17.0992V15.4445H4.35029V17.0992H6.49805Z" fill="black"/>
<path fill-rule="evenodd" clip-rule="evenodd" d="M20.9961 15.4443V13.7896H18.8483V15.4443H20.9961Z" fill="black"/>
<path fill-rule="evenodd" clip-rule="evenodd" d="M20.9961 19.857V18.2023H18.8483V19.857H20.9961Z" fill="black"/>
<path fill-rule="evenodd" clip-rule="evenodd" d="M17.7734 15.4443V13.7896H15.6257V15.4443H17.7734Z" fill="black"/>
<path fill-rule="evenodd" clip-rule="evenodd" d="M17.7734 19.857V18.2023H15.6257V19.857H17.7734Z" fill="black"/>
</svg>
