<svg width="23" height="26" viewBox="0 0 23 26" fill="none" xmlns="http://www.w3.org/2000/svg">
<path fill-rule="evenodd" clip-rule="evenodd" d="M22.666 10.8371C22.666 10.2246 22.2197 9.72803 21.6691 9.72803H12.6969C12.1463 9.72803 11.7 10.2246 11.7 10.8371V24.1462C11.7 24.7587 12.1463 25.2553 12.6969 25.2553H21.6691C22.2197 25.2553 22.666 24.7587 22.666 24.1462V10.8371ZM20.6722 11.9462V23.0371H13.6938V11.9462H20.6722Z" fill="white"/>
<path fill-rule="evenodd" clip-rule="evenodd" d="M13.6934 1.96431C13.6934 1.35178 13.247 0.855225 12.6964 0.855225H1.7304C1.17982 0.855225 0.733482 1.35178 0.733482 1.96431V24.1461C0.733482 24.7586 1.17982 25.2552 1.7304 25.2552H12.6964C13.247 25.2552 13.6934 24.7586 13.6934 24.1461V1.96431ZM11.6995 3.0734V23.037H2.72731V3.0734H11.6995Z" fill="white"/>
<path fill-rule="evenodd" clip-rule="evenodd" d="M10.2051 8.06439V6.40076H8.21125V8.06439H10.2051Z" fill="white"/>
<path fill-rule="evenodd" clip-rule="evenodd" d="M10.2051 13.0552V11.3916H8.21125V13.0552H10.2051Z" fill="white"/>
<path fill-rule="evenodd" clip-rule="evenodd" d="M10.2051 18.0462V16.3826H8.21125V18.0462H10.2051Z" fill="white"/>
<path fill-rule="evenodd" clip-rule="evenodd" d="M6.2168 8.06439V6.40076H4.22297V8.06439H6.2168Z" fill="white"/>
<path fill-rule="evenodd" clip-rule="evenodd" d="M6.2168 13.0552V11.3916H4.22297V13.0552H6.2168Z" fill="white"/>
<path fill-rule="evenodd" clip-rule="evenodd" d="M6.2168 18.0462V16.3826H4.22297V18.0462H6.2168Z" fill="white"/>
<path fill-rule="evenodd" clip-rule="evenodd" d="M19.6758 16.3824V14.7188H17.682V16.3824H19.6758Z" fill="white"/>
<path fill-rule="evenodd" clip-rule="evenodd" d="M19.6758 20.8189V19.1553H17.682V20.8189H19.6758Z" fill="white"/>
<path fill-rule="evenodd" clip-rule="evenodd" d="M16.6836 16.3824V14.7188H14.6898V16.3824H16.6836Z" fill="white"/>
<path fill-rule="evenodd" clip-rule="evenodd" d="M16.6836 20.8189V19.1553H14.6898V20.8189H16.6836Z" fill="white"/>
</svg>
