<svg width="17" height="16" viewBox="0 0 17 16" fill="none" xmlns="http://www.w3.org/2000/svg">
<path d="M1 8C0.734784 8 0.48043 8.08429 0.292893 8.23431C0.105357 8.38434 0 8.58783 0 8.8V15.2C0 15.4122 0.105357 15.6157 0.292893 15.7657C0.48043 15.9157 0.734784 16 1 16C1.26522 16 1.51957 15.9157 1.70711 15.7657C1.89464 15.6157 2 15.4122 2 15.2V8.8C2 8.58783 1.89464 8.38434 1.70711 8.23431C1.51957 8.08429 1.26522 8 1 8ZM6 0C5.73478 0 5.48043 0.0842854 5.29289 0.234315C5.10536 0.384344 5 0.587827 5 0.8V15.2C5 15.4122 5.10536 15.6157 5.29289 15.7657C5.48043 15.9157 5.73478 16 6 16C6.26522 16 6.51957 15.9157 6.70711 15.7657C6.89464 15.6157 7 15.4122 7 15.2V0.8C7 0.587827 6.89464 0.384344 6.70711 0.234315C6.51957 0.0842854 6.26522 0 6 0ZM16 11.2C15.7348 11.2 15.4804 11.2843 15.2929 11.4343C15.1054 11.5843 15 11.7878 15 12V15.2C15 15.4122 15.1054 15.6157 15.2929 15.7657C15.4804 15.9157 15.7348 16 16 16C16.2652 16 16.5196 15.9157 16.7071 15.7657C16.8946 15.6157 17 15.4122 17 15.2V12C17 11.7878 16.8946 11.5843 16.7071 11.4343C16.5196 11.2843 16.2652 11.2 16 11.2ZM11 4.8C10.7348 4.8 10.4804 4.88429 10.2929 5.03431C10.1054 5.18434 10 5.38783 10 5.6V15.2C10 15.4122 10.1054 15.6157 10.2929 15.7657C10.4804 15.9157 10.7348 16 11 16C11.2652 16 11.5196 15.9157 11.7071 15.7657C11.8946 15.6157 12 15.4122 12 15.2V5.6C12 5.38783 11.8946 5.18434 11.7071 5.03431C11.5196 4.88429 11.2652 4.8 11 4.8Z" fill="#555555"/>
</svg>
