<svg width="24" height="24" viewBox="0 0 24 24" fill="none" xmlns="http://www.w3.org/2000/svg">
<path d="M8.68379 20.0242L19.5603 9.14768C20.4538 8.25419 20.4538 6.80555 19.5603 5.91206C18.6668 5.01857 17.2182 5.01857 16.3247 5.91206L5.44817 16.7886C4.55468 17.6821 4.55468 19.1307 5.44817 20.0242C6.34166 20.9177 7.7903 20.9177 8.68379 20.0242Z" stroke="#FEFEFE" stroke-width="1.7" stroke-linecap="round"/>
<path d="M16.6483 5.5885L14.7669 3.70711C14.3764 3.31658 13.7432 3.31658 13.3527 3.70711L10.8842 6.17564C10.4937 6.56616 10.4937 7.19933 10.8842 7.58985L12.7656 9.47124" stroke="#FEFEFE" stroke-width="1.7" stroke-linecap="round"/>
<circle cx="3.5" cy="5.5" r="1.5" fill="#FEFEFE"/>
<circle cx="5.5" cy="9.5" r="1.5" fill="#FEFEFE"/>
<circle cx="7.5" cy="3.5" r="1.5" fill="#FEFEFE"/>
</svg>
