<svg width="41" height="46" viewBox="0 0 41 46" fill="none" xmlns="http://www.w3.org/2000/svg">
<path d="M28.6808 40.1232V43.6946C28.6808 44.8781 27.7214 45.8375 26.5379 45.8375H2.25223C1.06875 45.8375 0.109375 44.8781 0.109375 43.6946V10.8377C0.109375 9.65427 1.06875 8.6949 2.25223 8.6949H8.6808V35.1233C8.6808 37.8803 10.9238 40.1232 13.6808 40.1232H28.6808ZM28.6808 9.40918V0.123535H13.6808C12.4973 0.123535 11.5379 1.0829 11.5379 2.26638V35.1233C11.5379 36.3067 12.4973 37.2661 13.6808 37.2661H37.9665C39.15 37.2661 40.1094 36.3067 40.1094 35.1233V11.552H30.8237C29.6451 11.552 28.6808 10.5877 28.6808 9.40918ZM39.4818 6.63875L33.5941 0.75112C33.1922 0.349286 32.6472 0.123538 32.0789 0.123535L31.5379 0.123535V8.6949H40.1094V8.15392C40.1094 7.58563 39.8836 7.04061 39.4818 6.63875Z" fill="black"/>
</svg>
