<svg width="19" height="34" viewBox="0 0 19 34" fill="none" xmlns="http://www.w3.org/2000/svg">
<path d="M9.22514 4.93359C9.21384 4.93585 9.20293 4.93736 9.19238 4.93962C9.19878 4.93849 9.20518 4.93736 9.21121 4.93585C9.2161 4.9351 9.22024 4.93435 9.22514 4.93359Z" fill="#FA4E19"/>
<path d="M8.66619 5.04297C8.66242 5.0441 8.65904 5.04448 8.65527 5.0456C8.63946 5.04975 8.62327 5.05426 8.60783 5.05803C8.59804 5.05954 8.589 5.06179 8.57959 5.06443C8.58938 5.06179 8.59917 5.05916 8.60858 5.05615C8.6244 5.05201 8.63946 5.04862 8.65489 5.04485C8.65904 5.0441 8.66242 5.04372 8.66619 5.04297Z" fill="#FA4E19"/>
<path d="M8.76603 5.02344C8.7521 5.02683 8.7378 5.02984 8.72386 5.03323C8.71407 5.03473 8.70504 5.03699 8.69563 5.03925C8.68847 5.04076 8.68207 5.04189 8.67529 5.04339C8.68508 5.04076 8.69487 5.0385 8.70428 5.03624C8.71897 5.03285 8.73328 5.02984 8.74796 5.0272C8.75399 5.0257 8.76001 5.02457 8.76603 5.02344Z" fill="#FA4E19"/>
<path d="M9.22514 4.93359C9.21384 4.93585 9.20293 4.93736 9.19238 4.93962C9.19878 4.93849 9.20518 4.93736 9.21121 4.93585C9.2161 4.9351 9.22024 4.93435 9.22514 4.93359Z" fill="#FA4E19"/>
<path d="M8.18133 5.17578C8.18092 5.17578 8.1797 5.17619 8.17888 5.177C8.17603 5.17741 8.17318 5.17822 8.16992 5.17863C8.17359 5.17741 8.17766 5.1766 8.18133 5.17578Z" fill="#FA4E19"/>
<path d="M8.16131 5.17969C8.1598 5.18007 8.15791 5.18082 8.15602 5.1812L8.15564 5.18158C8.14921 5.18309 8.14315 5.18536 8.13672 5.18688C8.14315 5.18423 8.14958 5.18271 8.15677 5.18044C8.15791 5.18007 8.15942 5.18007 8.16131 5.17969Z" fill="#FA4E19"/>
<path d="M8.65527 5.04688C8.63946 5.05102 8.62327 5.05553 8.60783 5.0593C8.59804 5.06081 8.589 5.06307 8.57959 5.0657C8.60519 5.05892 8.63004 5.0529 8.65527 5.04688Z" fill="#FA4E19"/>
<path d="M8.74607 5.02344C8.73779 5.0257 8.72988 5.0272 8.7216 5.02946C8.71181 5.03097 8.70277 5.03323 8.69336 5.03549C8.71106 5.03097 8.72875 5.0272 8.74607 5.02344Z" fill="#FA4E19"/>
<path d="M9.22514 4.93359C9.21384 4.93585 9.20293 4.93736 9.19238 4.93962C9.19878 4.93849 9.20518 4.93736 9.21121 4.93585C9.2161 4.9351 9.22024 4.93435 9.22514 4.93359Z" fill="#FA4E19"/>
<path d="M8.65527 5.04688C8.63946 5.05102 8.62327 5.05553 8.60783 5.0593C8.59804 5.06081 8.589 5.06307 8.57959 5.0657C8.60519 5.05892 8.63004 5.0529 8.65527 5.04688Z" fill="#FA4E19"/>
<path d="M8.76377 5.02344C8.74984 5.02683 8.73553 5.02984 8.7216 5.03323C8.71181 5.03473 8.70277 5.03699 8.69336 5.03925C8.71068 5.03511 8.72837 5.03097 8.74569 5.0272C8.75172 5.0257 8.75774 5.02457 8.76377 5.02344Z" fill="#FA4E19"/>
<path d="M2.30322 4.82069V12.8738C2.34385 11.4037 2.76705 10.0299 3.47877 8.84801C4.55726 7.05253 6.29556 5.69905 8.35887 5.12313C8.3916 5.1141 8.4247 5.1047 8.45743 5.09605C8.46157 5.09492 8.46646 5.09379 8.47135 5.09229C8.49016 5.0874 8.50897 5.08251 8.52853 5.07762C8.53266 5.07649 8.53718 5.07536 8.54132 5.07423C8.5447 5.0731 8.54771 5.07272 8.5511 5.0716C8.55222 5.07122 8.55335 5.07122 8.55448 5.07047C8.55486 5.07047 8.55486 5.07047 8.55561 5.07047C8.55674 5.07047 8.55824 5.07009 8.55937 5.07009C8.5605 5.06972 8.56201 5.06971 8.56313 5.06971C8.56426 5.06934 8.56539 5.06934 8.56652 5.06859C8.57141 5.06746 8.57555 5.06595 8.58044 5.0652C8.59022 5.06257 8.6 5.05993 8.6094 5.05693C8.6252 5.05279 8.64025 5.0494 8.65567 5.04564C8.65943 5.04451 8.66282 5.04414 8.66658 5.04338C8.66809 5.04301 8.66922 5.04301 8.67072 5.04225C8.67222 5.04188 8.6741 5.04188 8.67561 5.04113C8.68539 5.03849 8.69517 5.03624 8.70458 5.03398C8.71925 5.03059 8.73354 5.02758 8.74821 5.02495C8.75423 5.02345 8.76025 5.02232 8.76589 5.02119C8.76702 5.02119 8.76815 5.02081 8.76928 5.02081C8.77266 5.01968 8.77567 5.01931 8.77943 5.01856C8.78169 5.01818 8.7832 5.01743 8.78545 5.01705C8.79335 5.01442 8.80163 5.01329 8.81028 5.01103C8.81367 5.0099 8.81856 5.0099 8.82232 5.0084C8.82608 5.00727 8.82834 5.00727 8.8321 5.00727C8.83435 5.00689 8.83624 5.00577 8.83925 5.00501C8.84037 5.00464 8.84188 5.00388 8.84338 5.00388C8.84752 5.00351 8.85204 5.00238 8.8558 5.00125C8.85805 5.00012 8.86182 5.00012 8.86483 4.999C8.87348 4.99787 8.88138 4.99523 8.89003 4.9941C8.89718 4.99298 8.90282 4.99185 8.90997 4.99034C8.90997 4.99034 8.90997 4.99034 8.91109 4.99034C8.91373 4.98921 8.91599 4.98921 8.91862 4.98921C8.9995 4.97266 9.0815 4.95837 9.16501 4.94294C9.17329 4.94182 9.18119 4.94031 9.18984 4.93881C9.19623 4.93768 9.20263 4.93655 9.20865 4.93505C9.21354 4.93467 9.21768 4.93354 9.22257 4.93279C9.23724 4.93053 9.25228 4.9279 9.26695 4.92451C9.27109 4.92414 9.27598 4.92338 9.2805 4.92226L9.30533 4.91887C9.31623 4.91737 9.32639 4.91511 9.33655 4.91398C9.34181 4.91285 9.3467 4.91172 9.35159 4.91135C9.3689 4.90871 9.3862 4.90608 9.40275 4.90382C9.43511 4.89893 9.46783 4.89404 9.50018 4.89028C9.58219 4.87937 9.6657 4.86997 9.74883 4.86169C9.8015 4.85642 9.85416 4.85191 9.90683 4.84777C9.95949 4.84363 10.0125 4.8395 10.0659 4.83649C10.1092 4.83385 10.1521 4.8316 10.1961 4.82934C10.2247 4.82784 10.2537 4.82671 10.2822 4.82558C10.3123 4.82445 10.3428 4.82332 10.3729 4.82294C10.4011 4.82257 10.429 4.82182 10.4572 4.82144C10.5008 4.82106 10.5452 4.82031 10.5888 4.82031H2.30322V4.82069ZM6.52653 5.86307C6.46935 5.89429 6.41368 5.92626 6.35763 5.95861C6.41405 5.92401 6.46973 5.89166 6.52653 5.86307C6.5728 5.83711 6.62095 5.81078 6.66835 5.78708C6.62095 5.81191 6.57317 5.83711 6.52653 5.86307ZM8.15799 5.18031L8.15762 5.18069C8.15122 5.18219 8.1452 5.18445 8.13881 5.18595C8.1452 5.18332 8.1516 5.18182 8.15875 5.17956C8.16025 5.17918 8.16213 5.17918 8.16364 5.17843C8.16176 5.17918 8.16025 5.17993 8.15799 5.18031ZM8.18132 5.17392C8.17868 5.17429 8.17605 5.17504 8.17304 5.17542C8.17643 5.17429 8.18019 5.17316 8.1832 5.17279C8.18282 5.17279 8.18169 5.17354 8.18132 5.17392Z" fill="#FA4E19"/>
<path d="M9.22514 4.93359C9.21384 4.93585 9.20293 4.93736 9.19238 4.93962C9.19878 4.93849 9.20518 4.93736 9.21121 4.93585C9.2161 4.9351 9.22024 4.93435 9.22514 4.93359Z" fill="#FA4E19"/>
<path d="M10.585 4.82031L10.5899 12.8734C13.6094 12.8734 16.2509 11.2593 17.7003 8.84763C18.412 7.66532 18.8356 6.29078 18.8777 4.82069H10.585V4.82031Z" fill="#C68DFC"/>
<path d="M10.4579 4.82144C10.4297 4.82182 10.4019 4.82257 10.3737 4.82295C10.3436 4.82332 10.3131 4.82445 10.283 4.82558C10.2544 4.82671 10.2254 4.82784 10.1969 4.82934C10.1532 4.8316 10.11 4.83348 10.0667 4.83649C10.0133 4.83987 9.96062 4.84364 9.90758 4.84777C9.85454 4.85191 9.80225 4.85643 9.74959 4.86169C9.66645 4.86959 9.58294 4.87937 9.50094 4.89028C9.46858 4.89404 9.43586 4.89893 9.40351 4.90382C9.38695 4.90608 9.36965 4.90871 9.35235 4.91135C9.34746 4.91172 9.34257 4.91285 9.3373 4.91398C9.32714 4.91511 9.31699 4.91737 9.30608 4.91887L9.28125 4.92226C9.27711 4.92339 9.27222 4.92376 9.26771 4.92451C9.25304 4.9279 9.23799 4.93053 9.22332 4.93279C9.21843 4.93317 9.21429 4.93429 9.2094 4.93505C9.20338 4.93655 9.19699 4.93768 9.19059 4.93881C9.18194 4.94031 9.17404 4.94219 9.16576 4.94295C9.08225 4.95874 9.00025 4.97266 8.91937 4.98922C8.91674 4.98922 8.91448 4.98922 8.91185 4.99034C8.91072 4.99034 8.91072 4.99034 8.91072 4.99034C8.90357 4.99185 8.89793 4.99298 8.89078 4.9941C8.88213 4.99523 8.87423 4.99787 8.86558 4.999C8.86219 5.00012 8.85843 5.00012 8.85655 5.00125C8.85279 5.00238 8.84827 5.00351 8.84414 5.00389C8.84263 5.00389 8.84075 5.00426 8.84 5.00501C8.83736 5.00539 8.83511 5.00652 8.83285 5.00727C8.82909 5.00727 8.82683 5.00727 8.82307 5.0084C8.81931 5.0099 8.81442 5.0099 8.81103 5.01103C8.80238 5.01329 8.79448 5.01442 8.7862 5.01705C8.78395 5.01743 8.78244 5.01818 8.78019 5.01856C8.77642 5.01893 8.77304 5.01969 8.77003 5.02081C8.7689 5.02081 8.76777 5.02119 8.76664 5.02119C8.75273 5.02457 8.73843 5.02758 8.72451 5.03097C8.71473 5.03247 8.7057 5.03473 8.6963 5.03699C8.68915 5.03849 8.68276 5.03962 8.67599 5.04113C8.67448 5.0415 8.6726 5.0415 8.6711 5.04225C8.66959 5.04263 8.66846 5.04263 8.66696 5.04338C8.6632 5.04451 8.65981 5.04489 8.65605 5.04602C8.64025 5.05015 8.62407 5.05467 8.60865 5.05843C8.59887 5.05994 8.58984 5.06219 8.58044 5.06483C8.57555 5.0652 8.57141 5.06708 8.56652 5.06821C8.56539 5.06859 8.56426 5.06859 8.56313 5.06934C8.56201 5.06934 8.5605 5.06934 8.55937 5.06972C8.55824 5.06972 8.55674 5.07009 8.55561 5.07009C8.55523 5.07009 8.55523 5.07009 8.55448 5.07009C8.55335 5.07047 8.55222 5.07047 8.5511 5.07122C8.54771 5.07235 8.5447 5.07273 8.54132 5.07385C8.53718 5.07498 8.53266 5.07611 8.52853 5.07724C8.50896 5.08213 8.49016 5.08702 8.47135 5.09191C8.46646 5.09341 8.46157 5.09454 8.45743 5.09567C8.4247 5.10432 8.3916 5.11335 8.35887 5.12276C6.29556 5.69868 4.55726 7.05253 3.47877 8.84763C2.76705 10.0299 2.34347 11.4034 2.30322 12.8734H10.59V4.82031C10.5459 4.82031 10.5016 4.82069 10.4579 4.82144ZM9.19548 4.93843C9.20188 4.9373 9.20827 4.93617 9.21429 4.93467C9.21918 4.93429 9.22332 4.93317 9.22821 4.93241C9.21692 4.93467 9.20601 4.93617 9.19548 4.93843Z" fill="#9539E5"/>
<path d="M9.22514 4.93359C9.21384 4.93585 9.20293 4.93736 9.19238 4.93962C9.19878 4.93849 9.20518 4.93736 9.21121 4.93585C9.2161 4.9351 9.22024 4.93435 9.22514 4.93359Z" fill="#F0A8C0"/>
<path d="M18.8821 21.2639C18.8821 21.3102 18.8821 21.3579 18.8809 21.4042H15.2467C15.2479 21.3579 15.249 21.3102 15.249 21.2639C15.249 20.8531 15.1956 20.4544 15.0955 20.0748C14.5704 18.0785 12.7527 16.6057 10.5908 16.6057V12.9727C13.6894 12.9727 16.3907 14.6715 17.8119 17.1892C18.4942 18.3914 18.8821 19.7818 18.8821 21.2639Z" fill="#1C39BB"/>
<path d="M18.8809 21.4062C18.8061 25.9215 15.1241 29.5572 10.5908 29.5572V21.4062H18.8809Z" fill="#FF630D"/>
<path d="M15.249 21.2636C15.249 21.3099 15.2479 21.3577 15.2467 21.4039H10.5908V16.6055C12.7527 16.6055 14.5704 18.0782 15.0955 20.0745C15.1956 20.4541 15.249 20.8529 15.249 21.2636Z" fill="#C68DFC"/>
<path d="M15.249 21.5466C15.249 21.5003 15.2479 21.4525 15.2467 21.4062H10.5908V26.2047C12.7527 26.2047 14.5704 24.732 15.0955 22.7356C15.1956 22.3561 15.249 21.9573 15.249 21.5466Z" fill="#F22E00"/>
<path d="M10.588 12.875V21.2652C10.588 20.3424 9.97109 19.5641 9.12808 19.3189C8.94865 19.2654 8.75718 19.2369 8.55893 19.2369H2.29639V12.9736C2.29639 12.9401 2.29752 12.9085 2.29752 12.875H10.588Z" fill="#FF630D"/>
<path d="M10.5847 29.5535H2.29346V23.4809C2.29346 23.4501 2.29346 23.4188 2.29459 23.388C2.29459 23.3545 2.29572 23.3214 2.29797 23.2891H8.63688C8.61205 23.2902 8.58798 23.2902 8.56315 23.2902H2.3006C3.2053 26.8868 6.70748 29.5497 10.5847 29.5535Z" fill="#C68DFC"/>
<path d="M10.5876 21.4062V29.5572H10.5805C6.70327 29.5534 3.20109 26.8905 2.29639 23.2943H8.55931C8.58414 23.2943 8.60821 23.2943 8.63304 23.2931C8.80457 23.2871 8.97122 23.2585 9.12808 23.2123C9.92821 22.9802 10.5244 22.2669 10.5827 21.4062H10.5876Z" fill="#1C39BB"/>
<path d="M4.39807 15.2483C4.60687 15.2483 4.77613 15.079 4.77613 14.8702C4.77613 14.6614 4.60687 14.4922 4.39807 14.4922C4.18928 14.4922 4.02002 14.6614 4.02002 14.8702C4.02002 15.079 4.18928 15.2483 4.39807 15.2483Z" fill="#FA4E19"/>
<path d="M6.17591 15.2483C6.3847 15.2483 6.55396 15.079 6.55396 14.8702C6.55396 14.6614 6.3847 14.4922 6.17591 14.4922C5.96711 14.4922 5.79785 14.6614 5.79785 14.8702C5.79785 15.079 5.96711 15.2483 6.17591 15.2483Z" fill="#FA4E19"/>
<path d="M7.9596 15.2483C8.16839 15.2483 8.33765 15.079 8.33765 14.8702C8.33765 14.6614 8.16839 14.4922 7.9596 14.4922C7.7508 14.4922 7.58154 14.6614 7.58154 14.8702C7.58154 15.079 7.7508 15.2483 7.9596 15.2483Z" fill="#FA4E19"/>
<path d="M4.39807 16.6038C4.60687 16.6038 4.77613 16.4345 4.77613 16.2257C4.77613 16.0169 4.60687 15.8477 4.39807 15.8477C4.18928 15.8477 4.02002 16.0169 4.02002 16.2257C4.02002 16.4345 4.18928 16.6038 4.39807 16.6038Z" fill="#FA4E19"/>
<path d="M6.17591 16.6038C6.3847 16.6038 6.55396 16.4345 6.55396 16.2257C6.55396 16.0169 6.3847 15.8477 6.17591 15.8477C5.96711 15.8477 5.79785 16.0169 5.79785 16.2257C5.79785 16.4345 5.96711 16.6038 6.17591 16.6038Z" fill="#FA4E19"/>
<path d="M7.9596 16.6038C8.16839 16.6038 8.33765 16.4345 8.33765 16.2257C8.33765 16.0169 8.16839 15.8477 7.9596 15.8477C7.7508 15.8477 7.58154 16.0169 7.58154 16.2257C7.58154 16.4345 7.7508 16.6038 7.9596 16.6038Z" fill="#FA4E19"/>
<path d="M4.39807 17.9592C4.60687 17.9592 4.77613 17.79 4.77613 17.5812C4.77613 17.3724 4.60687 17.2031 4.39807 17.2031C4.18928 17.2031 4.02002 17.3724 4.02002 17.5812C4.02002 17.79 4.18928 17.9592 4.39807 17.9592Z" fill="#FA4E19"/>
<path d="M6.17591 17.9592C6.3847 17.9592 6.55396 17.79 6.55396 17.5812C6.55396 17.3724 6.3847 17.2031 6.17591 17.2031C5.96711 17.2031 5.79785 17.3724 5.79785 17.5812C5.79785 17.79 5.96711 17.9592 6.17591 17.9592Z" fill="#FA4E19"/>
<path d="M7.9596 17.9592C8.16839 17.9592 8.33765 17.79 8.33765 17.5812C8.33765 17.3724 8.16839 17.2031 7.9596 17.2031C7.7508 17.2031 7.58154 17.3724 7.58154 17.5812C7.58154 17.79 7.7508 17.9592 7.9596 17.9592Z" fill="#FA4E19"/>
<path d="M0.960354 1.46113C0.97214 1.46773 0.975205 1.47669 0.969547 1.488C0.956818 1.51346 0.930652 1.554 0.89105 1.60964C0.851919 1.66527 0.807602 1.71925 0.7581 1.77158C0.606291 1.93187 0.461083 2.01226 0.322475 2.01273H0.321768C0.248692 2.01273 0.188818 1.98656 0.142144 1.93423C0.0959411 1.88143 0.0726041 1.81354 0.0721326 1.73056C0.0716611 1.61364 0.0952339 1.49248 0.142851 1.36707C0.190939 1.24166 0.258829 1.12333 0.346519 1.01207C0.428081 0.908346 0.514829 0.826313 0.606762 0.765967C0.699168 0.705149 0.78403 0.674504 0.861348 0.674033H0.862055C0.92853 0.674033 0.977562 0.693363 1.00915 0.732022C1.03366 0.763138 1.04592 0.80274 1.04592 0.850829C1.04639 0.939934 1.01764 1.0222 0.959647 1.09764L0.956818 1.10117C0.948332 1.11013 0.939138 1.1106 0.929238 1.10259C0.919809 1.09504 0.91863 1.08679 0.925702 1.07783C0.944088 1.05615 0.961768 1.02597 0.97874 0.987315C0.995713 0.948184 1.0042 0.908346 1.0042 0.867801C1.0042 0.826313 0.995477 0.795668 0.978033 0.775867C0.963418 0.759366 0.941967 0.751116 0.91368 0.751116C0.863234 0.751116 0.797466 0.779403 0.716376 0.835978C0.635286 0.892081 0.558203 0.963271 0.485127 1.04955C0.460611 1.07831 0.437039 1.10824 0.414409 1.13936C0.391779 1.17048 0.367028 1.20937 0.340155 1.25604C0.313282 1.30225 0.290181 1.34892 0.270851 1.39607C0.251521 1.44274 0.235256 1.49554 0.222055 1.55448C0.209326 1.61341 0.202961 1.67163 0.202961 1.72915C0.202961 1.80128 0.219227 1.85503 0.251757 1.89039C0.282402 1.92386 0.327897 1.9406 0.388243 1.9406H0.389657C0.489134 1.9406 0.604405 1.86988 0.73547 1.72844C0.778844 1.6813 0.819153 1.63227 0.856398 1.58135C0.893643 1.52996 0.919101 1.49177 0.932774 1.46678C0.935602 1.4616 0.939845 1.45877 0.945503 1.4583C0.95116 1.45736 0.956111 1.4583 0.960354 1.46113ZM1.63996 1.46396C1.64939 1.47386 1.64844 1.48446 1.63713 1.49578C1.62157 1.51087 1.60083 1.52878 1.5749 1.54952C1.54897 1.57027 1.51502 1.59502 1.47306 1.62378C1.4311 1.65207 1.38867 1.67776 1.34577 1.70086C1.30287 1.72396 1.25619 1.74376 1.20575 1.76027C1.15577 1.77677 1.1098 1.78502 1.06785 1.78502H1.06714C1.03084 1.78502 0.998542 1.77983 0.970254 1.76946C0.942438 1.75909 0.920752 1.74541 0.905193 1.72844C0.889635 1.71147 0.878085 1.69332 0.870542 1.67399C0.862998 1.65419 0.859227 1.63368 0.859227 1.61246C0.859227 1.56532 0.876435 1.51817 0.910851 1.47103C0.944796 1.42388 0.986284 1.38593 1.03532 1.35717C1.08482 1.32794 1.13149 1.31333 1.17534 1.31333H1.17604C1.21329 1.31333 1.24441 1.32252 1.26939 1.34091C1.29485 1.35882 1.30758 1.38122 1.30758 1.40809C1.30758 1.45853 1.28118 1.50474 1.22838 1.5467C1.17604 1.58818 1.11782 1.60893 1.0537 1.60893C1.02494 1.60893 1.00184 1.60586 0.984398 1.59973C0.976855 1.61624 0.973083 1.63109 0.973083 1.64429C0.973083 1.66692 0.984869 1.68578 1.00844 1.70086C1.03343 1.71642 1.06572 1.7242 1.10533 1.7242C1.14257 1.7242 1.18453 1.71571 1.2312 1.69874C1.27835 1.6813 1.32102 1.66173 1.3592 1.64004C1.39739 1.61836 1.43629 1.59337 1.47589 1.56508C1.51596 1.5368 1.54496 1.51534 1.56287 1.50073C1.58126 1.48564 1.59658 1.47268 1.60884 1.46183C1.6145 1.45759 1.62015 1.45594 1.62581 1.45688C1.63147 1.45736 1.63618 1.45971 1.63996 1.46396ZM1.22979 1.39253C1.20433 1.39253 1.16803 1.40997 1.12088 1.44486C1.07374 1.47975 1.03602 1.51747 1.00773 1.55801C1.02188 1.56131 1.03649 1.56296 1.05158 1.56296C1.1025 1.56296 1.15011 1.54599 1.19443 1.51204C1.23875 1.47763 1.26091 1.44557 1.26091 1.41587C1.26091 1.40974 1.25737 1.40432 1.2503 1.3996C1.2437 1.39489 1.23686 1.39253 1.22979 1.39253ZM2.1958 1.45759C2.209 1.46231 2.21277 1.47221 2.20712 1.48729C2.19722 1.51322 2.17246 1.55471 2.13286 1.61176C2.09373 1.66833 2.04941 1.72443 1.99991 1.78007C1.86743 1.9281 1.75735 2.00212 1.66966 2.00212H1.66895C1.62699 2.00212 1.59187 1.98444 1.56358 1.94908C1.53152 1.90807 1.51549 1.85267 1.51549 1.7829C1.51502 1.69756 1.53741 1.59408 1.58267 1.47244C1.62746 1.35034 1.68852 1.22705 1.76583 1.10259C1.79789 1.0512 1.83137 1.00264 1.86625 0.956906C1.90114 0.910703 1.93721 0.867565 1.97445 0.827492C2.01217 0.787418 2.04989 0.75583 2.0876 0.732729C2.12532 0.709156 2.1595 0.69737 2.19014 0.69737H2.19085C2.25308 0.69737 2.2842 0.728958 2.2842 0.792132C2.2842 0.844464 2.26699 0.903632 2.23257 0.969635C2.19863 1.03564 2.14936 1.10376 2.08477 1.17401C2.03009 1.23389 1.97021 1.28928 1.90515 1.3402C1.84056 1.39112 1.78139 1.42907 1.72765 1.45406C1.66541 1.60539 1.6343 1.73339 1.6343 1.83806C1.6343 1.87247 1.64019 1.89769 1.65198 1.91372C1.66424 1.93022 1.68262 1.93848 1.70714 1.93848C1.74391 1.93848 1.79577 1.90877 1.86272 1.84937C1.93014 1.7895 1.9926 1.72302 2.05012 1.64994C2.10764 1.5764 2.14677 1.51629 2.16751 1.46961C2.1727 1.45688 2.18213 1.45288 2.1958 1.45759ZM1.87757 1.1535C1.83137 1.23129 1.78988 1.31168 1.75311 1.39465C1.79365 1.37485 1.84127 1.34208 1.89596 1.29635C1.95112 1.25062 2.00415 1.20041 2.05507 1.14572C2.10599 1.09056 2.14889 1.03281 2.18378 0.972464C2.21914 0.911646 2.23682 0.859551 2.23682 0.816177C2.23682 0.79779 2.23493 0.784118 2.23116 0.77516C2.22692 0.76526 2.2215 0.760309 2.2149 0.760309C2.18472 0.760309 2.13734 0.798026 2.07275 0.873458C2.00816 0.94842 1.9431 1.04177 1.87757 1.1535ZM2.87187 1.46396C2.8813 1.47386 2.88035 1.48446 2.86904 1.49578C2.85348 1.51087 2.83274 1.52878 2.80681 1.54952C2.78088 1.57027 2.74693 1.59502 2.70497 1.62378C2.66301 1.65207 2.62058 1.67776 2.57768 1.70086C2.53478 1.72396 2.4881 1.74376 2.43766 1.76027C2.38768 1.77677 2.34172 1.78502 2.29976 1.78502H2.29905C2.26275 1.78502 2.23045 1.77983 2.20217 1.76946C2.17435 1.75909 2.15266 1.74541 2.13711 1.72844C2.12155 1.71147 2.11 1.69332 2.10245 1.67399C2.09491 1.65419 2.09114 1.63368 2.09114 1.61246C2.09114 1.56532 2.10835 1.51817 2.14276 1.47103C2.17671 1.42388 2.2182 1.38593 2.26723 1.35717C2.31673 1.32794 2.3634 1.31333 2.40725 1.31333H2.40796C2.4452 1.31333 2.47632 1.32252 2.5013 1.34091C2.52676 1.35882 2.53949 1.38122 2.53949 1.40809C2.53949 1.45853 2.51309 1.50474 2.46029 1.5467C2.40796 1.58818 2.34973 1.60893 2.28561 1.60893C2.25685 1.60893 2.23375 1.60586 2.21631 1.59973C2.20877 1.61624 2.20499 1.63109 2.20499 1.64429C2.20499 1.66692 2.21678 1.68578 2.24035 1.70086C2.26534 1.71642 2.29764 1.7242 2.33724 1.7242C2.37448 1.7242 2.41644 1.71571 2.46312 1.69874C2.51026 1.6813 2.55293 1.66173 2.59112 1.64004C2.6293 1.61836 2.6682 1.59337 2.7078 1.56508C2.74788 1.5368 2.77687 1.51534 2.79478 1.50073C2.81317 1.48564 2.82849 1.47268 2.84075 1.46183C2.84641 1.45759 2.85207 1.45594 2.85772 1.45688C2.86338 1.45736 2.8681 1.45971 2.87187 1.46396ZM2.4617 1.39253C2.43624 1.39253 2.39994 1.40997 2.3528 1.44486C2.30565 1.47975 2.26793 1.51747 2.23965 1.55801C2.25379 1.56131 2.26841 1.56296 2.28349 1.56296C2.33441 1.56296 2.38203 1.54599 2.42634 1.51204C2.47066 1.47763 2.49282 1.44557 2.49282 1.41587C2.49282 1.40974 2.48928 1.40432 2.48221 1.3996C2.47561 1.39489 2.46877 1.39253 2.4617 1.39253ZM3.66108 1.45264C3.6658 1.45547 3.66886 1.45948 3.67028 1.46466C3.67216 1.46985 3.67169 1.47574 3.66886 1.48234C3.6599 1.4979 3.64152 1.51794 3.6137 1.54245C3.58589 1.56697 3.55288 1.59219 3.5147 1.61812C3.47651 1.64405 3.43243 1.66621 3.38245 1.6846C3.33248 1.70298 3.28533 1.71218 3.24102 1.71218C3.24055 1.71218 3.23937 1.71218 3.23748 1.71218C3.2356 1.71171 3.23442 1.71147 3.23395 1.71147C3.22499 1.72797 3.21391 1.74494 3.20071 1.76239C3.16865 1.80482 3.13353 1.83782 3.09534 1.86139C3.05762 1.88496 3.01967 1.89675 2.98148 1.89675H2.98077C2.94589 1.89675 2.91783 1.88614 2.89662 1.86493C2.8787 1.84701 2.86975 1.82556 2.86975 1.80057C2.86975 1.7836 2.87305 1.76616 2.87965 1.74824C2.87446 1.75767 2.8688 1.76239 2.86267 1.76239C2.8424 1.76239 2.82543 1.74754 2.81176 1.71783C2.79761 1.68766 2.79054 1.65466 2.79054 1.61883C2.79054 1.55424 2.81317 1.47103 2.85843 1.36919C2.90369 1.26689 2.96427 1.16222 3.04018 1.0552C3.07224 1.00994 3.10547 0.967042 3.13989 0.926497C3.17431 0.885952 3.2099 0.848236 3.24667 0.813348C3.28345 0.77846 3.31975 0.750644 3.35558 0.7299C3.39188 0.709156 3.42418 0.698784 3.45246 0.698784H3.45317C3.4791 0.698784 3.50126 0.706328 3.51965 0.721414C3.5385 0.736029 3.54793 0.759131 3.54793 0.790718C3.54793 0.835506 3.53143 0.886188 3.49843 0.942762C3.46543 0.998865 3.41828 1.05685 3.35699 1.11673C3.30278 1.16953 3.24361 1.21809 3.17949 1.26241C3.11585 1.30625 3.05574 1.33973 2.99916 1.36283C2.9473 1.46796 2.91241 1.55707 2.8945 1.63014C2.91477 1.58913 2.93976 1.54787 2.96946 1.50639C2.99963 1.4649 3.03428 1.42789 3.07341 1.39536C3.11302 1.36236 3.14885 1.34586 3.18091 1.34586C3.21061 1.34586 3.23677 1.36094 3.2594 1.39112C3.2825 1.42082 3.29406 1.46113 3.29406 1.51204C3.29406 1.5606 3.28156 1.61246 3.25657 1.66762C3.29099 1.66668 3.32894 1.6582 3.37043 1.64217C3.41239 1.62566 3.45058 1.60634 3.48499 1.58418C3.51941 1.56155 3.54982 1.53892 3.57622 1.51629C3.60309 1.49366 3.62172 1.47456 3.63209 1.45901C3.63916 1.44769 3.64883 1.44557 3.66108 1.45264ZM3.15616 1.08773C3.11372 1.15232 3.07153 1.22375 3.02957 1.30201C3.06116 1.28834 3.09793 1.26736 3.13989 1.23907C3.18185 1.21078 3.22404 1.17802 3.26648 1.14077C3.30891 1.10353 3.34827 1.06534 3.38457 1.02621C3.42088 0.986608 3.45034 0.946534 3.47297 0.905989C3.4956 0.864972 3.50692 0.829142 3.50692 0.798497C3.50692 0.784353 3.50244 0.773274 3.49348 0.76526C3.48594 0.758659 3.47698 0.755359 3.46661 0.755359C3.43879 0.755359 3.39613 0.786004 3.33861 0.847293C3.28156 0.90811 3.22074 0.988258 3.15616 1.08773ZM3.08261 1.69945C3.08827 1.69285 3.09204 1.68813 3.09392 1.6853C3.08261 1.68342 3.06988 1.68248 3.05574 1.68248H3.05503C3.0159 1.68248 2.98266 1.69403 2.95532 1.71713C2.93127 1.7374 2.91925 1.75932 2.91925 1.7829C2.91925 1.78808 2.92066 1.7928 2.92349 1.79704C2.92632 1.80081 2.93009 1.8027 2.93481 1.8027C2.95131 1.8027 2.97323 1.7935 3.00057 1.77512C3.02839 1.75673 3.05574 1.73151 3.08261 1.69945ZM3.1215 1.64641C3.16063 1.58323 3.1802 1.51959 3.1802 1.45547C3.1802 1.44321 3.17831 1.43284 3.17454 1.42435C3.17171 1.41728 3.16771 1.41375 3.16252 1.41375C3.13942 1.41375 3.1142 1.42459 3.08685 1.44628C3.05998 1.46749 3.03381 1.49601 3.00835 1.53185C2.98337 1.5672 2.96215 1.5995 2.94471 1.62873C2.92726 1.65796 2.91053 1.68813 2.8945 1.71925C2.90016 1.71029 2.90558 1.70298 2.91076 1.69733C2.94565 1.6582 2.99421 1.63863 3.05644 1.63863C3.07389 1.63863 3.09557 1.64122 3.1215 1.64641ZM4.31311 1.47173C4.31971 1.48211 4.31829 1.49106 4.30886 1.49861C4.21269 1.56697 4.12947 1.60115 4.05923 1.60115H4.05852C4.02363 1.60115 3.99487 1.59172 3.97224 1.57286C3.94726 1.55212 3.93476 1.52289 3.93476 1.48517C3.93476 1.46113 3.94089 1.43473 3.95315 1.40597C3.95456 1.40314 3.95574 1.40031 3.95669 1.39748C3.94113 1.40172 3.9218 1.41398 3.8987 1.43425C3.87607 1.45453 3.85485 1.47598 3.83505 1.49861C3.81572 1.52077 3.79285 1.54929 3.76645 1.58418C3.74005 1.61906 3.72049 1.64523 3.70776 1.66267C3.6955 1.68012 3.68018 1.70228 3.66179 1.72915C3.64623 1.75131 3.63822 1.76262 3.63775 1.76309C3.62125 1.77959 3.60781 1.78785 3.59744 1.78785C3.58376 1.78785 3.57221 1.77983 3.56278 1.7638C3.55194 1.74636 3.54652 1.72467 3.54652 1.69874C3.54652 1.64217 3.56373 1.57781 3.59814 1.50568C3.63209 1.43355 3.67004 1.37627 3.712 1.33383C3.73274 1.31309 3.75302 1.30272 3.77282 1.30272C3.7879 1.30272 3.80181 1.30908 3.81454 1.32181C3.82539 1.33266 3.83081 1.34609 3.83081 1.36212C3.83128 1.37815 3.82633 1.39347 3.81596 1.40809L3.8103 1.41516C3.72921 1.52312 3.67688 1.60657 3.6533 1.6655C3.80228 1.44533 3.91308 1.33525 3.98568 1.33525C4.00265 1.33525 4.01609 1.34232 4.02599 1.35646C4.03495 1.36919 4.03943 1.38499 4.03943 1.40385C4.03943 1.41092 4.03683 1.42577 4.03165 1.4484C4.02599 1.47197 4.02316 1.49083 4.02316 1.50497C4.02316 1.5243 4.0267 1.53821 4.03377 1.5467C4.03943 1.55377 4.0498 1.5573 4.06488 1.5573C4.10967 1.5573 4.18063 1.52784 4.27775 1.46891C4.27869 1.46796 4.27987 1.46726 4.28128 1.46678C4.28317 1.46584 4.28435 1.46513 4.28482 1.46466C4.2966 1.45853 4.30603 1.46089 4.31311 1.47173ZM5.06484 1.46537C5.06673 1.47244 5.06531 1.47881 5.0606 1.48446C5.03844 1.50757 5.01557 1.53043 4.992 1.55306C4.9689 1.57522 4.9392 1.60162 4.9029 1.63227C4.86659 1.66291 4.83171 1.68955 4.79823 1.71218C4.76476 1.73434 4.72893 1.75343 4.69074 1.76946C4.65255 1.78549 4.61814 1.7935 4.58749 1.7935C4.5493 1.7935 4.52149 1.77842 4.50404 1.74824C4.48896 1.72231 4.48141 1.68766 4.48141 1.64429C4.48141 1.64382 4.48141 1.64264 4.48141 1.64075C4.48189 1.63887 4.48212 1.63769 4.48212 1.63722C4.47222 1.64806 4.46114 1.66173 4.44888 1.67823C4.4338 1.69756 4.42154 1.71265 4.41211 1.72349C4.40268 1.73386 4.38972 1.74659 4.37322 1.76168C4.35671 1.77629 4.33974 1.78714 4.3223 1.79421C4.30485 1.80128 4.28623 1.80482 4.26643 1.80482C4.23343 1.80482 4.20726 1.79162 4.18793 1.76522C4.17002 1.7407 4.16106 1.71029 4.16106 1.67399C4.16106 1.63769 4.17143 1.59973 4.19218 1.56013C4.21292 1.52006 4.23862 1.48494 4.26926 1.45476C4.29943 1.42412 4.33267 1.39889 4.36897 1.37909C4.40575 1.35882 4.43898 1.34869 4.46869 1.34869C4.50499 1.34869 4.53917 1.36354 4.57123 1.39324C4.57971 1.38192 4.58678 1.3732 4.59244 1.36707C4.61743 1.34208 4.64053 1.32959 4.66175 1.32959C4.67023 1.32959 4.67825 1.33101 4.68579 1.33383C4.69333 1.33666 4.70017 1.34114 4.7063 1.34727C4.71761 1.35859 4.72351 1.37131 4.72398 1.38546C4.72492 1.3996 4.72044 1.41257 4.71054 1.42435C4.61389 1.54505 4.56557 1.63863 4.56557 1.7051C4.56557 1.71878 4.56816 1.72821 4.57335 1.73339C4.57901 1.73811 4.58914 1.74046 4.60376 1.74046H4.60446C4.63841 1.74046 4.6839 1.72326 4.74095 1.68884C4.79847 1.65442 4.85198 1.61624 4.90148 1.57428C4.95098 1.53232 4.992 1.49342 5.02453 1.45759C5.03066 1.45099 5.0382 1.4484 5.04716 1.44981C5.05565 1.45123 5.06154 1.45641 5.06484 1.46537ZM4.49202 1.57215C4.50334 1.52689 4.52078 1.48187 4.54435 1.43708C4.53728 1.43378 4.52856 1.43213 4.51819 1.43213C4.48519 1.43213 4.44888 1.44958 4.40928 1.48446C4.37015 1.51888 4.33786 1.55825 4.3124 1.60256C4.28694 1.64688 4.27421 1.68365 4.27421 1.71288C4.27421 1.72137 4.27586 1.72726 4.27916 1.73056C4.28246 1.73339 4.28765 1.73481 4.29472 1.73481C4.31028 1.73481 4.32819 1.72773 4.34846 1.71359C4.36921 1.69945 4.38595 1.68554 4.39867 1.67187C4.41188 1.6582 4.42838 1.64004 4.44818 1.61741C4.47081 1.59196 4.48542 1.57687 4.49202 1.57215ZM5.74444 0.951249C5.83826 0.951249 5.91063 0.965864 5.96155 0.995094C6.01246 1.02432 6.03792 1.0585 6.03792 1.09764C6.03792 1.11272 6.0325 1.12804 6.02166 1.1436C6.01034 1.15869 5.99903 1.16623 5.98771 1.16623C5.98206 1.16623 5.97687 1.16435 5.97216 1.16057C5.96791 1.15633 5.96579 1.15115 5.96579 1.14502C5.96579 1.14077 5.9698 1.13464 5.97781 1.12663C5.98866 1.11579 5.99408 1.10589 5.99408 1.09693C5.99408 1.07006 5.97145 1.04648 5.92619 1.02621C5.88093 1.00547 5.81964 0.995094 5.74232 0.995094H5.7402C5.72228 0.995094 5.69258 0.996037 5.65109 0.997923C5.61574 1.05968 5.57048 1.1205 5.51532 1.18038C5.46063 1.24025 5.40075 1.29565 5.33569 1.34656C5.2711 1.39701 5.21193 1.43473 5.15819 1.45971C5.09596 1.61105 5.06484 1.73905 5.06484 1.84371C5.06484 1.87766 5.07073 1.90288 5.08252 1.91938C5.09478 1.93588 5.1134 1.94413 5.13839 1.94413C5.1662 1.94413 5.20368 1.92622 5.25083 1.89039C5.29845 1.85408 5.34488 1.81095 5.39014 1.76097C5.43588 1.71053 5.47807 1.6589 5.51673 1.6061C5.55586 1.55283 5.58297 1.50922 5.59806 1.47527C5.60324 1.46254 5.61267 1.45853 5.62634 1.46325C5.63954 1.46796 5.64332 1.47786 5.63766 1.49295C5.62776 1.51888 5.60301 1.56037 5.5634 1.61741C5.52427 1.67399 5.47996 1.73009 5.43045 1.78572C5.29797 1.93376 5.18789 2.00778 5.1002 2.00778H5.09949C5.05753 2.00778 5.02241 1.9901 4.99412 1.95474C4.96206 1.91372 4.94603 1.85833 4.94603 1.78855C4.94556 1.70322 4.96796 1.59973 5.01322 1.4781C5.058 1.35599 5.11906 1.23271 5.19638 1.10824C5.21193 1.08326 5.22655 1.06086 5.24022 1.04106C5.13414 1.05379 5.05965 1.06015 5.01675 1.06015C4.95216 1.06015 4.90266 1.05002 4.86824 1.02975C4.83288 1.009 4.8152 0.979772 4.8152 0.942055C4.8152 0.918482 4.82228 0.897503 4.83642 0.879116C4.85009 0.861672 4.86471 0.85295 4.88027 0.85295C4.88734 0.85295 4.89323 0.855307 4.89795 0.860022C4.90266 0.864265 4.90502 0.869923 4.90502 0.876994C4.90502 0.884538 4.89912 0.891374 4.88734 0.897503C4.88121 0.900803 4.87673 0.903632 4.8739 0.905989C4.8706 0.908346 4.86754 0.913061 4.86471 0.920132C4.86141 0.926733 4.85976 0.934983 4.85976 0.944884C4.85976 0.966571 4.87249 0.983543 4.89795 0.995801C4.92482 1.009 4.96513 1.0156 5.01887 1.0156C5.06036 1.0156 5.14546 1.00782 5.27417 0.992265C5.33593 0.906932 5.39722 0.837392 5.45803 0.783646C5.51885 0.7299 5.5733 0.703027 5.62139 0.703027C5.65204 0.703027 5.67537 0.711278 5.6914 0.727779C5.70743 0.743808 5.71545 0.767381 5.71545 0.798497C5.71545 0.845171 5.70201 0.89656 5.67514 0.952663C5.70625 0.95172 5.72865 0.951249 5.74232 0.951249H5.74444ZM5.18365 1.40031C5.24399 1.37108 5.31636 1.3171 5.40075 1.23836C5.48514 1.15916 5.55209 1.08019 5.60159 1.00146C5.55397 1.00476 5.48538 1.01159 5.3958 1.02197C5.36799 1.06298 5.33899 1.10871 5.30882 1.15916C5.26073 1.24025 5.21901 1.32063 5.18365 1.40031ZM5.62776 0.955492C5.65463 0.904574 5.66807 0.860258 5.66807 0.822541C5.66807 0.806512 5.66595 0.792604 5.6617 0.780818C5.65746 0.770917 5.65204 0.765967 5.64544 0.765967C5.62516 0.765967 5.5957 0.784825 5.55704 0.822541C5.51885 0.859786 5.47642 0.910232 5.42975 0.973878C5.49952 0.965864 5.56553 0.959735 5.62776 0.955492ZM5.82648 1.29565C5.80149 1.29565 5.78074 1.2874 5.76424 1.27089C5.74727 1.25392 5.73879 1.23271 5.73879 1.20725C5.73879 1.1832 5.74727 1.16246 5.76424 1.14502C5.78169 1.12757 5.80243 1.11885 5.82648 1.11885C5.85146 1.11885 5.87244 1.12804 5.88941 1.14643C5.90544 1.1634 5.91346 1.18368 5.91346 1.20725C5.91346 1.23224 5.90521 1.25322 5.88871 1.27019C5.87221 1.28716 5.8517 1.29565 5.82718 1.29565H5.82648ZM6.08601 1.47032C6.09073 1.47362 6.09355 1.4781 6.0945 1.48376C6.09591 1.48941 6.09497 1.49531 6.09167 1.50144C6.08413 1.51228 6.06975 1.52855 6.04853 1.55023C6.02732 1.57192 5.99997 1.59691 5.9665 1.62519C5.9335 1.65301 5.89884 1.67941 5.86254 1.7044C5.82671 1.72891 5.78852 1.74989 5.74798 1.76734C5.7079 1.78431 5.67184 1.7928 5.63978 1.7928H5.63907C5.60136 1.7928 5.57283 1.77842 5.5535 1.74966C5.537 1.72467 5.52875 1.69073 5.52875 1.64782C5.52875 1.60492 5.54148 1.5533 5.56694 1.49295C5.59193 1.4326 5.61786 1.38899 5.64473 1.36212C5.66689 1.33996 5.68881 1.32888 5.7105 1.32888H5.71121C5.72865 1.32888 5.74326 1.33478 5.75505 1.34656C5.76684 1.35835 5.77273 1.37155 5.77273 1.38617C5.7732 1.40078 5.76754 1.41492 5.75576 1.4286C5.74821 1.43803 5.74232 1.44557 5.73808 1.45123C5.73383 1.45641 5.72276 1.47173 5.70484 1.49719C5.68693 1.52265 5.67255 1.54528 5.6617 1.56508C5.65086 1.58488 5.64025 1.60846 5.62988 1.6358C5.61998 1.66267 5.61503 1.68601 5.61503 1.70581C5.61503 1.72278 5.61809 1.7341 5.62422 1.73976C5.62988 1.744 5.64096 1.74612 5.65746 1.74612C5.70555 1.74612 5.77367 1.71406 5.86183 1.64994C5.95047 1.58583 6.01482 1.5276 6.0549 1.47527C6.0648 1.46396 6.07517 1.46231 6.08601 1.47032ZM6.88442 1.47173C6.89479 1.48022 6.89597 1.49036 6.88796 1.50214C6.8724 1.5243 6.83751 1.55707 6.78329 1.60044C6.72955 1.64382 6.67038 1.68436 6.60579 1.72208C6.54167 1.75932 6.49335 1.77794 6.46082 1.77794C6.43536 1.77794 6.41155 1.76757 6.38939 1.74683C6.36723 1.72561 6.35616 1.69379 6.35616 1.65136C6.35616 1.61411 6.37454 1.55283 6.41132 1.46749C6.42876 1.42648 6.4389 1.39937 6.44172 1.38617C6.42711 1.38711 6.41108 1.39324 6.39364 1.40455C6.37619 1.4154 6.36016 1.42789 6.34555 1.44203C6.33093 1.45571 6.31372 1.47503 6.29392 1.50002C6.27412 1.52501 6.25833 1.54575 6.24654 1.56225C6.23476 1.57876 6.2192 1.60115 6.19987 1.62944C6.15084 1.69968 6.11878 1.74235 6.10369 1.75744L6.09945 1.76168C6.08295 1.77818 6.06715 1.78643 6.05207 1.78643C6.03887 1.78643 6.02732 1.78172 6.01742 1.77229C6.00751 1.76239 6.00021 1.75036 5.99549 1.73622C5.99078 1.72161 5.98748 1.70817 5.98559 1.69591C5.98323 1.68318 5.98206 1.67187 5.98206 1.66197C5.98206 1.62944 5.98866 1.59337 6.00186 1.55377C6.01506 1.51369 6.03132 1.47739 6.05065 1.44486C6.06951 1.41186 6.08695 1.38357 6.10298 1.36C6.11949 1.33643 6.13269 1.31969 6.14259 1.30979C6.1572 1.29517 6.173 1.28787 6.18997 1.28787C6.19798 1.28787 6.20553 1.28952 6.2126 1.29282C6.22108 1.29659 6.22816 1.3013 6.23381 1.30696C6.25503 1.32818 6.25574 1.35576 6.23593 1.3897C6.23546 1.39064 6.2324 1.39583 6.22674 1.40526C6.14801 1.53397 6.0978 1.63627 6.07611 1.71218C6.09544 1.69143 6.12986 1.64664 6.17936 1.57781C6.19869 1.55094 6.21307 1.5309 6.2225 1.5177C6.2324 1.5045 6.24654 1.48611 6.26493 1.46254C6.28379 1.4385 6.29958 1.42035 6.31231 1.40809C6.32551 1.39536 6.3406 1.38192 6.35757 1.36778C6.37501 1.35316 6.39175 1.34279 6.40778 1.33666C6.42381 1.33053 6.4396 1.32747 6.45516 1.32747C6.47873 1.32747 6.49688 1.33619 6.50961 1.35364C6.52234 1.37108 6.52871 1.39559 6.52871 1.42718C6.52871 1.44651 6.52588 1.46749 6.52022 1.49012C6.51456 1.51275 6.50891 1.53114 6.50325 1.54528C6.49759 1.55895 6.48958 1.57758 6.47921 1.60115C6.45752 1.64877 6.44667 1.68177 6.44667 1.70015C6.44667 1.70676 6.44927 1.71194 6.45445 1.71571C6.46011 1.71948 6.46671 1.72137 6.47425 1.72137C6.50584 1.72137 6.54969 1.70416 6.60579 1.66975C6.66189 1.63533 6.71187 1.59997 6.75571 1.56367C6.79956 1.52689 6.83303 1.49625 6.85613 1.47173C6.86038 1.46796 6.86509 1.46631 6.87028 1.46678C6.87546 1.46678 6.88018 1.46843 6.88442 1.47173ZM7.66374 1.45901C7.67505 1.46608 7.67741 1.47503 7.67081 1.48588C7.66091 1.50191 7.64393 1.52336 7.61989 1.55023C7.59632 1.5771 7.56614 1.60728 7.52937 1.64075C7.4926 1.67422 7.45394 1.70676 7.41339 1.73834C7.37285 1.76946 7.32853 1.79822 7.28044 1.82462C7.23283 1.85055 7.18827 1.86917 7.14679 1.88049C7.14349 1.88662 7.1284 1.91349 7.10153 1.9611C7.07465 2.00825 7.04919 2.05045 7.02515 2.08769C7.00158 2.12541 6.974 2.16501 6.94241 2.2065C6.91082 2.24846 6.88065 2.28311 6.85189 2.31045C6.82266 2.33827 6.79107 2.36137 6.75713 2.37976C6.72271 2.39814 6.68947 2.40734 6.65742 2.40734H6.65671C6.58363 2.40734 6.54709 2.37929 6.54709 2.32318C6.54709 2.28217 6.56336 2.23408 6.59589 2.17892C6.62795 2.12423 6.6725 2.06883 6.72955 2.01273C6.78282 1.9604 6.83586 1.91844 6.88866 1.88685C6.94147 1.85479 6.98531 1.83853 7.0202 1.83806C7.06687 1.75084 7.11072 1.66456 7.15174 1.57923C7.19322 1.49389 7.22363 1.4293 7.24296 1.38546C7.22646 1.39583 7.18804 1.44156 7.12769 1.52265C7.09705 1.56367 7.07347 1.59455 7.05697 1.61529C7.04094 1.63604 7.01902 1.6622 6.99121 1.69379C6.96386 1.72491 6.93935 1.74777 6.91766 1.76239C6.89597 1.77653 6.87617 1.7836 6.85826 1.7836H6.85755C6.83256 1.7836 6.81064 1.77158 6.79178 1.74754C6.77104 1.72161 6.76066 1.69049 6.76066 1.65419C6.76066 1.62213 6.76962 1.5863 6.78754 1.5467C6.80545 1.50662 6.82997 1.46891 6.86108 1.43355C6.89409 1.39489 6.92921 1.36495 6.96645 1.34373C7.00417 1.32252 7.04024 1.31191 7.07465 1.31191C7.10341 1.31144 7.12675 1.31875 7.14466 1.33383C7.16305 1.34845 7.17507 1.36401 7.18073 1.38051C7.20949 1.34939 7.23542 1.33383 7.25852 1.33383H7.25923C7.27526 1.33383 7.28751 1.34161 7.296 1.35717C7.30449 1.37273 7.30873 1.39512 7.30873 1.42435C7.30873 1.51912 7.26394 1.65372 7.17437 1.82815C7.22575 1.81071 7.28516 1.77794 7.35258 1.72986C7.41999 1.68177 7.47893 1.63344 7.52937 1.58488C7.58029 1.53585 7.61612 1.49578 7.63686 1.46466C7.64299 1.45429 7.65195 1.45241 7.66374 1.45901ZM7.10648 1.47881C7.11826 1.46183 7.13076 1.44439 7.14396 1.42648C7.1383 1.4227 7.13123 1.42082 7.12274 1.42082C7.09634 1.42082 7.06805 1.43048 7.03788 1.44981C7.00771 1.46867 6.97918 1.49484 6.95231 1.52831C6.92732 1.55943 6.90752 1.59243 6.89291 1.62731C6.87829 1.66173 6.87075 1.69285 6.87028 1.72066C6.89479 1.71925 6.92355 1.70157 6.95655 1.66762C6.98956 1.63368 7.02562 1.59031 7.06475 1.5375C7.08361 1.5111 7.09752 1.49154 7.10648 1.47881ZM6.62842 2.36066C6.70008 2.36066 6.8229 2.20108 6.99686 1.8819C6.9714 1.88379 6.93557 1.90076 6.88937 1.93282C6.84317 1.96488 6.79791 2.00283 6.75359 2.04667C6.70928 2.09099 6.67085 2.13884 6.63832 2.19023C6.60532 2.24209 6.58882 2.28594 6.58882 2.32177C6.58882 2.33403 6.5933 2.34369 6.60226 2.35076C6.6098 2.35736 6.61852 2.36066 6.62842 2.36066Z" fill="#9539E5"/>
<path d="M16.0591 31.2093C16.0577 31.2135 16.0553 31.2203 16.052 31.2298C16.0492 31.2392 16.0473 31.2458 16.0463 31.2496C15.9299 31.6154 15.8226 31.8856 15.7246 32.06C15.6458 32.201 15.5617 32.3101 15.4721 32.3874C15.383 32.4647 15.2965 32.5036 15.2126 32.5041H15.2119C15.1595 32.5041 15.1143 32.4869 15.0761 32.4525C15.036 32.4162 15.016 32.3712 15.016 32.3174C15.016 32.2693 15.0301 32.2274 15.0584 32.1915C15.0872 32.1552 15.1176 32.1307 15.1496 32.118C15.1614 32.1133 15.1704 32.1178 15.1765 32.1314C15.1817 32.1451 15.1782 32.1543 15.1659 32.159C15.1569 32.1628 15.1473 32.1684 15.1369 32.176C15.1265 32.183 15.1152 32.1927 15.103 32.205C15.0912 32.2172 15.0813 32.2326 15.0733 32.2509C15.0657 32.2689 15.0619 32.2879 15.0619 32.3082C15.0619 32.3455 15.0747 32.3756 15.1001 32.3987C15.1261 32.4218 15.1555 32.4334 15.1885 32.4334C15.2927 32.4334 15.3986 32.3537 15.5061 32.1944C15.589 32.0713 15.6697 31.9054 15.7479 31.6965C15.7517 31.6861 15.7573 31.6708 15.7649 31.6505C15.7729 31.6303 15.7788 31.6152 15.7826 31.6053C15.809 31.5346 15.8325 31.4714 15.8533 31.4158C15.8528 31.4167 15.8521 31.4179 15.8512 31.4193C15.8507 31.4202 15.8502 31.4209 15.8497 31.4214C15.8351 31.4483 15.8241 31.4686 15.8165 31.4822C15.809 31.4959 15.7955 31.5197 15.7762 31.5537C15.7569 31.5876 15.7401 31.6154 15.726 31.6371C15.7123 31.6588 15.6942 31.6864 15.6715 31.7198C15.6494 31.7528 15.6293 31.7804 15.6114 31.8026C15.5935 31.8243 15.5725 31.8478 15.5485 31.8733C15.5249 31.8983 15.5028 31.9183 15.482 31.9334C15.4617 31.9485 15.4401 31.9612 15.417 31.9716C15.3939 31.9815 15.3717 31.9865 15.3505 31.9865H15.3498C15.3073 31.9865 15.272 31.9678 15.2437 31.9306C15.2154 31.8943 15.2013 31.8504 15.2013 31.799C15.2013 31.7477 15.2064 31.6958 15.2168 31.6435C15.2272 31.5911 15.2413 31.5435 15.2593 31.5006C15.2772 31.4572 15.2951 31.4181 15.313 31.3832C15.3309 31.3479 15.35 31.3158 15.3703 31.287C15.391 31.2578 15.4059 31.2373 15.4148 31.2255C15.4243 31.2133 15.4323 31.2031 15.4389 31.1951L15.4396 31.1944C15.4584 31.1741 15.4813 31.164 15.5082 31.164C15.519 31.164 15.5292 31.1673 15.5386 31.1739C15.548 31.18 15.5551 31.1885 15.5598 31.1994C15.5688 31.2187 15.5664 31.2359 15.5527 31.251C15.5405 31.2647 15.5211 31.2927 15.4947 31.3351C15.4683 31.3776 15.4401 31.4271 15.4099 31.4836C15.3802 31.5397 15.3542 31.6001 15.3321 31.6647C15.3099 31.7288 15.2989 31.7833 15.2989 31.828C15.2989 31.8615 15.3059 31.8872 15.3201 31.9051C15.3314 31.9188 15.3458 31.9256 15.3632 31.9256H15.3639C15.3889 31.9256 15.4167 31.9153 15.4474 31.8945C15.4785 31.8733 15.5079 31.8478 15.5358 31.8181C15.5636 31.788 15.5945 31.7491 15.6284 31.7015C15.6628 31.6534 15.6918 31.6105 15.7154 31.5727C15.7394 31.535 15.7668 31.4893 15.7974 31.4356C15.8281 31.3813 15.85 31.3417 15.8632 31.3167C15.8769 31.2918 15.8938 31.2599 15.9141 31.2213C15.9169 31.2156 15.9198 31.2102 15.9226 31.205C15.9254 31.1998 15.9282 31.1949 15.9311 31.1902C15.9339 31.185 15.9358 31.1814 15.9367 31.1796C15.9367 31.1791 15.9367 31.1784 15.9367 31.1774C15.9367 31.1765 15.937 31.1758 15.9374 31.1753C15.9407 31.1631 15.9485 31.1522 15.9608 31.1428C15.973 31.1334 15.9879 31.1286 16.0053 31.1286C16.0232 31.1286 16.0381 31.1369 16.0499 31.1534C16.0626 31.1704 16.0657 31.189 16.0591 31.2093ZM16.7083 31.9327C16.7177 31.9426 16.7168 31.9532 16.7054 31.9645C16.6899 31.9796 16.6691 31.9975 16.6432 32.0183C16.6173 32.039 16.5833 32.0638 16.5414 32.0925C16.4994 32.1208 16.457 32.1465 16.4141 32.1696C16.3712 32.1927 16.3245 32.2125 16.2741 32.229C16.2241 32.2455 16.1781 32.2538 16.1362 32.2538H16.1355C16.0991 32.2538 16.0669 32.2486 16.0386 32.2382C16.0108 32.2278 15.9891 32.2142 15.9735 32.1972C15.9579 32.1802 15.9464 32.1621 15.9389 32.1427C15.9313 32.1229 15.9275 32.1024 15.9275 32.0812C15.9275 32.0341 15.9447 31.9869 15.9792 31.9398C16.0131 31.8926 16.0546 31.8547 16.1036 31.8259C16.1531 31.7967 16.1998 31.7821 16.2436 31.7821H16.2444C16.2816 31.7821 16.3127 31.7913 16.3377 31.8097C16.3632 31.8276 16.3759 31.85 16.3759 31.8768C16.3759 31.9273 16.3495 31.9735 16.2967 32.0154C16.2444 32.0569 16.1861 32.0777 16.122 32.0777C16.0933 32.0777 16.0702 32.0746 16.0527 32.0685C16.0452 32.085 16.0414 32.0998 16.0414 32.113C16.0414 32.1357 16.0532 32.1545 16.0768 32.1696C16.1017 32.1852 16.134 32.1929 16.1736 32.1929C16.2109 32.1929 16.2528 32.1845 16.2995 32.1675C16.3467 32.15 16.3893 32.1305 16.4275 32.1088C16.4657 32.0871 16.5046 32.0621 16.5442 32.0338C16.5843 32.0055 16.6133 31.9841 16.6312 31.9695C16.6496 31.9544 16.6649 31.9414 16.6772 31.9306C16.6828 31.9263 16.6885 31.9247 16.6941 31.9256C16.6998 31.9261 16.7045 31.9285 16.7083 31.9327ZM16.2981 31.8613C16.2726 31.8613 16.2363 31.8787 16.1892 31.9136C16.1421 31.9485 16.1043 31.9862 16.076 32.0268C16.0902 32.0301 16.1048 32.0317 16.1199 32.0317C16.1708 32.0317 16.2184 32.0147 16.2627 31.9808C16.3071 31.9464 16.3292 31.9143 16.3292 31.8846C16.3292 31.8785 16.3257 31.8731 16.3186 31.8684C16.312 31.8636 16.3052 31.8613 16.2981 31.8613ZM17.4614 31.9341C17.4633 31.9412 17.4619 31.9476 17.4572 31.9532C17.435 31.9763 17.4121 31.9992 17.3886 32.0218C17.3655 32.044 17.3358 32.0704 17.2995 32.101C17.2632 32.1317 17.2283 32.1583 17.1948 32.1809C17.1613 32.2031 17.1255 32.2222 17.0873 32.2382C17.0491 32.2542 17.0147 32.2623 16.9841 32.2623C16.9459 32.2623 16.9181 32.2472 16.9006 32.217C16.8855 32.1911 16.878 32.1564 16.878 32.113C16.878 32.1126 16.878 32.1114 16.878 32.1095C16.8785 32.1076 16.8787 32.1064 16.8787 32.106C16.8688 32.1168 16.8577 32.1305 16.8455 32.147C16.8304 32.1663 16.8181 32.1814 16.8087 32.1922C16.7993 32.2026 16.7863 32.2153 16.7698 32.2304C16.7533 32.245 16.7363 32.2559 16.7189 32.263C16.7014 32.27 16.6828 32.2736 16.663 32.2736C16.63 32.2736 16.6038 32.2604 16.5845 32.234C16.5666 32.2094 16.5576 32.179 16.5576 32.1427C16.5576 32.1064 16.568 32.0685 16.5888 32.0289C16.6095 31.9888 16.6352 31.9537 16.6658 31.9235C16.696 31.8929 16.7292 31.8676 16.7655 31.8478C16.8023 31.8276 16.8356 31.8174 16.8653 31.8174C16.9016 31.8174 16.9357 31.8323 16.9678 31.862C16.9763 31.8507 16.9834 31.842 16.989 31.8358C17.014 31.8108 17.0371 31.7983 17.0583 31.7983C17.0668 31.7983 17.0748 31.7998 17.0824 31.8026C17.0899 31.8054 17.0967 31.8099 17.1029 31.816C17.1142 31.8273 17.1201 31.8401 17.1206 31.8542C17.1215 31.8684 17.117 31.8813 17.1071 31.8931C17.0105 32.0138 16.9621 32.1074 16.9621 32.1739C16.9621 32.1875 16.9647 32.197 16.9699 32.2021C16.9756 32.2069 16.9857 32.2092 17.0003 32.2092H17.001C17.035 32.2092 17.0805 32.192 17.1375 32.1576C17.195 32.1232 17.2486 32.085 17.2981 32.043C17.3476 32.0011 17.3886 31.9622 17.4211 31.9263C17.4272 31.9197 17.4348 31.9171 17.4437 31.9186C17.4522 31.92 17.4581 31.9252 17.4614 31.9341ZM16.8886 32.0409C16.8999 31.9956 16.9174 31.9506 16.9409 31.9058C16.9339 31.9025 16.9251 31.9009 16.9148 31.9009C16.8818 31.9009 16.8455 31.9183 16.8059 31.9532C16.7667 31.9876 16.7344 32.027 16.709 32.0713C16.6835 32.1156 16.6708 32.1524 16.6708 32.1816C16.6708 32.1901 16.6724 32.196 16.6757 32.1993C16.679 32.2021 16.6842 32.2036 16.6913 32.2036C16.7069 32.2036 16.7248 32.1965 16.745 32.1823C16.7658 32.1682 16.7825 32.1543 16.7953 32.1406C16.8085 32.1269 16.825 32.1088 16.8448 32.0862C16.8674 32.0607 16.882 32.0456 16.8886 32.0409ZM18.1028 31.9405C18.1094 31.9509 18.108 31.9598 18.0986 31.9674C18.0024 32.0357 17.9192 32.0699 17.849 32.0699H17.8482C17.8134 32.0699 17.7846 32.0605 17.762 32.0416C17.737 32.0209 17.7245 31.9916 17.7245 31.9539C17.7245 31.9299 17.7306 31.9035 17.7429 31.8747C17.7443 31.8719 17.7455 31.8691 17.7464 31.8662C17.7309 31.8705 17.7115 31.8827 17.6884 31.903C17.6658 31.9233 17.6446 31.9447 17.6248 31.9674C17.6054 31.9895 17.5826 32.018 17.5562 32.0529C17.5298 32.0878 17.5102 32.114 17.4975 32.1314C17.4852 32.1489 17.4699 32.171 17.4515 32.1979C17.436 32.2201 17.4279 32.2314 17.4275 32.2318C17.411 32.2483 17.3975 32.2566 17.3872 32.2566C17.3735 32.2566 17.3619 32.2486 17.3525 32.2326C17.3417 32.2151 17.3362 32.1934 17.3362 32.1675C17.3362 32.1109 17.3535 32.0466 17.3879 31.9744C17.4218 31.9023 17.4598 31.845 17.5017 31.8026C17.5225 31.7818 17.5427 31.7715 17.5625 31.7715C17.5776 31.7715 17.5915 31.7778 17.6043 31.7906C17.6151 31.8014 17.6205 31.8148 17.6205 31.8309C17.621 31.8469 17.6161 31.8622 17.6057 31.8768L17.6 31.8839C17.5189 31.9919 17.4666 32.0753 17.443 32.1343C17.592 31.9141 17.7028 31.804 17.7754 31.804C17.7924 31.804 17.8058 31.8111 17.8157 31.8252C17.8247 31.8379 17.8292 31.8537 17.8292 31.8726C17.8292 31.8797 17.8266 31.8945 17.8214 31.9171C17.8157 31.9407 17.8129 31.9596 17.8129 31.9737C17.8129 31.9931 17.8164 32.007 17.8235 32.0154C17.8292 32.0225 17.8395 32.0261 17.8546 32.0261C17.8994 32.0261 17.9704 31.9966 18.0675 31.9377C18.0684 31.9367 18.0696 31.936 18.071 31.9355C18.0729 31.9346 18.0741 31.9339 18.0745 31.9334C18.0863 31.9273 18.0958 31.9296 18.1028 31.9405ZM18.7506 31.9285C18.7577 31.928 18.7633 31.9301 18.7676 31.9348C18.7718 31.9395 18.7742 31.9447 18.7747 31.9504C18.7751 31.9556 18.7735 31.9605 18.7697 31.9652C18.7664 31.9695 18.7612 31.9718 18.7541 31.9723C18.624 31.9803 18.4746 32.0171 18.3058 32.0826C18.3242 32.1128 18.3334 32.1409 18.3334 32.1668C18.3334 32.2238 18.3119 32.2731 18.269 32.3146C18.2233 32.358 18.1658 32.3796 18.0965 32.3796H18.0958C18.0477 32.3796 18.0097 32.3705 17.9819 32.3521C17.9555 32.3346 17.9423 32.3115 17.9423 32.2828C17.9423 32.2549 17.9621 32.2245 18.0017 32.1915C18.0408 32.1585 18.0969 32.1251 18.17 32.0911C18.1686 32.0897 18.166 32.0878 18.1622 32.0855C18.1589 32.0831 18.1568 32.0817 18.1559 32.0812C18.1408 32.0708 18.129 32.0624 18.1205 32.0558C18.1125 32.0487 18.1031 32.0393 18.0922 32.0275C18.0814 32.0157 18.0734 32.0027 18.0682 31.9886C18.063 31.9744 18.0604 31.9589 18.0604 31.9419C18.0604 31.8948 18.0835 31.8523 18.1297 31.8146C18.1759 31.7769 18.2358 31.7578 18.3093 31.7573H18.31C18.3591 31.7573 18.3994 31.766 18.431 31.7835C18.4626 31.8009 18.4783 31.8233 18.4783 31.8507C18.4783 31.8653 18.4732 31.8797 18.4628 31.8938C18.4524 31.908 18.4432 31.9181 18.4352 31.9242C18.4277 31.9299 18.422 31.9336 18.4182 31.9355C18.406 31.9412 18.3963 31.9386 18.3892 31.9278C18.3831 31.9179 18.3843 31.9096 18.3928 31.903C18.4046 31.8945 18.4133 31.8867 18.4189 31.8797C18.4246 31.8726 18.4274 31.8641 18.4274 31.8542C18.4274 31.8495 18.4225 31.8448 18.4126 31.8401C18.4027 31.8354 18.3899 31.833 18.3744 31.833C18.3376 31.833 18.2987 31.8471 18.2577 31.8754C18.2172 31.9032 18.1924 31.9254 18.1835 31.9419C18.1868 31.9471 18.1978 31.9591 18.2167 31.978C18.2469 32.0081 18.2678 32.0305 18.2796 32.0451C18.3621 32.0136 18.4463 31.9872 18.5321 31.9659C18.6179 31.9447 18.6907 31.9322 18.7506 31.9285ZM18.1629 32.2623C18.2035 32.2321 18.2238 32.1995 18.2238 32.1647C18.2238 32.1505 18.2183 32.1368 18.2075 32.1236C18.1424 32.1533 18.0901 32.1821 18.0505 32.2099C18.0109 32.2377 17.9911 32.2608 17.9911 32.2792C17.9911 32.2872 17.9972 32.2936 18.0095 32.2983C18.0213 32.303 18.0349 32.3054 18.0505 32.3054H18.0512C18.087 32.3054 18.1243 32.291 18.1629 32.2623Z" fill="#9539E5"/>
</svg>
