<svg width="22" height="33" viewBox="0 0 22 33" fill="none" xmlns="http://www.w3.org/2000/svg">
<path d="M9.19286 0.148438C9.17788 0.151434 9.1634 0.153431 9.14941 0.156427C9.1579 0.154929 9.16639 0.153431 9.17438 0.151433C9.18087 0.150435 9.18637 0.149436 9.19286 0.148438Z" fill="#FA4E19"/>
<path d="M7.78086 0.476562C7.77888 0.477058 7.7764 0.478048 7.77393 0.478544C7.77393 0.478544 7.77393 0.478049 7.77442 0.478049C7.7764 0.477058 7.77839 0.477058 7.78086 0.476562Z" fill="#FA4E19"/>
<path d="M8.45128 0.296875C8.44628 0.298373 8.44179 0.298873 8.43679 0.300371C8.41582 0.305864 8.39435 0.311855 8.37388 0.316848C8.36089 0.318846 8.34891 0.321842 8.33643 0.325338C8.34941 0.321842 8.36239 0.318347 8.37487 0.314352C8.39585 0.30886 8.41582 0.304365 8.43629 0.299371C8.44179 0.298372 8.44628 0.297874 8.45128 0.296875Z" fill="#FA4E19"/>
<path d="M8.58421 0.269531C8.56573 0.274025 8.54676 0.278019 8.52828 0.282513C8.5153 0.28451 8.50332 0.287507 8.49083 0.290503C8.48134 0.2925 8.47286 0.293999 8.46387 0.295996C8.47685 0.292501 8.48983 0.289505 8.50232 0.286509C8.52179 0.282015 8.54077 0.278019 8.56024 0.274523C8.56823 0.272526 8.57622 0.271029 8.58421 0.269531Z" fill="#FA4E19"/>
<path d="M9.19286 0.148438C9.17788 0.151434 9.1634 0.153431 9.14941 0.156427C9.1579 0.154929 9.16639 0.153431 9.17438 0.151433C9.18087 0.150435 9.18637 0.149436 9.19286 0.148438Z" fill="#FA4E19"/>
<path d="M7.80934 0.472656C7.80877 0.472656 7.80707 0.473223 7.80594 0.474358C7.80197 0.474925 7.798 0.476059 7.79346 0.476626C7.79856 0.474924 7.80424 0.473791 7.80934 0.472656Z" fill="#FA4E19"/>
<path d="M7.78213 0.476562C7.78012 0.477064 7.77761 0.478067 7.7751 0.478569L7.7746 0.479071C7.76607 0.481078 7.75804 0.48409 7.74951 0.486097C7.75804 0.482585 7.76657 0.480577 7.77611 0.477566C7.77761 0.477064 7.77962 0.477064 7.78213 0.476562Z" fill="#FA4E19"/>
<path d="M8.43679 0.300781C8.41582 0.306274 8.39435 0.312265 8.37388 0.317259C8.36089 0.319256 8.34891 0.322253 8.33643 0.325748C8.37038 0.31676 8.40334 0.308771 8.43679 0.300781Z" fill="#FA4E19"/>
<path d="M8.55721 0.269531C8.54623 0.272527 8.53574 0.274525 8.52476 0.277521C8.51177 0.279518 8.49979 0.282514 8.4873 0.285511C8.51077 0.279518 8.53424 0.274525 8.55721 0.269531Z" fill="#FA4E19"/>
<path d="M9.19286 0.148438C9.17788 0.151434 9.1634 0.153431 9.14941 0.156427C9.1579 0.154929 9.16639 0.153431 9.17438 0.151433C9.18087 0.150435 9.18637 0.149436 9.19286 0.148438Z" fill="#FA4E19"/>
<path d="M8.43679 0.300781C8.41582 0.306274 8.39435 0.312265 8.37388 0.317259C8.36089 0.319256 8.34891 0.322253 8.33643 0.325748C8.37038 0.31676 8.40334 0.308771 8.43679 0.300781Z" fill="#FA4E19"/>
<path d="M8.58068 0.269531C8.56221 0.274025 8.54323 0.278019 8.52476 0.282513C8.51177 0.28451 8.49979 0.287507 8.4873 0.290503C8.51027 0.28501 8.53374 0.279517 8.55671 0.274523C8.5647 0.272526 8.57269 0.271029 8.58068 0.269531Z" fill="#FA4E19"/>
<path d="M0.0126953 0.00049785V10.6806C0.0665749 8.73098 0.62782 6.90906 1.57171 5.34156C3.00201 2.96038 5.30736 1.16539 8.04375 0.401602C8.08715 0.389629 8.13105 0.377156 8.17445 0.365682C8.17994 0.364185 8.18643 0.362688 8.19291 0.360693C8.21786 0.354207 8.2428 0.347723 8.26874 0.341237C8.27423 0.33974 8.28022 0.338244 8.2857 0.336747C8.29019 0.335251 8.29418 0.334751 8.29867 0.333255C8.30017 0.332756 8.30167 0.332756 8.30317 0.331758C8.30366 0.331758 8.30366 0.331758 8.30466 0.331758C8.30616 0.331758 8.30815 0.331259 8.30965 0.331259C8.31115 0.33076 8.31314 0.330759 8.31464 0.330759C8.31614 0.330261 8.31763 0.330261 8.31913 0.329263C8.32561 0.327766 8.3311 0.325771 8.33759 0.324773C8.35056 0.321281 8.36353 0.317789 8.376 0.313798C8.39696 0.30831 8.41691 0.30382 8.43736 0.298832C8.44235 0.297335 8.44684 0.296836 8.45183 0.295838C8.45383 0.29534 8.45533 0.29534 8.45732 0.294342C8.45932 0.293843 8.46181 0.293843 8.46381 0.292845C8.47678 0.289353 8.48975 0.28636 8.50222 0.283366C8.52168 0.278876 8.54063 0.274884 8.56009 0.271392C8.56807 0.269396 8.57606 0.267901 8.58354 0.266404C8.58504 0.266404 8.58653 0.265905 8.58803 0.265905C8.59252 0.264408 8.59651 0.26391 8.6015 0.262912C8.60449 0.262413 8.60649 0.261415 8.60948 0.260916C8.61996 0.257424 8.63093 0.255927 8.64241 0.252933C8.6469 0.251437 8.65338 0.251438 8.65837 0.249442C8.66336 0.247946 8.66635 0.247946 8.67134 0.247946C8.67434 0.247447 8.67683 0.245949 8.68082 0.244951C8.68232 0.244452 8.68431 0.243455 8.68631 0.243455C8.6918 0.242956 8.69778 0.24146 8.70277 0.239964C8.70577 0.238467 8.71075 0.238467 8.71475 0.23697C8.72622 0.235474 8.7367 0.231981 8.74817 0.230485C8.75765 0.228988 8.76513 0.227491 8.77461 0.225495C8.77461 0.225495 8.77461 0.225495 8.77611 0.225495C8.7796 0.223999 8.78259 0.223999 8.78609 0.223999C8.89335 0.202048 9.0021 0.18309 9.11286 0.162635C9.12383 0.161139 9.13431 0.159144 9.14578 0.157148C9.15426 0.155652 9.16274 0.154155 9.17073 0.152159C9.17721 0.15166 9.1827 0.150164 9.18918 0.149166C9.20864 0.146173 9.2286 0.142681 9.24805 0.138191C9.25354 0.137692 9.26003 0.136694 9.26601 0.135197L9.29894 0.130708C9.31341 0.128712 9.32688 0.125719 9.34035 0.124222C9.34733 0.122725 9.35382 0.121228 9.3603 0.120729C9.38325 0.117237 9.4062 0.113746 9.42815 0.110753C9.47105 0.104267 9.51446 0.0977807 9.55736 0.0927919C9.66612 0.0783242 9.77687 0.0658516 9.88713 0.0548761C9.95697 0.0478917 10.0268 0.0419054 10.0967 0.0364176C10.1665 0.0309299 10.2368 0.0254428 10.3077 0.0214517C10.3651 0.0179595 10.4219 0.0149661 10.4803 0.0119728C10.5182 0.00997721 10.5566 0.00848025 10.5945 0.0069836C10.6345 0.00548694 10.6749 0.00398992 10.7148 0.00349104C10.7522 0.00299215 10.7891 0.00199548 10.8265 0.00149659C10.8844 0.000997709 10.9433 0 11.0011 0H0.0126953V0.00049785ZM5.61368 1.38291C5.53785 1.42432 5.46401 1.46672 5.38968 1.50962C5.46451 1.46373 5.53835 1.42082 5.61368 1.38291C5.67504 1.34849 5.7389 1.31356 5.80176 1.28213C5.7389 1.31506 5.67554 1.34849 5.61368 1.38291ZM7.77734 0.477432L7.77684 0.477931C7.76836 0.479927 7.76038 0.482921 7.7519 0.484916C7.76038 0.481424 7.76886 0.479428 7.77834 0.476434C7.78033 0.475936 7.78283 0.475936 7.78482 0.474938C7.78233 0.475936 7.78033 0.476933 7.77734 0.477432ZM7.80827 0.468952C7.80478 0.46945 7.80129 0.470447 7.7973 0.470946C7.80179 0.469449 7.80677 0.467954 7.81077 0.467455C7.81027 0.467455 7.80877 0.468453 7.80827 0.468952Z" fill="#FA4E19"/>
<path d="M9.19286 0.148438C9.17788 0.151434 9.1634 0.153431 9.14941 0.156427C9.1579 0.154929 9.16639 0.153431 9.17438 0.151433C9.18087 0.150435 9.18637 0.149436 9.19286 0.148438Z" fill="#FA4E19"/>
<path d="M10.9961 0L11.0026 10.6801C15.0071 10.6801 18.5103 8.53941 20.4325 5.34106C21.3764 3.77307 21.9381 1.95014 21.994 0.000499372H10.9961V0Z" fill="#C68DFC"/>
<path d="M8.32175 0.332031C8.31991 0.332647 8.31806 0.332647 8.31621 0.333878C8.31437 0.333878 8.31191 0.333877 8.31006 0.334492C8.31067 0.333877 8.31067 0.333878 8.31191 0.333878C8.31375 0.333878 8.31437 0.333262 8.31621 0.333262C8.31806 0.332646 8.31991 0.332031 8.32175 0.332031Z" fill="#F0A8C0"/>
<path d="M10.8275 0.00149659C10.7901 0.00199548 10.7532 0.00299368 10.7158 0.00349256C10.6759 0.00399145 10.6355 0.00548847 10.5955 0.00698512C10.5576 0.00848178 10.5192 0.00997874 10.4813 0.0119743C10.4234 0.0149676 10.3661 0.0174606 10.3087 0.0214517C10.2378 0.0259417 10.168 0.0309314 10.0977 0.0364192C10.0273 0.0419069 9.95797 0.0478933 9.88812 0.0548777C9.77787 0.0653542 9.66712 0.0783257 9.55836 0.0927934C9.51546 0.0977823 9.47205 0.104267 9.42915 0.110753C9.4072 0.113746 9.38425 0.117239 9.3613 0.120731C9.35481 0.12123 9.34833 0.122727 9.34134 0.124223C9.32787 0.12572 9.31441 0.128712 9.29994 0.130708L9.26701 0.135199C9.26152 0.136696 9.25504 0.137194 9.24905 0.138192C9.22959 0.142682 9.20964 0.146174 9.19018 0.149168C9.1837 0.149667 9.17821 0.151163 9.17172 0.152161C9.16374 0.154156 9.15526 0.155652 9.14678 0.157148C9.13531 0.159144 9.12483 0.161639 9.11385 0.162637C9.0031 0.18359 8.89434 0.202049 8.78708 0.224C8.78359 0.224 8.7806 0.224 8.77711 0.225497C8.77561 0.225497 8.77561 0.225497 8.77561 0.225497C8.76613 0.227493 8.75865 0.228988 8.74917 0.230485C8.73769 0.231981 8.72722 0.235474 8.71574 0.23697C8.71125 0.238467 8.70626 0.238467 8.70377 0.239964C8.69878 0.24146 8.69279 0.242957 8.68731 0.243456C8.68531 0.243456 8.68282 0.243955 8.68182 0.244953C8.67833 0.245452 8.67533 0.246948 8.67234 0.247946C8.66735 0.247946 8.66436 0.247946 8.65937 0.249443C8.65438 0.251438 8.64789 0.251438 8.64341 0.252935C8.63193 0.255928 8.62145 0.257425 8.61048 0.260917C8.60749 0.261416 8.60549 0.262414 8.6025 0.262913C8.59751 0.263412 8.59302 0.26441 8.58903 0.265907C8.58753 0.265907 8.58603 0.266404 8.58454 0.266404C8.56608 0.270894 8.54712 0.274886 8.52866 0.279376C8.51569 0.281371 8.50372 0.284365 8.49125 0.287358C8.48177 0.289354 8.47329 0.29085 8.46431 0.292845C8.46231 0.293344 8.45982 0.293344 8.45782 0.294342C8.45582 0.294841 8.45433 0.294841 8.45233 0.295838C8.44734 0.297335 8.44285 0.297834 8.43786 0.299331C8.41691 0.304819 8.39546 0.310806 8.375 0.315795C8.36203 0.317791 8.35006 0.320783 8.33759 0.324275C8.3311 0.324774 8.32562 0.327268 8.31913 0.328765C8.31763 0.329264 8.31614 0.329264 8.31464 0.330262C8.31314 0.330262 8.31115 0.330262 8.30965 0.330761C8.30815 0.330761 8.30616 0.33126 8.30466 0.33126C8.30416 0.33126 8.30416 0.33126 8.30317 0.33126C8.30167 0.331759 8.30017 0.331759 8.29868 0.332757C8.29419 0.334254 8.29019 0.334753 8.2857 0.33625C8.28022 0.337746 8.27423 0.339243 8.26874 0.340739C8.2428 0.347225 8.21786 0.35371 8.19291 0.360195C8.18643 0.362191 8.17994 0.363688 8.17445 0.365184C8.13105 0.376659 8.08715 0.388632 8.04375 0.401104C5.30736 1.1649 3.00201 2.96038 1.57171 5.34106C0.62782 6.90906 0.066076 8.73049 0.0126953 10.6801H11.0026V0C10.9443 0 10.8854 0.000498824 10.8275 0.00149659ZM9.15327 0.156651C9.16175 0.155154 9.17023 0.153657 9.17821 0.151661C9.1847 0.151163 9.19018 0.149666 9.19667 0.148668C9.1817 0.151662 9.16723 0.153657 9.15327 0.156651Z" fill="#9539E5"/>
<path d="M9.19286 0.148438C9.17788 0.151434 9.1634 0.153431 9.14941 0.156427C9.1579 0.154929 9.16639 0.153431 9.17438 0.151433C9.18087 0.150435 9.18637 0.149436 9.19286 0.148438Z" fill="#F0A8C0"/>
<path d="M22.0003 21.8084C22.0003 21.8698 22.0003 21.9331 21.9988 21.9945H17.1791C17.1806 21.9331 17.1821 21.8698 17.1821 21.8084C17.1821 21.2636 17.1112 20.7348 16.9785 20.2314C16.2821 17.5839 13.8715 15.6307 11.0044 15.6307V10.8125C15.1137 10.8125 18.6962 13.0655 20.581 16.4045C21.486 17.9989 22.0003 19.8428 22.0003 21.8084Z" fill="#1C39BB"/>
<path d="M21.9988 21.9961C21.8995 27.9842 17.0165 32.8059 11.0044 32.8059V21.9961H21.9988Z" fill="#FF630D"/>
<path d="M17.1821 21.8066C17.1821 21.868 17.1806 21.9313 17.1791 21.9927H11.0044V15.6289C13.8715 15.6289 16.2821 17.582 16.9785 20.2296C17.1112 20.733 17.1821 21.2618 17.1821 21.8066Z" fill="#C68DFC"/>
<path d="M17.1821 22.1822C17.1821 22.1208 17.1806 22.0575 17.1791 21.9961H11.0044V28.3599C13.8715 28.3599 16.2821 26.4067 16.9785 23.7592C17.1112 23.2558 17.1821 22.727 17.1821 22.1822Z" fill="#F22E00"/>
<path d="M11.0003 10.6836V21.8107C11.0003 20.587 10.1822 19.5548 9.06416 19.2295C8.82619 19.1587 8.57226 19.1207 8.30934 19.1207H0.00390625V10.8143C0.00390625 10.7699 0.00540284 10.728 0.00540284 10.6836H11.0003Z" fill="#FF630D"/>
<path d="M10.9959 32.8001H0V24.7466C0 24.7057 -6.08656e-08 24.6643 0.00149659 24.6234C0.00149659 24.579 0.00299459 24.5351 0.0059879 24.4922H8.4127C8.37977 24.4937 8.34784 24.4937 8.31492 24.4937H0.00947894C1.2093 29.2635 5.85392 32.7951 10.9959 32.8001Z" fill="#C68DFC"/>
<path d="M10.9998 21.9961V32.8059H10.9904C5.84834 32.8009 1.20372 29.2693 0.00390625 24.5H8.30984C8.34277 24.5 8.3747 24.5 8.40762 24.4985C8.63512 24.4905 8.85612 24.4526 9.06416 24.3912C10.1253 24.0834 10.916 23.1375 10.9933 21.9961H10.9998Z" fill="#1C39BB"/>
<path d="M2.79142 13.827C3.06832 13.827 3.2928 13.6025 3.2928 13.3256C3.2928 13.0487 3.06832 12.8242 2.79142 12.8242C2.51451 12.8242 2.29004 13.0487 2.29004 13.3256C2.29004 13.6025 2.51451 13.827 2.79142 13.827Z" fill="#FA4E19"/>
<path d="M5.14933 13.827C5.42623 13.827 5.65071 13.6025 5.65071 13.3256C5.65071 13.0487 5.42623 12.8242 5.14933 12.8242C4.87243 12.8242 4.64795 13.0487 4.64795 13.3256C4.64795 13.6025 4.87243 13.827 5.14933 13.827Z" fill="#FA4E19"/>
<path d="M7.51456 13.827C7.79147 13.827 8.01594 13.6025 8.01594 13.3256C8.01594 13.0487 7.79147 12.8242 7.51456 12.8242C7.23766 12.8242 7.01318 13.0487 7.01318 13.3256C7.01318 13.6025 7.23766 13.827 7.51456 13.827Z" fill="#FA4E19"/>
<path d="M2.79142 15.6239C3.06832 15.6239 3.2928 15.3994 3.2928 15.1225C3.2928 14.8456 3.06832 14.6211 2.79142 14.6211C2.51451 14.6211 2.29004 14.8456 2.29004 15.1225C2.29004 15.3994 2.51451 15.6239 2.79142 15.6239Z" fill="#FA4E19"/>
<path d="M5.14933 15.6239C5.42623 15.6239 5.65071 15.3994 5.65071 15.1225C5.65071 14.8456 5.42623 14.6211 5.14933 14.6211C4.87243 14.6211 4.64795 14.8456 4.64795 15.1225C4.64795 15.3994 4.87243 15.6239 5.14933 15.6239Z" fill="#FA4E19"/>
<path d="M7.51456 15.6239C7.79147 15.6239 8.01594 15.3994 8.01594 15.1225C8.01594 14.8456 7.79147 14.6211 7.51456 14.6211C7.23766 14.6211 7.01318 14.8456 7.01318 15.1225C7.01318 15.3994 7.23766 15.6239 7.51456 15.6239Z" fill="#FA4E19"/>
<path d="M2.79142 17.4246C3.06832 17.4246 3.2928 17.2002 3.2928 16.9233C3.2928 16.6463 3.06832 16.4219 2.79142 16.4219C2.51451 16.4219 2.29004 16.6463 2.29004 16.9233C2.29004 17.2002 2.51451 17.4246 2.79142 17.4246Z" fill="#FA4E19"/>
<path d="M5.14933 17.4246C5.42623 17.4246 5.65071 17.2002 5.65071 16.9233C5.65071 16.6463 5.42623 16.4219 5.14933 16.4219C4.87243 16.4219 4.64795 16.6463 4.64795 16.9233C4.64795 17.2002 4.87243 17.4246 5.14933 17.4246Z" fill="#FA4E19"/>
<path d="M7.51456 17.4246C7.79147 17.4246 8.01594 17.2002 8.01594 16.9233C8.01594 16.6463 7.79147 16.4219 7.51456 16.4219C7.23766 16.4219 7.01318 16.6463 7.01318 16.9233C7.01318 17.2002 7.23766 17.4246 7.51456 17.4246Z" fill="#FA4E19"/>
</svg>
