<svg width="143" height="20" viewBox="0 0 143 20" fill="none" xmlns="http://www.w3.org/2000/svg">
<mask id="mask0_1216_2021" style="mask-type:alpha" maskUnits="userSpaceOnUse" x="0" y="0" width="143" height="21">
<path d="M23.7121 7.76562C23.2539 7.76562 22.8503 8.07549 22.7262 8.52524L20.9745 14.8398C20.8503 15.285 20.4527 15.5949 19.9974 15.5994L4.93874 15.7408C2.64158 15.7814 0.709546 18.1625 0 20.0037H24.4705C24.9405 20.0037 25.35 19.6788 25.4653 19.214L26.3345 15.6837H26.37L27.2111 12.6527C27.8896 10.2084 26.1409 7.76562 23.7121 7.76562Z" fill="#151F43"/>
<path d="M29.7423 0H5.27476C4.80469 0 4.39522 0.324904 4.27992 0.789697L3.41073 4.32002H3.37525L2.53414 7.35095C1.85564 9.79525 3.60437 12.238 6.03309 12.238C6.49134 12.238 6.89489 11.9282 7.01906 11.4784L8.77076 5.16386C8.89493 4.71863 9.29257 4.40876 9.74786 4.40425L24.8065 4.26286C27.1037 4.22225 29.0431 1.84112 29.7526 0H29.7408L29.7423 0Z" fill="#151F43"/>
<path d="M17.5363 8.75239C18.189 8.74521 18.7742 8.1318 18.9766 7.80859H12.3425C11.9362 7.80859 11.5886 8.09158 11.5124 8.48086L11.4948 8.56848H11.4845L10.8054 12.039L10.7731 12.2717C10.7731 12.2717 10.7324 12.569 10.9081 12.569V12.5719H18.2417C18.0393 12.2472 17.3823 11.7043 16.7296 11.6971H12.919C12.3671 11.6971 12.4027 11.4098 12.4027 11.4098L12.919 9.21058C13.0114 8.84284 13.0422 8.75383 13.4294 8.75239H17.5363Z" fill="#1C39BB"/>
<line x1="32.3169" y1="15.4883" x2="51.2968" y2="15.4883" stroke="#00092A"/>
<line x1="123.01" y1="15.4883" x2="141.99" y2="15.4883" stroke="#00092A"/>
<path d="M56.8921 17.2196V15.1016H57.385V17.2196H56.8921Z" fill="#00092A"/>
<path d="M59.0786 17.2196V15.1016H59.4153L60.9061 16.3499C60.9568 16.3913 61.0016 16.4307 61.0403 16.4681C61.0791 16.5042 61.1145 16.5416 61.1465 16.5804C61.1385 16.4615 61.1332 16.3773 61.1305 16.3279C61.1278 16.2785 61.1265 16.2404 61.1265 16.2137V15.1016H61.5693V17.2196H61.2327L59.6778 15.9111C59.6404 15.8777 59.6076 15.8476 59.5796 15.8209C59.5515 15.7942 59.5255 15.7668 59.5014 15.7388C59.5081 15.8042 59.5128 15.8663 59.5155 15.9251C59.5195 15.9826 59.5215 16.0327 59.5215 16.0754V17.2196H59.0786Z" fill="#00092A"/>
<path d="M63.2609 17.2196V15.1016H63.5976L65.0884 16.3499C65.1392 16.3913 65.1839 16.4307 65.2226 16.4681C65.2614 16.5042 65.2968 16.5416 65.3288 16.5804C65.3208 16.4615 65.3155 16.3773 65.3128 16.3279C65.3101 16.2785 65.3088 16.2404 65.3088 16.2137V15.1016H65.7516V17.2196H65.415L63.8601 15.9111C63.8227 15.8777 63.7899 15.8476 63.7619 15.8209C63.7338 15.7942 63.7078 15.7668 63.6837 15.7388C63.6904 15.8042 63.6951 15.8663 63.6978 15.9251C63.7018 15.9826 63.7038 16.0327 63.7038 16.0754V17.2196H63.2609Z" fill="#00092A"/>
<path d="M67.4032 15.6025C67.4032 15.4101 67.4392 15.2786 67.5114 15.2078C67.5835 15.137 67.7224 15.1016 67.9282 15.1016H69.4871C69.6928 15.1016 69.8318 15.137 69.9039 15.2078C69.976 15.2786 70.0121 15.4101 70.0121 15.6025V16.7186C70.0121 16.9123 69.976 17.0446 69.9039 17.1154C69.8318 17.1848 69.6928 17.2196 69.4871 17.2196H67.9282C67.7224 17.2196 67.5835 17.1848 67.5114 17.1154C67.4392 17.0446 67.4032 16.9123 67.4032 16.7186V15.6025ZM67.8961 16.8208H69.5212V15.4803H67.8961V16.8208Z" fill="#00092A"/>
<path d="M72.381 17.2196L71.1567 15.1016H71.7197L72.5774 16.6325L73.3949 15.1016H73.8858L72.7216 17.2196H72.381Z" fill="#00092A"/>
<path d="M75.4732 16.374H76.401L75.9441 15.5123L75.4732 16.374ZM74.5254 17.2196L75.7237 15.1016H76.1986L77.4129 17.2196H76.8599L76.6054 16.7567H75.2628L75.0164 17.2196H74.5254Z" fill="#00092A"/>
<path d="M79.4171 15.4803V17.2196H78.9242V15.4803H77.9523V15.1016H80.3929V15.4803H79.4171Z" fill="#00092A"/>
<path d="M81.6116 17.2196V15.1016H82.1046V17.2196H81.6116Z" fill="#00092A"/>
<path d="M83.7982 17.2196V15.1016H84.1348L85.6256 16.3499C85.6764 16.3913 85.7211 16.4307 85.7599 16.4681C85.7986 16.5042 85.834 16.5416 85.8661 16.5804C85.8581 16.4615 85.8527 16.3773 85.8501 16.3279C85.8474 16.2785 85.846 16.2404 85.846 16.2137V15.1016H86.2889V17.2196H85.9522L84.3973 15.9111C84.3599 15.8777 84.3272 15.8476 84.2991 15.8209C84.2711 15.7942 84.245 15.7668 84.221 15.7388C84.2277 15.8042 84.2323 15.8663 84.235 15.9251C84.239 15.9826 84.241 16.0327 84.241 16.0754V17.2196H83.7982Z" fill="#00092A"/>
<path d="M89.9722 15.4803H88.4333V16.8208H89.9722V16.3499H89.1667V15.9892H90.4512V16.7186C90.4512 16.9123 90.4151 17.0446 90.3429 17.1154C90.2708 17.1848 90.1319 17.2196 89.9262 17.2196H88.4654C88.2597 17.2196 88.1207 17.1848 88.0486 17.1154C87.9765 17.0446 87.9404 16.9123 87.9404 16.7186V15.6025C87.9404 15.4101 87.9765 15.2786 88.0486 15.2078C88.1207 15.137 88.2597 15.1016 88.4654 15.1016H89.9262C90.1292 15.1016 90.2675 15.1363 90.3409 15.2058C90.4144 15.2752 90.4512 15.4008 90.4512 15.5825V15.6306L89.9722 15.7167V15.4803Z" fill="#00092A"/>
<path d="M94.3173 17.2196V15.1016H96.4593V15.4723H94.8102V16.0293H95.7019V16.416H94.8102V17.2196H94.3173Z" fill="#00092A"/>
<path d="M97.642 15.6025C97.642 15.4101 97.678 15.2786 97.7502 15.2078C97.8223 15.137 97.9612 15.1016 98.1669 15.1016H99.7259C99.9316 15.1016 100.071 15.137 100.143 15.2078C100.215 15.2786 100.251 15.4101 100.251 15.6025V16.7186C100.251 16.9123 100.215 17.0446 100.143 17.1154C100.071 17.1848 99.9316 17.2196 99.7259 17.2196H98.1669C97.9612 17.2196 97.8223 17.1848 97.7502 17.1154C97.678 17.0446 97.642 16.9123 97.642 16.7186V15.6025ZM98.1349 16.8208H99.76V15.4803H98.1349V16.8208Z" fill="#00092A"/>
<path d="M103.497 15.4683H102.389V16.0574H103.497C103.583 16.0574 103.641 16.0453 103.672 16.0213C103.704 15.9959 103.72 15.9518 103.72 15.8891V15.6346C103.72 15.5731 103.704 15.5304 103.672 15.5063C103.641 15.4809 103.583 15.4683 103.497 15.4683ZM101.904 17.2196V15.1016H103.716C103.884 15.1016 104.006 15.1343 104.081 15.1997C104.157 15.2639 104.195 15.3681 104.195 15.5123V16.0093C104.195 16.1522 104.157 16.2564 104.081 16.3219C104.006 16.3873 103.884 16.4201 103.716 16.4201H103.439L104.417 17.2196H103.71L102.856 16.4201H102.389V17.2196H101.904Z" fill="#00092A"/>
<path d="M108.608 17.2196V16.2718L107.508 15.1016H108.165L108.892 15.9151L109.622 15.1016H110.201L109.105 16.2598V17.2196H108.608Z" fill="#00092A"/>
<path d="M111.273 15.6025C111.273 15.4101 111.309 15.2786 111.382 15.2078C111.454 15.137 111.593 15.1016 111.798 15.1016H113.357C113.563 15.1016 113.702 15.137 113.774 15.2078C113.846 15.2786 113.882 15.4101 113.882 15.6025V16.7186C113.882 16.9123 113.846 17.0446 113.774 17.1154C113.702 17.1848 113.563 17.2196 113.357 17.2196H111.798C111.593 17.2196 111.454 17.1848 111.382 17.1154C111.309 17.0446 111.273 16.9123 111.273 16.7186V15.6025ZM111.766 16.8208H113.391V15.4803H111.766V16.8208Z" fill="#00092A"/>
<path d="M116.029 15.1016V16.8208H117.433V15.1016H117.924V16.7186C117.924 16.9123 117.888 17.0446 117.816 17.1154C117.744 17.1848 117.605 17.2196 117.399 17.2196H116.061C115.856 17.2196 115.717 17.1848 115.644 17.1154C115.572 17.0446 115.536 16.9123 115.536 16.7186V15.1016H116.029Z" fill="#00092A"/>
<mask id="path-7-inside-1_1216_2021" fill="white">
<path fill-rule="evenodd" clip-rule="evenodd" d="M38.493 6.06314H34.0204V7.43824H38.2529C38.9183 7.43824 39.366 7.54594 39.5962 7.76135C39.8263 7.97175 39.9414 8.37501 39.9414 8.97114V9.86533C39.9414 10.4615 39.8238 10.8672 39.5887 11.0826C39.3535 11.298 38.9083 11.4057 38.2529 11.4057H34.0354C33.365 11.4057 32.9097 11.298 32.6696 11.0826C32.4345 10.8672 32.3169 10.4615 32.3169 9.86533V9.68499L33.7277 9.42199V10.1884H38.508V8.70063H34.2981C33.6327 8.70063 33.1824 8.59292 32.9473 8.37752C32.7121 8.1571 32.5946 7.75133 32.5946 7.16022V6.43134C32.5946 5.84523 32.7121 5.44447 32.9473 5.22906C33.1824 5.00865 33.6327 4.89844 34.2981 4.89844H38.1553C38.8107 4.89844 39.2585 5.00364 39.4986 5.21403C39.7437 5.41942 39.8663 5.78511 39.8663 6.31111V6.46891L38.493 6.76196V6.06314ZM48.4739 6.06314V11.4057H46.8904V6.06314H43.7536V4.89844H51.6182V6.06314H48.4739ZM57.3291 4.89844L53.4718 11.4057H55.0552L55.8732 9.97804H59.2284L58.5677 8.7908H56.5486L58.012 6.07817L59.5278 8.7908H59.5248L60.5686 10.6665L60.5679 10.6668L60.9912 11.4057H62.7697L58.8524 4.89844H57.3291ZM72.0152 6.0932H67.7452V10.1584H72.0152V8.77577L73.6136 9.09888V9.86533C73.6136 10.4564 73.496 10.8622 73.2609 11.0826C73.0257 11.298 72.5755 11.4057 71.9101 11.4057H67.8502C67.1948 11.4057 66.7496 11.298 66.5144 11.0826C66.2793 10.8672 66.1617 10.4615 66.1617 9.86533V6.43134C66.1617 5.84022 66.2768 5.43696 66.5069 5.22155C66.7421 5.00614 67.1898 4.89844 67.8502 4.89844H71.9101C72.5805 4.89844 73.0308 5.00614 73.2609 5.22155C73.496 5.43696 73.6136 5.84022 73.6136 6.43134V7.06253L72.0152 7.29547V6.0932ZM78.1463 4.89844V11.4057H79.7222V4.89844H78.1463ZM83.5494 11.4057L87.4067 4.89844H88.9301L92.8474 11.4057H91.0688L90.4491 10.3241L89.6018 8.7908H89.6055L89.2744 8.19833L89.2342 8.12555L89.2338 8.12574L88.0896 6.07817L86.6262 8.7908H88.6813L89.3374 9.97804H85.9508L85.1329 11.4057H83.5494ZM99.4591 6.0932H103.732V7.29547L105.332 7.06253V6.43134C105.332 5.84022 105.214 5.43696 104.979 5.22155C104.748 5.00614 104.298 4.89844 103.627 4.89844H99.5642C98.9033 4.89844 98.4552 5.00614 98.2199 5.22155C97.9896 5.43696 97.8745 5.84022 97.8745 6.43134V9.86533C97.8745 10.4615 97.9921 10.8672 98.2274 11.0826C98.4627 11.298 98.9083 11.4057 99.5642 11.4057H103.627C104.293 11.4057 104.743 11.298 104.979 11.0826C105.214 10.8622 105.332 10.4564 105.332 9.86533V9.09888L103.732 8.77577V10.1584H99.4591V6.0932ZM111.295 10.1584H116.536V6.0932H111.295V10.1584ZM109.71 6.43134C109.71 5.84022 109.825 5.43696 110.055 5.22155C110.286 5.00614 110.734 4.89844 111.4 4.89844H116.431C117.102 4.89844 117.55 5.00614 117.776 5.22155C118.006 5.43696 118.121 5.84022 118.121 6.43134V9.86533C118.121 10.4615 118.003 10.8672 117.768 11.0826C117.538 11.298 117.092 11.4057 116.431 11.4057H111.4C110.734 11.4057 110.286 11.298 110.055 11.0826C109.825 10.8672 109.71 10.4615 109.71 9.86533V6.43134ZM124.347 6.01805H127.966C128.242 6.01805 128.43 6.05813 128.53 6.13828C128.635 6.21843 128.687 6.35369 128.687 6.54405V7.29547C128.687 7.48583 128.635 7.62109 128.53 7.70124C128.43 7.78139 128.242 7.82147 127.966 7.82147H124.347V6.01805ZM122.785 4.89844V11.4057H124.347V8.94108H125.841L128.567 11.4057H130.843L127.749 8.94108H128.642C129.178 8.94108 129.566 8.8434 129.806 8.64803C130.047 8.45266 130.167 8.13456 130.167 7.69372V6.16083C130.167 5.71498 130.047 5.39438 129.806 5.19901C129.566 4.99863 129.178 4.89844 128.642 4.89844H122.785ZM134.71 11.4057V4.89844H140.568C141.109 4.89844 141.497 4.99863 141.732 5.19901C141.972 5.39438 142.092 5.71498 142.092 6.16083V7.60355C142.092 8.0494 141.972 8.37251 141.732 8.57289C141.492 8.76826 141.104 8.86594 140.568 8.86594H136.272V11.4057H134.71ZM139.892 6.01805H136.272V7.74632H139.892C140.167 7.74632 140.355 7.70625 140.455 7.6261C140.56 7.54594 140.613 7.41069 140.613 7.22033V6.54405C140.613 6.35369 140.56 6.21843 140.455 6.13828C140.355 6.05813 140.167 6.01805 139.892 6.01805Z"/>
</mask>
<path fill-rule="evenodd" clip-rule="evenodd" d="M38.493 6.06314H34.0204V7.43824H38.2529C38.9183 7.43824 39.366 7.54594 39.5962 7.76135C39.8263 7.97175 39.9414 8.37501 39.9414 8.97114V9.86533C39.9414 10.4615 39.8238 10.8672 39.5887 11.0826C39.3535 11.298 38.9083 11.4057 38.2529 11.4057H34.0354C33.365 11.4057 32.9097 11.298 32.6696 11.0826C32.4345 10.8672 32.3169 10.4615 32.3169 9.86533V9.68499L33.7277 9.42199V10.1884H38.508V8.70063H34.2981C33.6327 8.70063 33.1824 8.59292 32.9473 8.37752C32.7121 8.1571 32.5946 7.75133 32.5946 7.16022V6.43134C32.5946 5.84523 32.7121 5.44447 32.9473 5.22906C33.1824 5.00865 33.6327 4.89844 34.2981 4.89844H38.1553C38.8107 4.89844 39.2585 5.00364 39.4986 5.21403C39.7437 5.41942 39.8663 5.78511 39.8663 6.31111V6.46891L38.493 6.76196V6.06314ZM48.4739 6.06314V11.4057H46.8904V6.06314H43.7536V4.89844H51.6182V6.06314H48.4739ZM57.3291 4.89844L53.4718 11.4057H55.0552L55.8732 9.97804H59.2284L58.5677 8.7908H56.5486L58.012 6.07817L59.5278 8.7908H59.5248L60.5686 10.6665L60.5679 10.6668L60.9912 11.4057H62.7697L58.8524 4.89844H57.3291ZM72.0152 6.0932H67.7452V10.1584H72.0152V8.77577L73.6136 9.09888V9.86533C73.6136 10.4564 73.496 10.8622 73.2609 11.0826C73.0257 11.298 72.5755 11.4057 71.9101 11.4057H67.8502C67.1948 11.4057 66.7496 11.298 66.5144 11.0826C66.2793 10.8672 66.1617 10.4615 66.1617 9.86533V6.43134C66.1617 5.84022 66.2768 5.43696 66.5069 5.22155C66.7421 5.00614 67.1898 4.89844 67.8502 4.89844H71.9101C72.5805 4.89844 73.0308 5.00614 73.2609 5.22155C73.496 5.43696 73.6136 5.84022 73.6136 6.43134V7.06253L72.0152 7.29547V6.0932ZM78.1463 4.89844V11.4057H79.7222V4.89844H78.1463ZM83.5494 11.4057L87.4067 4.89844H88.9301L92.8474 11.4057H91.0688L90.4491 10.3241L89.6018 8.7908H89.6055L89.2744 8.19833L89.2342 8.12555L89.2338 8.12574L88.0896 6.07817L86.6262 8.7908H88.6813L89.3374 9.97804H85.9508L85.1329 11.4057H83.5494ZM99.4591 6.0932H103.732V7.29547L105.332 7.06253V6.43134C105.332 5.84022 105.214 5.43696 104.979 5.22155C104.748 5.00614 104.298 4.89844 103.627 4.89844H99.5642C98.9033 4.89844 98.4552 5.00614 98.2199 5.22155C97.9896 5.43696 97.8745 5.84022 97.8745 6.43134V9.86533C97.8745 10.4615 97.9921 10.8672 98.2274 11.0826C98.4627 11.298 98.9083 11.4057 99.5642 11.4057H103.627C104.293 11.4057 104.743 11.298 104.979 11.0826C105.214 10.8622 105.332 10.4564 105.332 9.86533V9.09888L103.732 8.77577V10.1584H99.4591V6.0932ZM111.295 10.1584H116.536V6.0932H111.295V10.1584ZM109.71 6.43134C109.71 5.84022 109.825 5.43696 110.055 5.22155C110.286 5.00614 110.734 4.89844 111.4 4.89844H116.431C117.102 4.89844 117.55 5.00614 117.776 5.22155C118.006 5.43696 118.121 5.84022 118.121 6.43134V9.86533C118.121 10.4615 118.003 10.8672 117.768 11.0826C117.538 11.298 117.092 11.4057 116.431 11.4057H111.4C110.734 11.4057 110.286 11.298 110.055 11.0826C109.825 10.8672 109.71 10.4615 109.71 9.86533V6.43134ZM124.347 6.01805H127.966C128.242 6.01805 128.43 6.05813 128.53 6.13828C128.635 6.21843 128.687 6.35369 128.687 6.54405V7.29547C128.687 7.48583 128.635 7.62109 128.53 7.70124C128.43 7.78139 128.242 7.82147 127.966 7.82147H124.347V6.01805ZM122.785 4.89844V11.4057H124.347V8.94108H125.841L128.567 11.4057H130.843L127.749 8.94108H128.642C129.178 8.94108 129.566 8.8434 129.806 8.64803C130.047 8.45266 130.167 8.13456 130.167 7.69372V6.16083C130.167 5.71498 130.047 5.39438 129.806 5.19901C129.566 4.99863 129.178 4.89844 128.642 4.89844H122.785ZM134.71 11.4057V4.89844H140.568C141.109 4.89844 141.497 4.99863 141.732 5.19901C141.972 5.39438 142.092 5.71498 142.092 6.16083V7.60355C142.092 8.0494 141.972 8.37251 141.732 8.57289C141.492 8.76826 141.104 8.86594 140.568 8.86594H136.272V11.4057H134.71ZM139.892 6.01805H136.272V7.74632H139.892C140.167 7.74632 140.355 7.70625 140.455 7.6261C140.56 7.54594 140.613 7.41069 140.613 7.22033V6.54405C140.613 6.35369 140.56 6.21843 140.455 6.13828C140.355 6.05813 140.167 6.01805 139.892 6.01805Z" fill="#151F43"/>
<path d="M34.0204 6.06314V5.31314H33.2704V6.06314H34.0204ZM38.493 6.06314H39.243V5.31314H38.493V6.06314ZM34.0204 7.43824H33.2704V8.18824H34.0204V7.43824ZM39.5962 7.76135L39.0836 8.30895L39.0901 8.31489L39.5962 7.76135ZM32.6696 11.0826L32.163 11.6357L32.1688 11.6409L32.6696 11.0826ZM32.3169 9.68499L32.1795 8.94769L31.5669 9.06188V9.68499H32.3169ZM33.7277 9.42199H34.4777V8.51926L33.5903 8.68469L33.7277 9.42199ZM33.7277 10.1884H32.9777V10.9384H33.7277V10.1884ZM38.508 10.1884V10.9384H39.258V10.1884H38.508ZM38.508 8.70063H39.258V7.95063H38.508V8.70063ZM32.9473 8.37752L32.4343 8.92473L32.4406 8.93054L32.9473 8.37752ZM32.9473 5.22906L33.4539 5.78212L33.4602 5.77624L32.9473 5.22906ZM39.4986 5.21403L39.0044 5.77815L39.0106 5.78361L39.0169 5.78893L39.4986 5.21403ZM39.8663 6.46891L40.0228 7.20239L40.6163 7.07575V6.46891H39.8663ZM38.493 6.76196H37.743V7.68889L38.6495 7.49545L38.493 6.76196ZM48.4739 11.4057V12.1557H49.2239V11.4057H48.4739ZM48.4739 6.06314V5.31314H47.7239V6.06314H48.4739ZM46.8904 11.4057H46.1404V12.1557H46.8904V11.4057ZM46.8904 6.06314H47.6404V5.31314H46.8904V6.06314ZM43.7536 6.06314H43.0036V6.81314H43.7536V6.06314ZM43.7536 4.89844V4.14844H43.0036V4.89844H43.7536ZM51.6182 4.89844H52.3682V4.14844H51.6182V4.89844ZM51.6182 6.06314V6.81314H52.3682V6.06314H51.6182ZM53.4718 11.4057L52.8266 11.0233L52.1554 12.1557H53.4718V11.4057ZM57.3291 4.89844V4.14844H56.9018L56.6839 4.51601L57.3291 4.89844ZM55.0552 11.4057V12.1557H55.4899L55.706 11.7786L55.0552 11.4057ZM55.8732 9.97804V9.22804H55.4385L55.2224 9.6052L55.8732 9.97804ZM59.2284 9.97804V10.728H60.5041L59.8838 9.61335L59.2284 9.97804ZM58.5677 8.7908L59.2231 8.4261L59.0087 8.0408H58.5677V8.7908ZM56.5486 8.7908L55.8885 8.43471L55.2918 9.5408H56.5486V8.7908ZM58.012 6.07817L58.6667 5.7123L58.0004 4.51998L57.3519 5.72208L58.012 6.07817ZM59.5278 8.7908V9.5408H60.8061L60.1825 8.42493L59.5278 8.7908ZM59.5248 8.7908V8.0408H58.2491L58.8695 9.1555L59.5248 8.7908ZM60.5686 10.6665L60.9212 11.3284L61.5954 10.9693L61.2239 10.3018L60.5686 10.6665ZM60.5679 10.6668L60.2153 10.0049L59.5326 10.3685L59.9171 11.0397L60.5679 10.6668ZM60.9912 11.4057L60.3404 11.7786L60.5565 12.1557H60.9912V11.4057ZM62.7697 11.4057V12.1557H64.0966L63.4123 11.0189L62.7697 11.4057ZM58.8524 4.89844L59.495 4.51163L59.2764 4.14844H58.8524V4.89844ZM67.7452 6.0932V5.3432H66.9952V6.0932H67.7452ZM72.0152 6.0932H72.7652V5.3432H72.0152V6.0932ZM67.7452 10.1584H66.9952V10.9084H67.7452V10.1584ZM72.0152 10.1584V10.9084H72.7652V10.1584H72.0152ZM72.0152 8.77577L72.1638 8.04064L71.2652 7.85899V8.77577H72.0152ZM73.6136 9.09888H74.3636V8.48532L73.7622 8.36375L73.6136 9.09888ZM73.2609 11.0826L73.7675 11.6357L73.7738 11.6298L73.2609 11.0826ZM66.5069 5.22155L66.0003 4.66849L65.9944 4.67399L66.5069 5.22155ZM73.2609 5.22155L72.7483 5.76914L72.7543 5.77457L73.2609 5.22155ZM73.6136 7.06253L73.7217 7.80469L74.3636 7.71115V7.06253H73.6136ZM72.0152 7.29547H71.2652V8.16269L72.1233 8.03763L72.0152 7.29547ZM78.1463 11.4057H77.3963V12.1557H78.1463V11.4057ZM78.1463 4.89844V4.14844H77.3963V4.89844H78.1463ZM79.7222 11.4057V12.1557H80.4722V11.4057H79.7222ZM79.7222 4.89844H80.4722V4.14844H79.7222V4.89844ZM87.4067 4.89844V4.14844H86.9794L86.7615 4.51601L87.4067 4.89844ZM83.5494 11.4057L82.9042 11.0233L82.233 12.1557H83.5494V11.4057ZM88.9301 4.89844L89.5726 4.51163L89.354 4.14844H88.9301V4.89844ZM92.8474 11.4057V12.1557H94.1743L93.4899 11.0189L92.8474 11.4057ZM91.0688 11.4057L90.4181 11.7786L90.6342 12.1557H91.0688V11.4057ZM90.4491 10.3241L89.7926 10.6869L89.7983 10.6969L90.4491 10.3241ZM89.6018 8.7908V8.0408H88.3304L88.9454 9.15356L89.6018 8.7908ZM89.6055 8.7908V9.5408H90.8838L90.2602 8.42493L89.6055 8.7908ZM89.2744 8.19833L88.6179 8.56108L88.6197 8.5642L89.2744 8.19833ZM89.2342 8.12555L89.8906 7.76281L89.5322 7.11417L88.8793 7.46482L89.2342 8.12555ZM89.2338 8.12574L88.5791 8.49161L88.9389 9.13546L89.5887 8.78647L89.2338 8.12574ZM88.0896 6.07817L88.7443 5.7123L88.078 4.51998L87.4295 5.72208L88.0896 6.07817ZM86.6262 8.7908L85.9661 8.43471L85.3694 9.5408H86.6262V8.7908ZM88.6813 8.7908L89.3378 8.42804L89.1238 8.0408H88.6813V8.7908ZM89.3374 9.97804V10.728H90.6088L89.9939 9.61529L89.3374 9.97804ZM85.9508 9.97804V9.22804H85.5162L85.3001 9.6052L85.9508 9.97804ZM85.1329 11.4057V12.1557H85.5675L85.7836 11.7786L85.1329 11.4057ZM103.732 6.0932H104.482V5.3432H103.732V6.0932ZM99.4591 6.0932V5.3432H98.7091V6.0932H99.4591ZM103.732 7.29547H102.982V8.1626L103.84 8.03764L103.732 7.29547ZM105.332 7.06253L105.44 7.8047L106.082 7.71122V7.06253H105.332ZM104.979 5.22155L104.466 5.76933L104.472 5.77475L104.979 5.22155ZM98.2199 5.22155L97.7135 4.66831L97.7076 4.67379L98.2199 5.22155ZM98.2274 11.0826L97.721 11.6358L97.721 11.6358L98.2274 11.0826ZM104.979 11.0826L105.485 11.6359L105.492 11.63L104.979 11.0826ZM105.332 9.09888H106.082V8.48523L105.48 8.36373L105.332 9.09888ZM103.732 8.77577L103.881 8.04062L102.982 7.85913V8.77577H103.732ZM103.732 10.1584V10.9084H104.482V10.1584H103.732ZM99.4591 10.1584H98.7091V10.9084H99.4591V10.1584ZM116.536 10.1584V10.9084H117.286V10.1584H116.536ZM111.295 10.1584H110.545V10.9084H111.295V10.1584ZM116.536 6.0932H117.286V5.3432H116.536V6.0932ZM111.295 6.0932V5.3432H110.545V6.0932H111.295ZM110.055 5.22155L109.543 4.67379L109.543 4.6738L110.055 5.22155ZM117.776 5.22155L117.257 5.76367L117.263 5.76929L117.776 5.22155ZM117.768 11.0826L117.262 10.5294L117.256 10.5349L117.768 11.0826ZM110.055 11.0826L109.543 11.6304L109.543 11.6304L110.055 11.0826ZM124.347 6.01805V5.26805H123.597V6.01805H124.347ZM128.53 6.13828L128.061 6.72381L128.068 6.72935L128.075 6.73472L128.53 6.13828ZM128.53 7.70124L128.075 7.1048L128.068 7.11017L128.061 7.11571L128.53 7.70124ZM124.347 7.82147H123.597V8.57147H124.347V7.82147ZM122.785 11.4057H122.035V12.1557H122.785V11.4057ZM122.785 4.89844V4.14844H122.035V4.89844H122.785ZM124.347 11.4057V12.1557H125.097V11.4057H124.347ZM124.347 8.94108V8.19108H123.597V8.94108H124.347ZM125.841 8.94108L126.344 8.38475L126.13 8.19108H125.841V8.94108ZM128.567 11.4057L128.064 11.9621L128.278 12.1557H128.567V11.4057ZM130.843 11.4057V12.1557H132.988L131.31 10.8191L130.843 11.4057ZM127.749 8.94108V8.19108H125.603L127.281 9.52771L127.749 8.94108ZM129.806 8.64803L129.333 8.06608L129.333 8.06608L129.806 8.64803ZM129.806 5.19901L129.326 5.77507L129.333 5.78096L129.806 5.19901ZM134.71 4.89844V4.14844H133.96V4.89844H134.71ZM134.71 11.4057H133.96V12.1557H134.71V11.4057ZM141.732 5.19901L141.246 5.77003L141.252 5.77556L141.259 5.78095L141.732 5.19901ZM141.732 8.57289L142.205 9.15489L142.212 9.14891L141.732 8.57289ZM136.272 8.86594V8.11594H135.522V8.86594H136.272ZM136.272 11.4057V12.1557H137.022V11.4057H136.272ZM136.272 6.01805V5.26805H135.522V6.01805H136.272ZM136.272 7.74632H135.522V8.49632H136.272V7.74632ZM140.455 7.6261L140.001 7.02966L139.994 7.03503L139.987 7.04057L140.455 7.6261ZM140.455 6.13828L139.987 6.72381L139.994 6.72935L140.001 6.73472L140.455 6.13828ZM34.0204 6.81314H38.493V5.31314H34.0204V6.81314ZM34.7704 7.43824V6.06314H33.2704V7.43824H34.7704ZM38.2529 6.68824H34.0204V8.18824H38.2529V6.68824ZM40.1087 7.21379C39.865 6.98574 39.5589 6.86096 39.2631 6.78982C38.9626 6.71753 38.621 6.68824 38.2529 6.68824V8.18824C38.5502 8.18824 38.7651 8.2128 38.9123 8.24822C39.0643 8.28478 39.0971 8.32156 39.0836 8.30891L40.1087 7.21379ZM40.6914 8.97114C40.6914 8.33711 40.5808 7.64539 40.1022 7.20782L39.0901 8.31489C39.073 8.29928 39.1017 8.31469 39.1338 8.42739C39.1661 8.54051 39.1914 8.71596 39.1914 8.97114H40.6914ZM40.6914 9.86533V8.97114H39.1914V9.86533H40.6914ZM40.0953 11.6357C40.5759 11.1954 40.6914 10.5056 40.6914 9.86533H39.1914C39.1914 10.1193 39.1657 10.2945 39.1328 10.408C39.1002 10.5205 39.0702 10.5404 39.082 10.5296L40.0953 11.6357ZM38.2529 12.1557C38.9285 12.1557 39.6346 12.0576 40.0953 11.6357L39.082 10.5296C39.0899 10.5224 39.0519 10.5597 38.902 10.596C38.756 10.6313 38.5443 10.6557 38.2529 10.6557V12.1557ZM34.0354 12.1557H38.2529V10.6557H34.0354V12.1557ZM32.1688 11.6409C32.634 12.0582 33.3472 12.1557 34.0354 12.1557V10.6557C33.7356 10.6557 33.5163 10.6312 33.3638 10.5951C33.2069 10.558 33.1645 10.5191 33.1704 10.5243L32.1688 11.6409ZM31.5669 9.86533C31.5669 10.5056 31.6823 11.1954 32.163 11.6357L33.1762 10.5296C33.1881 10.5404 33.158 10.5205 33.1254 10.408C33.0925 10.2945 33.0669 10.1193 33.0669 9.86533H31.5669ZM31.5669 9.68499V9.86533H33.0669V9.68499H31.5669ZM33.5903 8.68469L32.1795 8.94769L32.4543 10.4223L33.8652 10.1593L33.5903 8.68469ZM34.4777 10.1884V9.42199H32.9777V10.1884H34.4777ZM38.508 9.43844H33.7277V10.9384H38.508V9.43844ZM37.758 8.70063V10.1884H39.258V8.70063H37.758ZM34.2981 9.45063H38.508V7.95063H34.2981V9.45063ZM32.4406 8.93054C32.6851 9.1545 32.9901 9.2783 33.2868 9.34927C33.588 9.42131 33.9298 9.45063 34.2981 9.45063V7.95063C34.0009 7.95063 33.7849 7.9261 33.6358 7.89043C33.4823 7.8537 33.4446 7.81594 33.4539 7.82449L32.4406 8.93054ZM31.8446 7.16022C31.8446 7.8006 31.9621 8.48204 32.4343 8.9247L33.4602 7.83034C33.4669 7.83667 33.4358 7.81184 33.4031 7.69916C33.3701 7.58511 33.3446 7.41099 33.3446 7.16022H31.8446ZM31.8446 6.43134V7.16022H33.3446V6.43134H31.8446ZM32.4406 4.67604C31.9619 5.11463 31.8446 5.7964 31.8446 6.43134H33.3446C33.3446 6.18335 33.37 6.01272 33.4024 5.90231C33.4343 5.79349 33.4639 5.77295 33.4539 5.78209L32.4406 4.67604ZM34.2981 4.14844C33.6138 4.14844 32.8968 4.24839 32.4343 4.68188L33.4602 5.77624C33.4513 5.78455 33.4882 5.74665 33.6396 5.70959C33.7872 5.67347 34.0018 5.64844 34.2981 5.64844V4.14844ZM38.1553 4.14844H34.2981V5.64844H38.1553V4.14844ZM39.9928 4.64992C39.5303 4.24469 38.8315 4.14844 38.1553 4.14844V5.64844C38.4475 5.64844 38.6616 5.67233 38.8111 5.70746C38.9647 5.74353 39.0084 5.78165 39.0044 5.77815L39.9928 4.64992ZM40.6163 6.31111C40.6163 5.70315 40.4795 5.05742 39.9803 4.63914L39.0169 5.78893C39.0173 5.78919 39.0183 5.79007 39.02 5.79208C39.0218 5.79413 39.0249 5.79792 39.0289 5.80416C39.037 5.8167 39.0498 5.84046 39.0633 5.88069C39.0913 5.96446 39.1163 6.10175 39.1163 6.31111H40.6163ZM40.6163 6.46891V6.31111H39.1163V6.46891H40.6163ZM38.6495 7.49545L40.0228 7.20239L39.7098 5.73542L38.3365 6.02848L38.6495 7.49545ZM37.743 6.06314V6.76196H39.243V6.06314H37.743ZM49.2239 11.4057V6.06314H47.7239V11.4057H49.2239ZM46.8904 12.1557H48.4739V10.6557H46.8904V12.1557ZM46.1404 6.06314V11.4057H47.6404V6.06314H46.1404ZM43.7536 6.81314H46.8904V5.31314H43.7536V6.81314ZM43.0036 4.89844V6.06314H44.5036V4.89844H43.0036ZM51.6182 4.14844H43.7536V5.64844H51.6182V4.14844ZM52.3682 6.06314V4.89844H50.8682V6.06314H52.3682ZM48.4739 6.81314H51.6182V5.31314H48.4739V6.81314ZM54.117 11.7882L57.9742 5.28087L56.6839 4.51601L52.8266 11.0233L54.117 11.7882ZM55.0552 10.6557H53.4718V12.1557H55.0552V10.6557ZM55.2224 9.6052L54.4045 11.0329L55.706 11.7786L56.524 10.3509L55.2224 9.6052ZM59.2284 9.22804H55.8732V10.728H59.2284V9.22804ZM57.9124 9.1555L58.5731 10.3427L59.8838 9.61335L59.2231 8.4261L57.9124 9.1555ZM56.5486 9.5408H58.5677V8.0408H56.5486V9.5408ZM57.3519 5.72208L55.8885 8.43471L57.2087 9.14688L58.672 6.43425L57.3519 5.72208ZM60.1825 8.42493L58.6667 5.7123L57.3572 6.44404L58.8731 9.15667L60.1825 8.42493ZM59.5248 9.5408H59.5278V8.0408H59.5248V9.5408ZM61.2239 10.3018L60.1802 8.4261L58.8695 9.1555L59.9132 11.0312L61.2239 10.3018ZM60.9204 11.3288L60.9212 11.3284L60.216 10.0045L60.2153 10.0049L60.9204 11.3288ZM61.642 11.0329L61.2186 10.294L59.9171 11.0397L60.3404 11.7786L61.642 11.0329ZM62.7697 10.6557H60.9912V12.1557H62.7697V10.6557ZM58.2099 5.28525L62.1272 11.7926L63.4123 11.0189L59.495 4.51163L58.2099 5.28525ZM57.3291 5.64844H58.8524V4.14844H57.3291V5.64844ZM67.7452 6.8432H72.0152V5.3432H67.7452V6.8432ZM68.4952 10.1584V6.0932H66.9952V10.1584H68.4952ZM72.0152 9.40839H67.7452V10.9084H72.0152V9.40839ZM71.2652 8.77577V10.1584H72.7652V8.77577H71.2652ZM73.7622 8.36375L72.1638 8.04064L71.8666 9.5109L73.465 9.83401L73.7622 8.36375ZM74.3636 9.86533V9.09888H72.8636V9.86533H74.3636ZM73.7738 11.6298C74.246 11.1872 74.3636 10.5057 74.3636 9.86533H72.8636C72.8636 10.1161 72.8381 10.2902 72.805 10.4043C72.7724 10.517 72.7412 10.5418 72.748 10.5355L73.7738 11.6298ZM71.9101 12.1557C72.2783 12.1557 72.6202 12.1264 72.9213 12.0544C73.218 11.9834 73.523 11.8596 73.7675 11.6357L72.7543 10.5296C72.7636 10.5211 72.7259 10.5588 72.5724 10.5955C72.4232 10.6312 72.2072 10.6557 71.9101 10.6557V12.1557ZM67.8502 12.1557H71.9101V10.6557H67.8502V12.1557ZM66.0078 11.6357C66.4684 12.0576 67.1746 12.1557 67.8502 12.1557V10.6557C67.5588 10.6557 67.3471 10.6313 67.2011 10.596C67.0512 10.5597 67.0132 10.5224 67.0211 10.5296L66.0078 11.6357ZM65.4117 9.86533C65.4117 10.5056 65.5272 11.1954 66.0078 11.6357L67.0211 10.5296C67.0329 10.5404 67.0029 10.5205 66.9703 10.408C66.9374 10.2944 66.9117 10.1193 66.9117 9.86533H65.4117ZM65.4117 6.43134V9.86533H66.9117V6.43134H65.4117ZM65.9944 4.67399C65.5244 5.11392 65.4117 5.797 65.4117 6.43134H66.9117C66.9117 6.17934 66.9368 6.00493 66.9692 5.89134C67.0014 5.77851 67.0313 5.75806 67.0194 5.76911L65.9944 4.67399ZM67.8502 4.14844C67.1714 4.14844 66.4616 4.24595 66.0003 4.66852L67.0135 5.77457C67.005 5.78245 67.0428 5.74491 67.1945 5.70842C67.3421 5.67292 67.5559 5.64844 67.8502 5.64844V4.14844ZM71.9101 4.14844H67.8502V5.64844H71.9101V4.14844ZM73.7734 4.67399C73.529 4.44525 73.2215 4.32069 72.9251 4.24979C72.6236 4.17768 72.2803 4.14844 71.9101 4.14844V5.64844C72.2102 5.64844 72.4273 5.67305 72.5761 5.70864C72.73 5.74545 72.7626 5.78244 72.7484 5.76911L73.7734 4.67399ZM74.3636 6.43134C74.3636 5.79375 74.2472 5.10798 73.7675 4.66852L72.7543 5.77457C72.7434 5.76458 72.7731 5.78482 72.8054 5.89547C72.838 6.00746 72.8636 6.18036 72.8636 6.43134H74.3636ZM74.3636 7.06253V6.43134H72.8636V7.06253H74.3636ZM72.1233 8.03763L73.7217 7.80469L73.5054 6.32037L71.907 6.55331L72.1233 8.03763ZM71.2652 6.0932V7.29547H72.7652V6.0932H71.2652ZM78.8963 11.4057V4.89844H77.3963V11.4057H78.8963ZM79.7222 10.6557H78.1463V12.1557H79.7222V10.6557ZM78.9722 4.89844V11.4057H80.4722V4.89844H78.9722ZM78.1463 5.64844H79.7222V4.14844H78.1463V5.64844ZM86.7615 4.51601L82.9042 11.0233L84.1946 11.7882L88.0518 5.28087L86.7615 4.51601ZM88.9301 4.14844H87.4067V5.64844H88.9301V4.14844ZM93.4899 11.0189L89.5726 4.51163L88.2875 5.28525L92.2048 11.7926L93.4899 11.0189ZM91.0688 12.1557H92.8474V10.6557H91.0688V12.1557ZM89.7983 10.6969L90.4181 11.7786L91.7196 11.0329L91.0999 9.95123L89.7983 10.6969ZM88.9454 9.15356L89.7927 10.6868L91.1055 9.96132L90.2582 8.42804L88.9454 9.15356ZM89.6055 8.0408H89.6018V9.5408H89.6055V8.0408ZM88.6197 8.5642L88.9508 9.15667L90.2602 8.42493L89.9291 7.83247L88.6197 8.5642ZM88.5777 8.4883L88.6179 8.56108L89.9308 7.83559L89.8906 7.76281L88.5777 8.4883ZM89.5887 8.78647L89.589 8.78629L88.8793 7.46482L88.8789 7.46501L89.5887 8.78647ZM87.4349 6.44404L88.5791 8.49161L89.8885 7.75987L88.7443 5.7123L87.4349 6.44404ZM87.2863 9.14689L88.7497 6.43426L87.4295 5.72208L85.9661 8.43471L87.2863 9.14689ZM88.6813 8.0408H86.6262V9.5408H88.6813V8.0408ZM89.9939 9.61529L89.3378 8.42804L88.0249 9.15356L88.681 10.3408L89.9939 9.61529ZM85.9508 10.728H89.3374V9.22804H85.9508V10.728ZM85.7836 11.7786L86.6016 10.3509L85.3001 9.6052L84.4821 11.0329L85.7836 11.7786ZM83.5494 12.1557H85.1329V10.6557H83.5494V12.1557ZM103.732 5.3432H99.4591V6.8432H103.732V5.3432ZM104.482 7.29547V6.0932H102.982V7.29547H104.482ZM105.224 6.32036L103.624 6.5533L103.84 8.03764L105.44 7.8047L105.224 6.32036ZM104.582 6.43134V7.06253H106.082V6.43134H104.582ZM104.472 5.77475C104.462 5.7648 104.491 5.78503 104.524 5.89561C104.556 6.00755 104.582 6.18039 104.582 6.43134H106.082C106.082 5.79364 105.965 5.10778 105.485 4.66834L104.472 5.77475ZM103.627 5.64844C103.927 5.64844 104.145 5.67305 104.294 5.70867C104.448 5.7455 104.481 5.78255 104.466 5.76929L105.491 4.6738C105.247 4.44514 104.939 4.32063 104.642 4.24976C104.341 4.17767 103.997 4.14844 103.627 4.14844V5.64844ZM99.5642 5.64844H103.627V4.14844H99.5642V5.64844ZM98.7264 5.77475C98.7178 5.78256 98.7558 5.74496 98.9078 5.70845C99.0555 5.67292 99.2696 5.64844 99.5642 5.64844V4.14844C98.885 4.14844 98.1749 4.24593 97.7135 4.66834L98.7264 5.77475ZM98.6245 6.43134C98.6245 6.17937 98.6496 6.00501 98.682 5.89148C98.7142 5.77873 98.744 5.75828 98.7322 5.7693L97.7076 4.67379C97.2373 5.11372 97.1245 5.79689 97.1245 6.43134H98.6245ZM98.6245 9.86533V6.43134H97.1245V9.86533H98.6245ZM98.7339 10.5294C98.7457 10.5402 98.7156 10.5203 98.683 10.4079C98.6501 10.2944 98.6245 10.1193 98.6245 9.86533H97.1245C97.1245 10.5057 97.2401 11.1956 97.721 11.6358L98.7339 10.5294ZM99.5642 10.6557C99.2725 10.6557 99.0606 10.6313 98.9143 10.596C98.7642 10.5597 98.7261 10.5223 98.7338 10.5294L97.721 11.6358C98.1818 12.0577 98.8882 12.1557 99.5642 12.1557V10.6557ZM103.627 10.6557H99.5642V12.1557H103.627V10.6557ZM104.472 10.5294C104.482 10.5209 104.444 10.5588 104.29 10.5955C104.141 10.6312 103.924 10.6557 103.627 10.6557V12.1557C103.995 12.1557 104.337 12.1264 104.639 12.0544C104.936 11.9835 105.241 11.8597 105.485 11.6358L104.472 10.5294ZM104.582 9.86533C104.582 10.1161 104.556 10.2901 104.523 10.4041C104.491 10.5167 104.459 10.5416 104.466 10.5353L105.492 11.63C105.964 11.1873 106.082 10.5058 106.082 9.86533H104.582ZM104.582 9.09888V9.86533H106.082V9.09888H104.582ZM103.584 9.51092L105.183 9.83403L105.48 8.36373L103.881 8.04062L103.584 9.51092ZM104.482 10.1584V8.77577H102.982V10.1584H104.482ZM99.4591 10.9084H103.732V9.40839H99.4591V10.9084ZM98.7091 6.0932V10.1584H100.209V6.0932H98.7091ZM116.536 9.40839H111.295V10.9084H116.536V9.40839ZM115.786 6.0932V10.1584H117.286V6.0932H115.786ZM111.295 6.8432H116.536V5.3432H111.295V6.8432ZM112.045 10.1584V6.0932H110.545V10.1584H112.045ZM109.543 4.6738C109.073 5.11372 108.96 5.79689 108.96 6.43134H110.46C110.46 6.17937 110.485 6.00501 110.518 5.89148C110.55 5.77872 110.58 5.75827 110.568 5.76929L109.543 4.6738ZM111.4 4.14844C111.031 4.14844 110.69 4.17772 110.389 4.24999C110.093 4.3211 109.787 4.44583 109.543 4.67379L110.568 5.7693C110.554 5.78186 110.587 5.74504 110.74 5.70845C110.887 5.673 111.102 5.64844 111.4 5.64844V4.14844ZM116.431 4.14844H111.4V5.64844H116.431V4.14844ZM118.294 4.67946C118.05 4.44652 117.741 4.321 117.446 4.24998C117.145 4.17764 116.802 4.14844 116.431 4.14844V5.64844C116.732 5.64844 116.948 5.67309 117.095 5.70845C117.248 5.74513 117.276 5.78117 117.257 5.76364L118.294 4.67946ZM118.871 6.43134C118.871 5.79689 118.758 5.11372 118.288 4.6738L117.263 5.76929C117.251 5.75827 117.281 5.77872 117.313 5.89148C117.346 6.00501 117.371 6.17937 117.371 6.43134H118.871ZM118.871 9.86533V6.43134H117.371V9.86533H118.871ZM118.274 11.6358C118.755 11.1956 118.871 10.5057 118.871 9.86533H117.371C117.371 10.1193 117.345 10.2944 117.312 10.4079C117.28 10.5203 117.25 10.5402 117.262 10.5294L118.274 11.6358ZM116.431 12.1557C116.797 12.1557 117.138 12.1264 117.437 12.054C117.733 11.9826 118.037 11.8577 118.28 11.6304L117.256 10.5349C117.268 10.523 117.235 10.5596 117.085 10.596C116.939 10.6312 116.726 10.6557 116.431 10.6557V12.1557ZM111.4 12.1557H116.431V10.6557H111.4V12.1557ZM109.543 11.6304C109.787 11.8584 110.093 11.9831 110.389 12.0542C110.69 12.1265 111.031 12.1557 111.4 12.1557V10.6557C111.102 10.6557 110.887 10.6312 110.74 10.5957C110.587 10.5591 110.554 10.5223 110.568 10.5349L109.543 11.6304ZM108.96 9.86533C108.96 10.5025 109.072 11.1896 109.543 11.6304L110.568 10.5349C110.58 10.5468 110.55 10.5266 110.518 10.412C110.485 10.2969 110.46 10.1203 110.46 9.86533H108.96ZM108.96 6.43134V9.86533H110.46V6.43134H108.96ZM127.966 5.26805H124.347V6.76805H127.966V5.26805ZM128.998 5.55275C128.823 5.41256 128.626 5.34794 128.47 5.31464C128.308 5.28001 128.136 5.26805 127.966 5.26805V6.76805C128.018 6.76805 128.059 6.76993 128.092 6.77278C128.125 6.77565 128.146 6.77922 128.157 6.78159C128.169 6.78405 128.164 6.78412 128.149 6.77775C128.134 6.77142 128.101 6.75572 128.061 6.72381L128.998 5.55275ZM129.437 6.54405C129.437 6.22781 129.347 5.81859 128.984 5.54185L128.075 6.73472C128.007 6.68304 127.968 6.6196 127.949 6.57154C127.933 6.53019 127.937 6.51436 127.937 6.54405H129.437ZM129.437 7.29547V6.54405H127.937V7.29547H129.437ZM128.984 8.29767C129.347 8.02093 129.437 7.61172 129.437 7.29547H127.937C127.937 7.32516 127.933 7.30933 127.949 7.26798C127.968 7.21992 128.007 7.15648 128.075 7.1048L128.984 8.29767ZM127.966 8.57147C128.136 8.57147 128.308 8.55951 128.47 8.52489C128.626 8.49158 128.823 8.42696 128.998 8.28677L128.061 7.11571C128.101 7.0838 128.134 7.0681 128.149 7.06177C128.164 7.0554 128.169 7.05547 128.157 7.05793C128.146 7.0603 128.125 7.06387 128.092 7.06674C128.059 7.06959 128.018 7.07147 127.966 7.07147V8.57147ZM124.347 8.57147H127.966V7.07147H124.347V8.57147ZM123.597 6.01805V7.82147H125.097V6.01805H123.597ZM123.535 11.4057V4.89844H122.035V11.4057H123.535ZM124.347 10.6557H122.785V12.1557H124.347V10.6557ZM123.597 8.94108V11.4057H125.097V8.94108H123.597ZM125.841 8.19108H124.347V9.69108H125.841V8.19108ZM129.07 10.8494L126.344 8.38475L125.338 9.49742L128.064 11.9621L129.07 10.8494ZM130.843 10.6557H128.567V12.1557H130.843V10.6557ZM127.281 9.52771L130.375 11.9924L131.31 10.8191L128.216 8.35445L127.281 9.52771ZM128.642 8.19108H127.749V9.69108H128.642V8.19108ZM129.333 8.06608C129.294 8.0979 129.119 8.19108 128.642 8.19108V9.69108C129.237 9.69108 129.838 9.5889 130.279 9.22998L129.333 8.06608ZM129.417 7.69372C129.417 8.00853 129.333 8.06595 129.333 8.06608L130.279 9.22998C130.76 8.83937 130.917 8.26059 130.917 7.69372H129.417ZM129.417 6.16083V7.69372H130.917V6.16083H129.417ZM129.333 5.78096C129.339 5.78597 129.356 5.80009 129.374 5.8492C129.395 5.90418 129.417 6.00203 129.417 6.16083H130.917C130.917 5.59231 130.762 5.00915 130.279 4.61705L129.333 5.78096ZM128.642 5.64844C129.116 5.64844 129.288 5.7431 129.326 5.77503L130.287 4.62298C129.844 4.25415 129.24 4.14844 128.642 4.14844V5.64844ZM122.785 5.64844H128.642V4.14844H122.785V5.64844ZM133.96 4.89844V11.4057H135.46V4.89844H133.96ZM140.568 4.14844H134.71V5.64844H140.568V4.14844ZM142.218 4.62799C141.777 4.25248 141.166 4.14844 140.568 4.14844V5.64844C141.051 5.64844 141.216 5.74477 141.246 5.77003L142.218 4.62799ZM142.842 6.16083C142.842 5.59231 142.687 5.00915 142.205 4.61706L141.259 5.78095C141.265 5.78597 141.282 5.80009 141.3 5.84919C141.321 5.90418 141.342 6.00203 141.342 6.16083H142.842ZM142.842 7.60355V6.16083H141.342V7.60355H142.842ZM142.212 9.14891C142.687 8.75327 142.842 8.17372 142.842 7.60355H141.342C141.342 7.92507 141.258 7.99174 141.252 7.99686L142.212 9.14891ZM140.568 9.61594C141.162 9.61594 141.764 9.51375 142.205 9.15484L141.259 7.99093C141.22 8.02276 141.045 8.11594 140.568 8.11594V9.61594ZM136.272 9.61594H140.568V8.11594H136.272V9.61594ZM137.022 11.4057V8.86594H135.522V11.4057H137.022ZM134.71 12.1557H136.272V10.6557H134.71V12.1557ZM136.272 6.76805H139.892V5.26805H136.272V6.76805ZM137.022 7.74632V6.01805H135.522V7.74632H137.022ZM139.892 6.99632H136.272V8.49632H139.892V6.99632ZM139.987 7.04057C140.027 7.00865 140.06 6.99296 140.075 6.98662C140.09 6.98026 140.094 6.98033 140.083 6.98279C140.072 6.98516 140.051 6.98873 140.018 6.9916C139.985 6.99445 139.943 6.99632 139.892 6.99632V8.49632C140.062 8.49632 140.234 8.48437 140.396 8.44974C140.552 8.41643 140.749 8.35182 140.924 8.21163L139.987 7.04057ZM139.863 7.22033C139.863 7.25003 139.858 7.23421 139.875 7.19285C139.893 7.14479 139.933 7.08134 140.001 7.02966L140.91 8.22253C141.273 7.94578 141.363 7.53654 141.363 7.22033H139.863ZM139.863 6.54405V7.22033H141.363V6.54405H139.863ZM140.001 6.73472C139.933 6.68304 139.893 6.61959 139.875 6.57152C139.858 6.53017 139.863 6.51435 139.863 6.54405H141.363C141.363 6.22784 141.273 5.8186 140.91 5.54185L140.001 6.73472ZM139.892 6.76805C139.943 6.76805 139.985 6.76993 140.018 6.77278C140.051 6.77565 140.072 6.77922 140.083 6.78159C140.094 6.78405 140.09 6.78412 140.075 6.77775C140.06 6.77142 140.027 6.75572 139.987 6.72381L140.924 5.55275C140.749 5.41256 140.552 5.34795 140.396 5.31464C140.234 5.28001 140.062 5.26805 139.892 5.26805V6.76805Z" fill="#151F43" mask="url(#path-7-inside-1_1216_2021)"/>
</mask>
<g mask="url(#mask0_1216_2021)">
<rect x="0.0942383" y="-0.195312" width="142.678" height="20.3826" fill="#D9D9D9"/>
<rect x="0.0942383" y="-0.195312" width="142.678" height="20.3826" fill="#D9D9D9"/>
</g>
</svg>
