<svg width="266" height="33" viewBox="0 0 266 33" fill="none" xmlns="http://www.w3.org/2000/svg">
<path d="M38.2763 12.5391C37.5366 12.5391 36.8852 13.0392 36.6847 13.7652L33.8572 23.9582C33.6568 24.6769 33.0148 25.1771 32.2799 25.1844L7.97214 25.4126C4.26406 25.4782 1.14536 29.3218 0 32.2938H39.5004C40.2592 32.2938 40.9202 31.7693 41.1063 31.019L42.5093 25.3203H42.5667L43.9243 20.4278C45.0196 16.4822 42.1968 12.5391 38.2763 12.5391Z" fill="white"/>
<path d="M48.0091 0H8.51346C7.75466 0 7.09369 0.524462 6.90758 1.27473L5.50452 6.97341H5.44725L4.08953 11.866C2.99428 15.8116 5.81711 19.7547 9.73756 19.7547C10.4773 19.7547 11.1287 19.2546 11.3291 18.5285L14.1568 8.33555C14.3572 7.61685 14.999 7.11666 15.734 7.10938L40.0417 6.88114C43.7499 6.81558 46.8804 2.97195 48.0258 0H48.0068H48.0091Z" fill="white"/>
<path d="M28.3075 14.1329C29.3611 14.1212 30.3057 13.131 30.6324 12.6094H19.9237C19.2678 12.6094 18.7067 13.0661 18.5837 13.6945L18.5553 13.836H18.5387L17.4424 19.438L17.3904 19.8137C17.3904 19.8137 17.3246 20.2936 17.6082 20.2936V20.2982H29.4462C29.1195 19.7743 28.059 18.8978 27.0053 18.8862H20.8542C19.9634 18.8862 20.0209 18.4225 20.0209 18.4225L20.8542 14.8724C21.0033 14.2788 21.0531 14.1352 21.6782 14.1329H28.3075Z" fill="white"/>
<path fill-rule="evenodd" clip-rule="evenodd" d="M66.8499 15.3158H58.2868V17.9486H66.3901C67.664 17.9486 68.5213 18.1548 68.9619 18.5672C69.4025 18.9699 69.6228 19.742 69.6228 20.8834V22.5953C69.6228 23.7367 69.3977 24.5135 68.9476 24.9259C68.4974 25.3383 67.6449 25.5446 66.3901 25.5446H58.3155C57.032 25.5446 56.1604 25.3383 55.7006 24.9259C55.2504 24.5135 55.0254 23.7367 55.0254 22.5953V22.2501L57.7264 21.7465V23.214H66.8786V20.3655H58.8184C57.5445 20.3655 56.6824 20.1593 56.2323 19.7469C55.7821 19.3248 55.557 18.548 55.557 17.4163V16.0208C55.557 14.8986 55.7821 14.1314 56.2323 13.7189C56.6824 13.2969 57.5445 13.0859 58.8184 13.0859H66.2033C67.4581 13.0859 68.3153 13.2873 68.7752 13.6902C69.2445 14.0834 69.4792 14.7835 69.4792 15.7906V16.0927L66.8499 16.6538V15.3158ZM85.9588 15.3158V25.5446H82.9272V15.3158H76.9216V13.0859H91.9788V15.3158H85.9588ZM102.913 13.0859L95.5276 25.5446H98.5592L100.125 22.8111H106.551L105.287 20.538H101.418L104.22 15.3446L106.152 18.8033L106.153 18.803L106.333 19.1254L107.122 20.538H107.119L109.115 24.1238L109.111 24.1256L109.924 25.5446H113.329L105.829 13.0859H102.913ZM131.03 15.3734H122.855V23.1564H131.03V20.5093L134.09 21.128V22.5953C134.09 23.7271 133.866 24.5039 133.415 24.9259C132.964 25.3383 132.103 25.5446 130.828 25.5446H123.056C121.801 25.5446 120.948 25.3383 120.499 24.9259C120.048 24.5135 119.823 23.7367 119.823 22.5953V16.0208C119.823 14.889 120.044 14.117 120.484 13.7046C120.935 13.2922 121.791 13.0859 123.056 13.0859H130.828C132.113 13.0859 132.975 13.2922 133.415 13.7046C133.866 14.117 134.09 14.889 134.09 16.0208V17.2292L131.03 17.6752V15.3734ZM142.768 13.0859V25.5446H145.786V13.0859H142.768ZM153.113 25.5446L160.498 13.0859H163.415L170.914 25.5446H167.51L166.419 23.6424L164.703 20.538H164.708L164.383 19.957L163.996 19.2582L163.993 19.26L161.806 15.3446L159.004 20.538H162.942L164.198 22.8111H157.711L156.145 25.5446H153.113Z" fill="white"/>
<path fill-rule="evenodd" clip-rule="evenodd" d="M191.69 15.3734H183.509V23.1564H191.69V20.5093L194.752 21.128V22.5953C194.752 23.7271 194.526 24.5039 194.076 24.9259C193.626 25.3383 192.763 25.5446 191.488 25.5446H183.709C182.454 25.5446 181.601 25.3383 181.15 24.9259C180.699 24.5135 180.475 23.7367 180.475 22.5953V16.0208C180.475 14.889 180.695 14.117 181.136 13.7046C181.587 13.2922 182.445 13.0859 183.709 13.0859H191.488C192.772 13.0859 193.636 13.2922 194.076 13.7046C194.526 14.117 194.752 14.889 194.752 16.0208V17.2292L191.69 17.6752V15.3734ZM206.168 23.1564H216.204V15.3734H206.168V23.1564ZM203.135 16.0208C203.135 14.889 203.355 14.117 203.795 13.7046C204.237 13.2922 205.095 13.0859 206.369 13.0859H216.002C217.287 13.0859 218.145 13.2922 218.576 13.7046C219.018 14.117 219.238 14.889 219.238 16.0208V22.5953C219.238 23.7367 219.012 24.5135 218.562 24.9259C218.122 25.3383 217.268 25.5446 216.002 25.5446H206.369C205.095 25.5446 204.237 25.3383 203.795 24.9259C203.355 24.5135 203.135 23.7367 203.135 22.5953V16.0208ZM231.157 15.2295H238.088C238.614 15.2295 238.974 15.3062 239.166 15.4597C239.367 15.6132 239.468 15.8721 239.468 16.2366V17.6752C239.468 18.0396 239.367 18.2986 239.166 18.4521C238.974 18.6055 238.614 18.6822 238.088 18.6822H231.157V15.2295ZM228.166 13.0859V25.5446H231.157V20.8258H234.018L239.238 25.5446H243.594L237.671 20.8258H239.381C240.407 20.8258 241.15 20.6388 241.61 20.2647C242.07 19.8907 242.3 19.2817 242.3 18.4377V15.5029C242.3 14.6493 242.07 14.0354 241.61 13.6614C241.15 13.2778 240.407 13.0859 239.381 13.0859H228.166ZM250.998 25.5446V13.0859H262.214C263.249 13.0859 263.992 13.2778 264.442 13.6614C264.903 14.0354 265.133 14.6493 265.133 15.5029V18.2651C265.133 19.1186 264.903 19.7373 264.442 20.1209C263.982 20.4949 263.239 20.682 262.214 20.682H253.989V25.5446H250.998ZM260.92 15.2295H253.989V18.5384H260.92C261.447 18.5384 261.806 18.4617 261.998 18.3082C262.2 18.1548 262.3 17.8958 262.3 17.5313V16.2366C262.3 15.8721 262.2 15.6132 261.998 15.4597C261.806 15.3062 261.447 15.2295 260.92 15.2295Z" fill="white"/>
<path d="M171.982 6.74609C169.955 6.74609 168.305 8.39593 168.288 10.4151C168.28 11.4001 168.658 12.3359 169.355 13.0336C170.045 13.7395 170.972 14.1252 171.958 14.1334H171.982C174.009 14.1334 175.66 12.4836 175.676 10.4644C175.692 8.42876 174.042 6.76251 171.982 6.74609ZM171.982 13.6328H171.958C171.104 13.6245 170.307 13.288 169.7 12.6806C169.109 12.0814 168.781 11.277 168.79 10.4233C168.797 8.67502 170.233 7.24679 172.006 7.24679C173.772 7.255 175.191 8.69964 175.183 10.4644C175.167 12.2127 173.731 13.6328 171.982 13.6328Z" fill="white" stroke="white" stroke-width="0.316601"/>
<path d="M173.517 9.80193C173.517 9.12065 172.959 8.5625 172.277 8.5625H170.997C170.865 8.5625 170.759 8.6692 170.759 8.80053V12.1823C170.759 12.3136 170.865 12.4203 170.997 12.4203C171.128 12.4203 171.235 12.3136 171.235 12.1823V9.03857H172.277C172.696 9.03857 173.04 9.38331 173.04 9.80193C173.04 10.2205 172.696 10.5653 172.277 10.5653H171.982C171.884 10.5653 171.801 10.6227 171.76 10.7048C171.719 10.7951 171.736 10.8936 171.801 10.9593L173.049 12.3054C173.14 12.4039 173.287 12.4039 173.386 12.3218C173.484 12.2315 173.484 12.0838 173.402 11.9853L172.507 11.0167C173.082 10.91 173.517 10.4093 173.517 9.80193Z" fill="white" stroke="white" stroke-width="0.316601"/>
</svg>
