<svg width="143" height="20" viewBox="0 0 143 20" fill="none" xmlns="http://www.w3.org/2000/svg">
<path d="M23.712 7.76562C23.2538 7.76562 22.8502 8.07549 22.7261 8.52524L20.9744 14.8398C20.8502 15.285 20.4525 15.5949 19.9973 15.5994L4.93862 15.7408C2.64146 15.7814 0.709424 18.1625 -0.00012207 20.0037H24.4704C24.9404 20.0037 25.3499 19.6788 25.4652 19.214L26.3344 15.6837H26.3699L27.211 12.6527C27.8895 10.2084 26.1407 7.76562 23.712 7.76562Z" fill="#151F43"/>
<path d="M29.7424 0H5.27489C4.80481 0 4.39534 0.324904 4.28004 0.789697L3.41085 4.32002H3.37537L2.53426 7.35095C1.85576 9.79525 3.6045 12.238 6.03321 12.238C6.49146 12.238 6.89502 11.9282 7.01919 11.4784L8.77088 5.16386C8.89505 4.71863 9.29269 4.40876 9.74798 4.40425L24.8066 4.26286C27.1038 4.22225 29.0432 1.84112 29.7528 0H29.7409L29.7424 0Z" fill="#151F43"/>
<path d="M17.5363 8.75239C18.189 8.74521 18.7742 8.1318 18.9766 7.80859H12.3425C11.9362 7.80859 11.5886 8.09158 11.5124 8.48086L11.4948 8.56848H11.4845L10.8054 12.039L10.7731 12.2717C10.7731 12.2717 10.7324 12.569 10.9081 12.569V12.5719H18.2417C18.0393 12.2472 17.3823 11.7043 16.7296 11.6971H12.919C12.3671 11.6971 12.4027 11.4098 12.4027 11.4098L12.919 9.21058C13.0114 8.84284 13.0422 8.75383 13.4294 8.75239H17.5363Z" fill="#1C39BB"/>
<line x1="32.3169" y1="15.4883" x2="51.2968" y2="15.4883" stroke="#00092A"/>
<line x1="123.01" y1="15.4883" x2="141.99" y2="15.4883" stroke="#00092A"/>
<path d="M56.8918 17.2196V15.1016H57.3848V17.2196H56.8918Z" fill="#00092A"/>
<path d="M59.0784 17.2196V15.1016H59.415L60.9058 16.3499C60.9566 16.3913 61.0014 16.4307 61.0401 16.4681C61.0788 16.5042 61.1142 16.5416 61.1463 16.5804C61.1383 16.4615 61.1329 16.3773 61.1303 16.3279C61.1276 16.2785 61.1263 16.2404 61.1263 16.2137V15.1016H61.5691V17.2196H61.2325L59.6775 15.9111C59.6401 15.8777 59.6074 15.8476 59.5793 15.8209C59.5513 15.7942 59.5252 15.7668 59.5012 15.7388C59.5079 15.8042 59.5125 15.8663 59.5152 15.9251C59.5192 15.9826 59.5212 16.0327 59.5212 16.0754V17.2196H59.0784Z" fill="#00092A"/>
<path d="M63.2607 17.2196V15.1016H63.5973L65.0881 16.3499C65.1389 16.3913 65.1837 16.4307 65.2224 16.4681C65.2611 16.5042 65.2965 16.5416 65.3286 16.5804C65.3206 16.4615 65.3152 16.3773 65.3126 16.3279C65.3099 16.2785 65.3086 16.2404 65.3086 16.2137V15.1016H65.7514V17.2196H65.4148L63.8598 15.9111C63.8224 15.8777 63.7897 15.8476 63.7616 15.8209C63.7336 15.7942 63.7075 15.7668 63.6835 15.7388C63.6902 15.8042 63.6948 15.8663 63.6975 15.9251C63.7015 15.9826 63.7035 16.0327 63.7035 16.0754V17.2196H63.2607Z" fill="#00092A"/>
<path d="M67.4029 15.6025C67.4029 15.4101 67.439 15.2786 67.5111 15.2078C67.5833 15.137 67.7222 15.1016 67.9279 15.1016H69.4869C69.6926 15.1016 69.8315 15.137 69.9037 15.2078C69.9758 15.2786 70.0119 15.4101 70.0119 15.6025V16.7186C70.0119 16.9123 69.9758 17.0446 69.9037 17.1154C69.8315 17.1848 69.6926 17.2196 69.4869 17.2196H67.9279C67.7222 17.2196 67.5833 17.1848 67.5111 17.1154C67.439 17.0446 67.4029 16.9123 67.4029 16.7186V15.6025ZM67.8959 16.8208H69.5209V15.4803H67.8959V16.8208Z" fill="#00092A"/>
<path d="M72.3807 17.2196L71.1564 15.1016H71.7195L72.5771 16.6325L73.3947 15.1016H73.8856L72.7214 17.2196H72.3807Z" fill="#00092A"/>
<path d="M75.473 16.374H76.4007L75.9439 15.5123L75.473 16.374ZM74.5252 17.2196L75.7235 15.1016H76.1984L77.4127 17.2196H76.8596L76.6051 16.7567H75.2626L75.0161 17.2196H74.5252Z" fill="#00092A"/>
<path d="M79.4168 15.4803V17.2196H78.9239V15.4803H77.9521V15.1016H80.3927V15.4803H79.4168Z" fill="#00092A"/>
<path d="M81.6114 17.2196V15.1016H82.1043V17.2196H81.6114Z" fill="#00092A"/>
<path d="M83.7979 17.2196V15.1016H84.1346L85.6254 16.3499C85.6761 16.3913 85.7209 16.4307 85.7596 16.4681C85.7984 16.5042 85.8338 16.5416 85.8658 16.5804C85.8578 16.4615 85.8525 16.3773 85.8498 16.3279C85.8471 16.2785 85.8458 16.2404 85.8458 16.2137V15.1016H86.2886V17.2196H85.952L84.3971 15.9111C84.3597 15.8777 84.3269 15.8476 84.2989 15.8209C84.2708 15.7942 84.2448 15.7668 84.2207 15.7388C84.2274 15.8042 84.2321 15.8663 84.2348 15.9251C84.2388 15.9826 84.2408 16.0327 84.2408 16.0754V17.2196H83.7979Z" fill="#00092A"/>
<path d="M89.972 15.4803H88.4331V16.8208H89.972V16.3499H89.1665V15.9892H90.4509V16.7186C90.4509 16.9123 90.4148 17.0446 90.3427 17.1154C90.2706 17.1848 90.1316 17.2196 89.9259 17.2196H88.4652C88.2594 17.2196 88.1205 17.1848 88.0484 17.1154C87.9762 17.0446 87.9402 16.9123 87.9402 16.7186V15.6025C87.9402 15.4101 87.9762 15.2786 88.0484 15.2078C88.1205 15.137 88.2594 15.1016 88.4652 15.1016H89.9259C90.129 15.1016 90.2672 15.1363 90.3407 15.2058C90.4142 15.2752 90.4509 15.4008 90.4509 15.5825V15.6306L89.972 15.7167V15.4803Z" fill="#00092A"/>
<path d="M94.317 17.2196V15.1016H96.4591V15.4723H94.81V16.0293H95.7016V16.416H94.81V17.2196H94.317Z" fill="#00092A"/>
<path d="M97.6417 15.6025C97.6417 15.4101 97.6778 15.2786 97.7499 15.2078C97.822 15.137 97.961 15.1016 98.1667 15.1016H99.7257C99.9314 15.1016 100.07 15.137 100.142 15.2078C100.215 15.2786 100.251 15.4101 100.251 15.6025V16.7186C100.251 16.9123 100.215 17.0446 100.142 17.1154C100.07 17.1848 99.9314 17.2196 99.7257 17.2196H98.1667C97.961 17.2196 97.822 17.1848 97.7499 17.1154C97.6778 17.0446 97.6417 16.9123 97.6417 16.7186V15.6025ZM98.1346 16.8208H99.7597V15.4803H98.1346V16.8208Z" fill="#00092A"/>
<path d="M103.497 15.4683H102.389V16.0574H103.497C103.583 16.0574 103.641 16.0453 103.672 16.0213C103.704 15.9959 103.72 15.9518 103.72 15.8891V15.6346C103.72 15.5731 103.704 15.5304 103.672 15.5063C103.641 15.4809 103.583 15.4683 103.497 15.4683ZM101.904 17.2196V15.1016H103.716C103.884 15.1016 104.005 15.1343 104.08 15.1997C104.156 15.2639 104.194 15.3681 104.194 15.5123V16.0093C104.194 16.1522 104.156 16.2564 104.08 16.3219C104.005 16.3873 103.884 16.4201 103.716 16.4201H103.439L104.417 17.2196H103.71L102.856 16.4201H102.389V17.2196H101.904Z" fill="#00092A"/>
<path d="M108.608 17.2196V16.2718L107.508 15.1016H108.165L108.892 15.9151L109.622 15.1016H110.201L109.105 16.2598V17.2196H108.608Z" fill="#00092A"/>
<path d="M111.273 15.6025C111.273 15.4101 111.309 15.2786 111.381 15.2078C111.453 15.137 111.592 15.1016 111.798 15.1016H113.357C113.563 15.1016 113.702 15.137 113.774 15.2078C113.846 15.2786 113.882 15.4101 113.882 15.6025V16.7186C113.882 16.9123 113.846 17.0446 113.774 17.1154C113.702 17.1848 113.563 17.2196 113.357 17.2196H111.798C111.592 17.2196 111.453 17.1848 111.381 17.1154C111.309 17.0446 111.273 16.9123 111.273 16.7186V15.6025ZM111.766 16.8208H113.391V15.4803H111.766V16.8208Z" fill="#00092A"/>
<path d="M116.028 15.1016V16.8208H117.433V15.1016H117.924V16.7186C117.924 16.9123 117.888 17.0446 117.816 17.1154C117.744 17.1848 117.605 17.2196 117.399 17.2196H116.061C115.856 17.2196 115.717 17.1848 115.644 17.1154C115.572 17.0446 115.536 16.9123 115.536 16.7186V15.1016H116.028Z" fill="#00092A"/>
<mask id="path-7-inside-1_1313_2123" fill="white">
<path fill-rule="evenodd" clip-rule="evenodd" d="M38.4931 6.06314H34.0205V7.43824H38.253C38.9184 7.43824 39.3661 7.54594 39.5963 7.76135C39.8264 7.97175 39.9415 8.37501 39.9415 8.97114V9.86533C39.9415 10.4615 39.8239 10.8672 39.5888 11.0826C39.3536 11.298 38.9084 11.4057 38.253 11.4057H34.0355C33.3651 11.4057 32.9099 11.298 32.6697 11.0826C32.4346 10.8672 32.317 10.4615 32.317 9.86533V9.68499L33.7278 9.42199V10.1884H38.5081V8.70063H34.2982C33.6328 8.70063 33.1825 8.59292 32.9474 8.37752C32.7122 8.1571 32.5947 7.75133 32.5947 7.16022V6.43134C32.5947 5.84523 32.7122 5.44447 32.9474 5.22906C33.1825 5.00865 33.6328 4.89844 34.2982 4.89844H38.1554C38.8108 4.89844 39.2586 5.00364 39.4987 5.21403C39.7439 5.41942 39.8664 5.78511 39.8664 6.31111V6.46891L38.4931 6.76196V6.06314ZM48.474 6.06314V11.4057H46.8906V6.06314H43.7537V4.89844H51.6183V6.06314H48.474ZM57.3292 4.89844L53.4719 11.4057H55.0553L55.8733 9.97804H59.2286L58.5679 8.7908H56.5487L58.0121 6.07817L59.528 8.7908H59.5249L60.5687 10.6665L60.568 10.6668L60.9913 11.4057H62.7699L58.8526 4.89844H57.3292ZM72.0153 6.0932H67.7453V10.1584H72.0153V8.77577L73.6137 9.09888V9.86533C73.6137 10.4564 73.4961 10.8622 73.261 11.0826C73.0259 11.298 72.5756 11.4057 71.9102 11.4057H67.8503C67.195 11.4057 66.7497 11.298 66.5146 11.0826C66.2794 10.8672 66.1618 10.4615 66.1618 9.86533V6.43134C66.1618 5.84022 66.2769 5.43696 66.5071 5.22155C66.7422 5.00614 67.19 4.89844 67.8503 4.89844H71.9102C72.5806 4.89844 73.0309 5.00614 73.261 5.22155C73.4961 5.43696 73.6137 5.84022 73.6137 6.43134V7.06253L72.0153 7.29547V6.0932ZM78.1464 4.89844V11.4057H79.7223V4.89844H78.1464ZM83.5495 11.4057L87.4068 4.89844H88.9302L92.8475 11.4057H91.0689L90.4492 10.3241L89.6019 8.7908H89.6056L89.2745 8.19833L89.2343 8.12555L89.2339 8.12574L88.0897 6.07817L86.6263 8.7908H88.6815L89.3376 9.97804H85.9509L85.133 11.4057H83.5495ZM99.4592 6.0932H103.732V7.29547L105.332 7.06253V6.43134C105.332 5.84022 105.214 5.43696 104.979 5.22155C104.749 5.00614 104.298 4.89844 103.627 4.89844H99.5643C98.9034 4.89844 98.4554 5.00614 98.2201 5.22155C97.9897 5.43696 97.8746 5.84022 97.8746 6.43134V9.86533C97.8746 10.4615 97.9922 10.8672 98.2276 11.0826C98.4629 11.298 98.9085 11.4057 99.5643 11.4057H103.627C104.293 11.4057 104.744 11.298 104.979 11.0826C105.214 10.8622 105.332 10.4564 105.332 9.86533V9.09888L103.732 8.77577V10.1584H99.4592V6.0932ZM111.295 10.1584H116.537V6.0932H111.295V10.1584ZM109.71 6.43134C109.71 5.84022 109.825 5.43696 110.056 5.22155C110.286 5.00614 110.734 4.89844 111.4 4.89844H116.431C117.102 4.89844 117.55 5.00614 117.776 5.22155C118.006 5.43696 118.121 5.84022 118.121 6.43134V9.86533C118.121 10.4615 118.004 10.8672 117.768 11.0826C117.538 11.298 117.092 11.4057 116.431 11.4057H111.4C110.734 11.4057 110.286 11.298 110.056 11.0826C109.825 10.8672 109.71 10.4615 109.71 9.86533V6.43134ZM124.347 6.01805H127.967C128.242 6.01805 128.43 6.05813 128.53 6.13828C128.635 6.21843 128.688 6.35369 128.688 6.54405V7.29547C128.688 7.48583 128.635 7.62109 128.53 7.70124C128.43 7.78139 128.242 7.82147 127.967 7.82147H124.347V6.01805ZM122.785 4.89844V11.4057H124.347V8.94108H125.841L128.567 11.4057H130.843L127.749 8.94108H128.642C129.178 8.94108 129.566 8.8434 129.806 8.64803C130.047 8.45266 130.167 8.13456 130.167 7.69372V6.16083C130.167 5.71498 130.047 5.39438 129.806 5.19901C129.566 4.99863 129.178 4.89844 128.642 4.89844H122.785ZM134.71 11.4057V4.89844H140.568C141.109 4.89844 141.497 4.99863 141.732 5.19901C141.972 5.39438 142.093 5.71498 142.093 6.16083V7.60355C142.093 8.0494 141.972 8.37251 141.732 8.57289C141.492 8.76826 141.104 8.86594 140.568 8.86594H136.272V11.4057H134.71ZM139.892 6.01805H136.272V7.74632H139.892C140.168 7.74632 140.355 7.70625 140.455 7.6261C140.561 7.54594 140.613 7.41069 140.613 7.22033V6.54405C140.613 6.35369 140.561 6.21843 140.455 6.13828C140.355 6.05813 140.168 6.01805 139.892 6.01805Z"/>
</mask>
<path fill-rule="evenodd" clip-rule="evenodd" d="M38.4931 6.06314H34.0205V7.43824H38.253C38.9184 7.43824 39.3661 7.54594 39.5963 7.76135C39.8264 7.97175 39.9415 8.37501 39.9415 8.97114V9.86533C39.9415 10.4615 39.8239 10.8672 39.5888 11.0826C39.3536 11.298 38.9084 11.4057 38.253 11.4057H34.0355C33.3651 11.4057 32.9099 11.298 32.6697 11.0826C32.4346 10.8672 32.317 10.4615 32.317 9.86533V9.68499L33.7278 9.42199V10.1884H38.5081V8.70063H34.2982C33.6328 8.70063 33.1825 8.59292 32.9474 8.37752C32.7122 8.1571 32.5947 7.75133 32.5947 7.16022V6.43134C32.5947 5.84523 32.7122 5.44447 32.9474 5.22906C33.1825 5.00865 33.6328 4.89844 34.2982 4.89844H38.1554C38.8108 4.89844 39.2586 5.00364 39.4987 5.21403C39.7439 5.41942 39.8664 5.78511 39.8664 6.31111V6.46891L38.4931 6.76196V6.06314ZM48.474 6.06314V11.4057H46.8906V6.06314H43.7537V4.89844H51.6183V6.06314H48.474ZM57.3292 4.89844L53.4719 11.4057H55.0553L55.8733 9.97804H59.2286L58.5679 8.7908H56.5487L58.0121 6.07817L59.528 8.7908H59.5249L60.5687 10.6665L60.568 10.6668L60.9913 11.4057H62.7699L58.8526 4.89844H57.3292ZM72.0153 6.0932H67.7453V10.1584H72.0153V8.77577L73.6137 9.09888V9.86533C73.6137 10.4564 73.4961 10.8622 73.261 11.0826C73.0259 11.298 72.5756 11.4057 71.9102 11.4057H67.8503C67.195 11.4057 66.7497 11.298 66.5146 11.0826C66.2794 10.8672 66.1618 10.4615 66.1618 9.86533V6.43134C66.1618 5.84022 66.2769 5.43696 66.5071 5.22155C66.7422 5.00614 67.19 4.89844 67.8503 4.89844H71.9102C72.5806 4.89844 73.0309 5.00614 73.261 5.22155C73.4961 5.43696 73.6137 5.84022 73.6137 6.43134V7.06253L72.0153 7.29547V6.0932ZM78.1464 4.89844V11.4057H79.7223V4.89844H78.1464ZM83.5495 11.4057L87.4068 4.89844H88.9302L92.8475 11.4057H91.0689L90.4492 10.3241L89.6019 8.7908H89.6056L89.2745 8.19833L89.2343 8.12555L89.2339 8.12574L88.0897 6.07817L86.6263 8.7908H88.6815L89.3376 9.97804H85.9509L85.133 11.4057H83.5495ZM99.4592 6.0932H103.732V7.29547L105.332 7.06253V6.43134C105.332 5.84022 105.214 5.43696 104.979 5.22155C104.749 5.00614 104.298 4.89844 103.627 4.89844H99.5643C98.9034 4.89844 98.4554 5.00614 98.2201 5.22155C97.9897 5.43696 97.8746 5.84022 97.8746 6.43134V9.86533C97.8746 10.4615 97.9922 10.8672 98.2276 11.0826C98.4629 11.298 98.9085 11.4057 99.5643 11.4057H103.627C104.293 11.4057 104.744 11.298 104.979 11.0826C105.214 10.8622 105.332 10.4564 105.332 9.86533V9.09888L103.732 8.77577V10.1584H99.4592V6.0932ZM111.295 10.1584H116.537V6.0932H111.295V10.1584ZM109.71 6.43134C109.71 5.84022 109.825 5.43696 110.056 5.22155C110.286 5.00614 110.734 4.89844 111.4 4.89844H116.431C117.102 4.89844 117.55 5.00614 117.776 5.22155C118.006 5.43696 118.121 5.84022 118.121 6.43134V9.86533C118.121 10.4615 118.004 10.8672 117.768 11.0826C117.538 11.298 117.092 11.4057 116.431 11.4057H111.4C110.734 11.4057 110.286 11.298 110.056 11.0826C109.825 10.8672 109.71 10.4615 109.71 9.86533V6.43134ZM124.347 6.01805H127.967C128.242 6.01805 128.43 6.05813 128.53 6.13828C128.635 6.21843 128.688 6.35369 128.688 6.54405V7.29547C128.688 7.48583 128.635 7.62109 128.53 7.70124C128.43 7.78139 128.242 7.82147 127.967 7.82147H124.347V6.01805ZM122.785 4.89844V11.4057H124.347V8.94108H125.841L128.567 11.4057H130.843L127.749 8.94108H128.642C129.178 8.94108 129.566 8.8434 129.806 8.64803C130.047 8.45266 130.167 8.13456 130.167 7.69372V6.16083C130.167 5.71498 130.047 5.39438 129.806 5.19901C129.566 4.99863 129.178 4.89844 128.642 4.89844H122.785ZM134.71 11.4057V4.89844H140.568C141.109 4.89844 141.497 4.99863 141.732 5.19901C141.972 5.39438 142.093 5.71498 142.093 6.16083V7.60355C142.093 8.0494 141.972 8.37251 141.732 8.57289C141.492 8.76826 141.104 8.86594 140.568 8.86594H136.272V11.4057H134.71ZM139.892 6.01805H136.272V7.74632H139.892C140.168 7.74632 140.355 7.70625 140.455 7.6261C140.561 7.54594 140.613 7.41069 140.613 7.22033V6.54405C140.613 6.35369 140.561 6.21843 140.455 6.13828C140.355 6.05813 140.168 6.01805 139.892 6.01805Z" fill="#151F43"/>
<path d="M34.0205 6.06314V5.31314H33.2705V6.06314H34.0205ZM38.4931 6.06314H39.2431V5.31314H38.4931V6.06314ZM34.0205 7.43824H33.2705V8.18824H34.0205V7.43824ZM39.5963 7.76135L39.0837 8.30895L39.0902 8.31489L39.5963 7.76135ZM32.6697 11.0826L32.1631 11.6357L32.1689 11.6409L32.6697 11.0826ZM32.317 9.68499L32.1796 8.94769L31.567 9.06188V9.68499H32.317ZM33.7278 9.42199H34.4778V8.51926L33.5904 8.68469L33.7278 9.42199ZM33.7278 10.1884H32.9778V10.9384H33.7278V10.1884ZM38.5081 10.1884V10.9384H39.2581V10.1884H38.5081ZM38.5081 8.70063H39.2581V7.95063H38.5081V8.70063ZM32.9474 8.37752L32.4344 8.92473L32.4408 8.93054L32.9474 8.37752ZM32.9474 5.22906L33.454 5.78212L33.4603 5.77624L32.9474 5.22906ZM39.4987 5.21403L39.0045 5.77815L39.0107 5.78361L39.0171 5.78893L39.4987 5.21403ZM39.8664 6.46891L40.023 7.20239L40.6164 7.07575V6.46891H39.8664ZM38.4931 6.76196H37.7431V7.68889L38.6497 7.49545L38.4931 6.76196ZM48.474 11.4057V12.1557H49.224V11.4057H48.474ZM48.474 6.06314V5.31314H47.724V6.06314H48.474ZM46.8906 11.4057H46.1406V12.1557H46.8906V11.4057ZM46.8906 6.06314H47.6406V5.31314H46.8906V6.06314ZM43.7537 6.06314H43.0037V6.81314H43.7537V6.06314ZM43.7537 4.89844V4.14844H43.0037V4.89844H43.7537ZM51.6183 4.89844H52.3683V4.14844H51.6183V4.89844ZM51.6183 6.06314V6.81314H52.3683V6.06314H51.6183ZM53.4719 11.4057L52.8267 11.0233L52.1555 12.1557H53.4719V11.4057ZM57.3292 4.89844V4.14844H56.9019L56.684 4.51601L57.3292 4.89844ZM55.0553 11.4057V12.1557H55.49L55.7061 11.7786L55.0553 11.4057ZM55.8733 9.97804V9.22804H55.4386L55.2226 9.6052L55.8733 9.97804ZM59.2286 9.97804V10.728H60.5042L59.8839 9.61335L59.2286 9.97804ZM58.5679 8.7908L59.2232 8.4261L59.0088 8.0408H58.5679V8.7908ZM56.5487 8.7908L55.8886 8.43471L55.292 9.5408H56.5487V8.7908ZM58.0121 6.07817L58.6668 5.7123L58.0005 4.51998L57.352 5.72208L58.0121 6.07817ZM59.528 8.7908V9.5408H60.8062L60.1827 8.42493L59.528 8.7908ZM59.5249 8.7908V8.0408H58.2493L58.8696 9.1555L59.5249 8.7908ZM60.5687 10.6665L60.9213 11.3284L61.5955 10.9693L61.2241 10.3018L60.5687 10.6665ZM60.568 10.6668L60.2154 10.0049L59.5327 10.3685L59.9172 11.0397L60.568 10.6668ZM60.9913 11.4057L60.3406 11.7786L60.5567 12.1557H60.9913V11.4057ZM62.7699 11.4057V12.1557H64.0968L63.4124 11.0189L62.7699 11.4057ZM58.8526 4.89844L59.4951 4.51163L59.2765 4.14844H58.8526V4.89844ZM67.7453 6.0932V5.3432H66.9953V6.0932H67.7453ZM72.0153 6.0932H72.7653V5.3432H72.0153V6.0932ZM67.7453 10.1584H66.9953V10.9084H67.7453V10.1584ZM72.0153 10.1584V10.9084H72.7653V10.1584H72.0153ZM72.0153 8.77577L72.1639 8.04064L71.2653 7.85899V8.77577H72.0153ZM73.6137 9.09888H74.3637V8.48532L73.7623 8.36375L73.6137 9.09888ZM73.261 11.0826L73.7677 11.6357L73.7739 11.6298L73.261 11.0826ZM66.5071 5.22155L66.0004 4.66849L65.9945 4.67399L66.5071 5.22155ZM73.261 5.22155L72.7485 5.76914L72.7544 5.77457L73.261 5.22155ZM73.6137 7.06253L73.7219 7.80469L74.3637 7.71115V7.06253H73.6137ZM72.0153 7.29547H71.2653V8.16269L72.1234 8.03763L72.0153 7.29547ZM78.1464 11.4057H77.3964V12.1557H78.1464V11.4057ZM78.1464 4.89844V4.14844H77.3964V4.89844H78.1464ZM79.7223 11.4057V12.1557H80.4723V11.4057H79.7223ZM79.7223 4.89844H80.4723V4.14844H79.7223V4.89844ZM87.4068 4.89844V4.14844H86.9795L86.7616 4.51601L87.4068 4.89844ZM83.5495 11.4057L82.9044 11.0233L82.2331 12.1557H83.5495V11.4057ZM88.9302 4.89844L89.5728 4.51163L89.3541 4.14844H88.9302V4.89844ZM92.8475 11.4057V12.1557H94.1744L93.49 11.0189L92.8475 11.4057ZM91.0689 11.4057L90.4182 11.7786L90.6343 12.1557H91.0689V11.4057ZM90.4492 10.3241L89.7927 10.6869L89.7985 10.6969L90.4492 10.3241ZM89.6019 8.7908V8.0408H88.3305L88.9455 9.15356L89.6019 8.7908ZM89.6056 8.7908V9.5408H90.8839L90.2603 8.42493L89.6056 8.7908ZM89.2745 8.19833L88.6181 8.56108L88.6198 8.5642L89.2745 8.19833ZM89.2343 8.12555L89.8907 7.76281L89.5323 7.11417L88.8794 7.46482L89.2343 8.12555ZM89.2339 8.12574L88.5792 8.49161L88.939 9.13546L89.5888 8.78647L89.2339 8.12574ZM88.0897 6.07817L88.7444 5.7123L88.0781 4.51998L87.4296 5.72208L88.0897 6.07817ZM86.6263 8.7908L85.9663 8.43471L85.3696 9.5408H86.6263V8.7908ZM88.6815 8.7908L89.3379 8.42804L89.1239 8.0408H88.6815V8.7908ZM89.3376 9.97804V10.728H90.6089L89.994 9.61529L89.3376 9.97804ZM85.9509 9.97804V9.22804H85.5163L85.3002 9.6052L85.9509 9.97804ZM85.133 11.4057V12.1557H85.5676L85.7837 11.7786L85.133 11.4057ZM103.732 6.0932H104.482V5.3432H103.732V6.0932ZM99.4592 6.0932V5.3432H98.7092V6.0932H99.4592ZM103.732 7.29547H102.982V8.1626L103.84 8.03764L103.732 7.29547ZM105.332 7.06253L105.44 7.8047L106.082 7.71122V7.06253H105.332ZM104.979 5.22155L104.467 5.76933L104.472 5.77475L104.979 5.22155ZM98.2201 5.22155L97.7136 4.66831L97.7077 4.67379L98.2201 5.22155ZM98.2276 11.0826L97.7211 11.6358L97.7211 11.6358L98.2276 11.0826ZM104.979 11.0826L105.485 11.6359L105.492 11.63L104.979 11.0826ZM105.332 9.09888H106.082V8.48523L105.48 8.36373L105.332 9.09888ZM103.732 8.77577L103.881 8.04062L102.982 7.85913V8.77577H103.732ZM103.732 10.1584V10.9084H104.482V10.1584H103.732ZM99.4592 10.1584H98.7092V10.9084H99.4592V10.1584ZM116.537 10.1584V10.9084H117.287V10.1584H116.537ZM111.295 10.1584H110.545V10.9084H111.295V10.1584ZM116.537 6.0932H117.287V5.3432H116.537V6.0932ZM111.295 6.0932V5.3432H110.545V6.0932H111.295ZM110.056 5.22155L109.543 4.67379L109.543 4.6738L110.056 5.22155ZM117.776 5.22155L117.257 5.76367L117.263 5.76929L117.776 5.22155ZM117.768 11.0826L117.262 10.5294L117.256 10.5349L117.768 11.0826ZM110.056 11.0826L109.543 11.6304L109.543 11.6304L110.056 11.0826ZM124.347 6.01805V5.26805H123.597V6.01805H124.347ZM128.53 6.13828L128.061 6.72381L128.068 6.72935L128.075 6.73472L128.53 6.13828ZM128.53 7.70124L128.075 7.1048L128.068 7.11017L128.061 7.11571L128.53 7.70124ZM124.347 7.82147H123.597V8.57147H124.347V7.82147ZM122.785 11.4057H122.035V12.1557H122.785V11.4057ZM122.785 4.89844V4.14844H122.035V4.89844H122.785ZM124.347 11.4057V12.1557H125.097V11.4057H124.347ZM124.347 8.94108V8.19108H123.597V8.94108H124.347ZM125.841 8.94108L126.344 8.38475L126.13 8.19108H125.841V8.94108ZM128.567 11.4057L128.064 11.9621L128.279 12.1557H128.567V11.4057ZM130.843 11.4057V12.1557H132.988L131.31 10.8191L130.843 11.4057ZM127.749 8.94108V8.19108H125.604L127.282 9.52771L127.749 8.94108ZM129.806 8.64803L129.333 8.06608L129.333 8.06608L129.806 8.64803ZM129.806 5.19901L129.326 5.77507L129.333 5.78096L129.806 5.19901ZM134.71 4.89844V4.14844H133.96V4.89844H134.71ZM134.71 11.4057H133.96V12.1557H134.71V11.4057ZM141.732 5.19901L141.246 5.77003L141.252 5.77556L141.259 5.78095L141.732 5.19901ZM141.732 8.57289L142.205 9.15489L142.212 9.14891L141.732 8.57289ZM136.272 8.86594V8.11594H135.522V8.86594H136.272ZM136.272 11.4057V12.1557H137.022V11.4057H136.272ZM136.272 6.01805V5.26805H135.522V6.01805H136.272ZM136.272 7.74632H135.522V8.49632H136.272V7.74632ZM140.455 7.6261L140.001 7.02966L139.994 7.03503L139.987 7.04057L140.455 7.6261ZM140.455 6.13828L139.987 6.72381L139.994 6.72935L140.001 6.73472L140.455 6.13828ZM34.0205 6.81314H38.4931V5.31314H34.0205V6.81314ZM34.7705 7.43824V6.06314H33.2705V7.43824H34.7705ZM38.253 6.68824H34.0205V8.18824H38.253V6.68824ZM40.1088 7.21379C39.8652 6.98574 39.559 6.86096 39.2633 6.78982C38.9627 6.71753 38.6211 6.68824 38.253 6.68824V8.18824C38.5503 8.18824 38.7652 8.2128 38.9125 8.24822C39.0645 8.28478 39.0973 8.32156 39.0838 8.30891L40.1088 7.21379ZM40.6915 8.97114C40.6915 8.33711 40.581 7.64539 40.1023 7.20782L39.0902 8.31489C39.0732 8.29928 39.1018 8.31469 39.134 8.42739C39.1662 8.54051 39.1915 8.71596 39.1915 8.97114H40.6915ZM40.6915 9.86533V8.97114H39.1915V9.86533H40.6915ZM40.0954 11.6357C40.576 11.1954 40.6915 10.5056 40.6915 9.86533H39.1915C39.1915 10.1193 39.1658 10.2945 39.1329 10.408C39.1003 10.5205 39.0703 10.5404 39.0822 10.5296L40.0954 11.6357ZM38.253 12.1557C38.9286 12.1557 39.6348 12.0576 40.0954 11.6357L39.0822 10.5296C39.09 10.5224 39.052 10.5597 38.9021 10.596C38.7561 10.6313 38.5444 10.6557 38.253 10.6557V12.1557ZM34.0355 12.1557H38.253V10.6557H34.0355V12.1557ZM32.1689 11.6409C32.6341 12.0582 33.3474 12.1557 34.0355 12.1557V10.6557C33.7357 10.6557 33.5165 10.6312 33.3639 10.5951C33.207 10.558 33.1647 10.5191 33.1705 10.5243L32.1689 11.6409ZM31.567 9.86533C31.567 10.5056 31.6825 11.1954 32.1631 11.6357L33.1763 10.5296C33.1882 10.5404 33.1582 10.5205 33.1256 10.408C33.0927 10.2945 33.067 10.1193 33.067 9.86533H31.567ZM31.567 9.68499V9.86533H33.067V9.68499H31.567ZM33.5904 8.68469L32.1796 8.94769L32.4545 10.4223L33.8653 10.1593L33.5904 8.68469ZM34.4778 10.1884V9.42199H32.9778V10.1884H34.4778ZM38.5081 9.43844H33.7278V10.9384H38.5081V9.43844ZM37.7581 8.70063V10.1884H39.2581V8.70063H37.7581ZM34.2982 9.45063H38.5081V7.95063H34.2982V9.45063ZM32.4408 8.93054C32.6852 9.1545 32.9902 9.2783 33.287 9.34927C33.5881 9.42131 33.9299 9.45063 34.2982 9.45063V7.95063C34.001 7.95063 33.785 7.9261 33.6359 7.89043C33.4824 7.8537 33.4447 7.81594 33.454 7.82449L32.4408 8.93054ZM31.8447 7.16022C31.8447 7.8006 31.9622 8.48204 32.4345 8.9247L33.4603 7.83034C33.4671 7.83667 33.4359 7.81184 33.4032 7.69916C33.3702 7.58511 33.3447 7.41099 33.3447 7.16022H31.8447ZM31.8447 6.43134V7.16022H33.3447V6.43134H31.8447ZM32.4408 4.67604C31.962 5.11463 31.8447 5.7964 31.8447 6.43134H33.3447C33.3447 6.18335 33.3701 6.01272 33.4025 5.90231C33.4345 5.79349 33.464 5.77295 33.454 5.78209L32.4408 4.67604ZM34.2982 4.14844C33.6139 4.14844 32.8969 4.24839 32.4345 4.68188L33.4603 5.77624C33.4515 5.78455 33.4883 5.74665 33.6397 5.70959C33.7873 5.67347 34.0019 5.64844 34.2982 5.64844V4.14844ZM38.1554 4.14844H34.2982V5.64844H38.1554V4.14844ZM39.993 4.64992C39.5304 4.24469 38.8316 4.14844 38.1554 4.14844V5.64844C38.4476 5.64844 38.6618 5.67233 38.8113 5.70746C38.9648 5.74353 39.0085 5.78165 39.0045 5.77815L39.993 4.64992ZM40.6164 6.31111C40.6164 5.70315 40.4796 5.05742 39.9804 4.63914L39.0171 5.78893C39.0174 5.78919 39.0184 5.79007 39.0202 5.79208C39.0219 5.79413 39.025 5.79792 39.029 5.80416C39.0371 5.8167 39.0499 5.84046 39.0634 5.88069C39.0915 5.96446 39.1164 6.10175 39.1164 6.31111H40.6164ZM40.6164 6.46891V6.31111H39.1164V6.46891H40.6164ZM38.6497 7.49545L40.023 7.20239L39.7099 5.73542L38.3366 6.02848L38.6497 7.49545ZM37.7431 6.06314V6.76196H39.2431V6.06314H37.7431ZM49.224 11.4057V6.06314H47.724V11.4057H49.224ZM46.8906 12.1557H48.474V10.6557H46.8906V12.1557ZM46.1406 6.06314V11.4057H47.6406V6.06314H46.1406ZM43.7537 6.81314H46.8906V5.31314H43.7537V6.81314ZM43.0037 4.89844V6.06314H44.5037V4.89844H43.0037ZM51.6183 4.14844H43.7537V5.64844H51.6183V4.14844ZM52.3683 6.06314V4.89844H50.8683V6.06314H52.3683ZM48.474 6.81314H51.6183V5.31314H48.474V6.81314ZM54.1171 11.7882L57.9743 5.28087L56.684 4.51601L52.8267 11.0233L54.1171 11.7882ZM55.0553 10.6557H53.4719V12.1557H55.0553V10.6557ZM55.2226 9.6052L54.4046 11.0329L55.7061 11.7786L56.5241 10.3509L55.2226 9.6052ZM59.2286 9.22804H55.8733V10.728H59.2286V9.22804ZM57.9125 9.1555L58.5732 10.3427L59.8839 9.61335L59.2232 8.4261L57.9125 9.1555ZM56.5487 9.5408H58.5679V8.0408H56.5487V9.5408ZM57.352 5.72208L55.8886 8.43471L57.2088 9.14688L58.6722 6.43425L57.352 5.72208ZM60.1827 8.42493L58.6668 5.7123L57.3574 6.44404L58.8733 9.15667L60.1827 8.42493ZM59.5249 9.5408H59.528V8.0408H59.5249V9.5408ZM61.2241 10.3018L60.1803 8.4261L58.8696 9.1555L59.9134 11.0312L61.2241 10.3018ZM60.9206 11.3288L60.9213 11.3284L60.2161 10.0045L60.2154 10.0049L60.9206 11.3288ZM61.6421 11.0329L61.2187 10.294L59.9172 11.0397L60.3406 11.7786L61.6421 11.0329ZM62.7699 10.6557H60.9913V12.1557H62.7699V10.6557ZM58.21 5.28525L62.1273 11.7926L63.4124 11.0189L59.4951 4.51163L58.21 5.28525ZM57.3292 5.64844H58.8526V4.14844H57.3292V5.64844ZM67.7453 6.8432H72.0153V5.3432H67.7453V6.8432ZM68.4953 10.1584V6.0932H66.9953V10.1584H68.4953ZM72.0153 9.40839H67.7453V10.9084H72.0153V9.40839ZM71.2653 8.77577V10.1584H72.7653V8.77577H71.2653ZM73.7623 8.36375L72.1639 8.04064L71.8667 9.5109L73.4651 9.83401L73.7623 8.36375ZM74.3637 9.86533V9.09888H72.8637V9.86533H74.3637ZM73.7739 11.6298C74.2462 11.1872 74.3637 10.5057 74.3637 9.86533H72.8637C72.8637 10.1161 72.8382 10.2902 72.8052 10.4043C72.7725 10.517 72.7413 10.5418 72.7481 10.5355L73.7739 11.6298ZM71.9102 12.1557C72.2785 12.1557 72.6203 12.1264 72.9214 12.0544C73.2182 11.9834 73.5232 11.8596 73.7676 11.6357L72.7544 10.5296C72.7637 10.5211 72.726 10.5588 72.5725 10.5955C72.4234 10.6312 72.2074 10.6557 71.9102 10.6557V12.1557ZM67.8503 12.1557H71.9102V10.6557H67.8503V12.1557ZM66.0079 11.6357C66.4686 12.0576 67.1747 12.1557 67.8503 12.1557V10.6557C67.5589 10.6557 67.3472 10.6313 67.2012 10.596C67.0513 10.5597 67.0133 10.5224 67.0212 10.5296L66.0079 11.6357ZM65.4118 9.86533C65.4118 10.5056 65.5273 11.1954 66.0079 11.6357L67.0212 10.5296C67.033 10.5404 67.003 10.5205 66.9704 10.408C66.9375 10.2944 66.9118 10.1193 66.9118 9.86533H65.4118ZM65.4118 6.43134V9.86533H66.9118V6.43134H65.4118ZM65.9945 4.67399C65.5245 5.11392 65.4118 5.797 65.4118 6.43134H66.9118C66.9118 6.17934 66.937 6.00493 66.9694 5.89134C67.0016 5.77851 67.0314 5.75806 67.0196 5.76911L65.9945 4.67399ZM67.8503 4.14844C67.1716 4.14844 66.4617 4.24595 66.0004 4.66852L67.0137 5.77457C67.0051 5.78245 67.0429 5.74491 67.1946 5.70842C67.3422 5.67292 67.556 5.64844 67.8503 5.64844V4.14844ZM71.9102 4.14844H67.8503V5.64844H71.9102V4.14844ZM73.7735 4.67399C73.5292 4.44525 73.2216 4.32069 72.9252 4.24979C72.6237 4.17768 72.2805 4.14844 71.9102 4.14844V5.64844C72.2104 5.64844 72.4275 5.67305 72.5762 5.70864C72.7301 5.74545 72.7627 5.78244 72.7485 5.76911L73.7735 4.67399ZM74.3637 6.43134C74.3637 5.79375 74.2473 5.10798 73.7676 4.66852L72.7544 5.77457C72.7435 5.76458 72.7733 5.78482 72.8055 5.89547C72.8382 6.00746 72.8637 6.18036 72.8637 6.43134H74.3637ZM74.3637 7.06253V6.43134H72.8637V7.06253H74.3637ZM72.1234 8.03763L73.7219 7.80469L73.5056 6.32037L71.9071 6.55331L72.1234 8.03763ZM71.2653 6.0932V7.29547H72.7653V6.0932H71.2653ZM78.8964 11.4057V4.89844H77.3964V11.4057H78.8964ZM79.7223 10.6557H78.1464V12.1557H79.7223V10.6557ZM78.9723 4.89844V11.4057H80.4723V4.89844H78.9723ZM78.1464 5.64844H79.7223V4.14844H78.1464V5.64844ZM86.7616 4.51601L82.9044 11.0233L84.1947 11.7882L88.052 5.28087L86.7616 4.51601ZM88.9302 4.14844H87.4068V5.64844H88.9302V4.14844ZM93.49 11.0189L89.5728 4.51163L88.2876 5.28525L92.2049 11.7926L93.49 11.0189ZM91.0689 12.1557H92.8475V10.6557H91.0689V12.1557ZM89.7985 10.6969L90.4182 11.7786L91.7197 11.0329L91.1 9.95123L89.7985 10.6969ZM88.9455 9.15356L89.7928 10.6868L91.1057 9.96132L90.2583 8.42804L88.9455 9.15356ZM89.6056 8.0408H89.6019V9.5408H89.6056V8.0408ZM88.6198 8.5642L88.9509 9.15667L90.2603 8.42493L89.9292 7.83247L88.6198 8.5642ZM88.5778 8.4883L88.6181 8.56108L89.9309 7.83559L89.8907 7.76281L88.5778 8.4883ZM89.5888 8.78647L89.5892 8.78629L88.8794 7.46482L88.8791 7.46501L89.5888 8.78647ZM87.435 6.44404L88.5792 8.49161L89.8886 7.75987L88.7444 5.7123L87.435 6.44404ZM87.2864 9.14689L88.7498 6.43426L87.4296 5.72208L85.9663 8.43471L87.2864 9.14689ZM88.6815 8.0408H86.6263V9.5408H88.6815V8.0408ZM89.994 9.61529L89.3379 8.42804L88.025 9.15356L88.6811 10.3408L89.994 9.61529ZM85.9509 10.728H89.3376V9.22804H85.9509V10.728ZM85.7837 11.7786L86.6017 10.3509L85.3002 9.6052L84.4822 11.0329L85.7837 11.7786ZM83.5495 12.1557H85.133V10.6557H83.5495V12.1557ZM103.732 5.3432H99.4592V6.8432H103.732V5.3432ZM104.482 7.29547V6.0932H102.982V7.29547H104.482ZM105.224 6.32036L103.624 6.5533L103.84 8.03764L105.44 7.8047L105.224 6.32036ZM104.582 6.43134V7.06253H106.082V6.43134H104.582ZM104.472 5.77475C104.462 5.7648 104.491 5.78503 104.524 5.89561C104.556 6.00755 104.582 6.18039 104.582 6.43134H106.082C106.082 5.79364 105.965 5.10778 105.485 4.66834L104.472 5.77475ZM103.627 5.64844C103.928 5.64844 104.145 5.67305 104.294 5.70867C104.448 5.7455 104.481 5.78255 104.467 5.76929L105.491 4.6738C105.247 4.44514 104.939 4.32063 104.643 4.24976C104.341 4.17767 103.998 4.14844 103.627 4.14844V5.64844ZM99.5643 5.64844H103.627V4.14844H99.5643V5.64844ZM98.7265 5.77475C98.7179 5.78256 98.756 5.74496 98.9079 5.70845C99.0557 5.67292 99.2698 5.64844 99.5643 5.64844V4.14844C98.8851 4.14844 98.1751 4.24593 97.7136 4.66834L98.7265 5.77475ZM98.6246 6.43134C98.6246 6.17937 98.6497 6.00501 98.6821 5.89148C98.7143 5.77873 98.7441 5.75828 98.7324 5.7693L97.7077 4.67379C97.2374 5.11372 97.1246 5.79689 97.1246 6.43134H98.6246ZM98.6246 9.86533V6.43134H97.1246V9.86533H98.6246ZM98.734 10.5294C98.7458 10.5402 98.7158 10.5203 98.6832 10.4079C98.6503 10.2944 98.6246 10.1193 98.6246 9.86533H97.1246C97.1246 10.5057 97.2402 11.1956 97.7211 11.6358L98.734 10.5294ZM99.5643 10.6557C99.2726 10.6557 99.0607 10.6313 98.9144 10.596C98.7644 10.5597 98.7262 10.5223 98.734 10.5294L97.7211 11.6358C98.1819 12.0577 98.8883 12.1557 99.5643 12.1557V10.6557ZM103.627 10.6557H99.5643V12.1557H103.627V10.6557ZM104.473 10.5294C104.482 10.5209 104.444 10.5588 104.29 10.5955C104.141 10.6312 103.925 10.6557 103.627 10.6557V12.1557C103.996 12.1557 104.338 12.1264 104.639 12.0544C104.936 11.9835 105.241 11.8597 105.485 11.6358L104.473 10.5294ZM104.582 9.86533C104.582 10.1161 104.556 10.2901 104.523 10.4041C104.491 10.5167 104.459 10.5416 104.466 10.5353L105.492 11.63C105.964 11.1873 106.082 10.5058 106.082 9.86533H104.582ZM104.582 9.09888V9.86533H106.082V9.09888H104.582ZM103.584 9.51092L105.183 9.83403L105.48 8.36373L103.881 8.04062L103.584 9.51092ZM104.482 10.1584V8.77577H102.982V10.1584H104.482ZM99.4592 10.9084H103.732V9.40839H99.4592V10.9084ZM98.7092 6.0932V10.1584H100.209V6.0932H98.7092ZM116.537 9.40839H111.295V10.9084H116.537V9.40839ZM115.787 6.0932V10.1584H117.287V6.0932H115.787ZM111.295 6.8432H116.537V5.3432H111.295V6.8432ZM112.045 10.1584V6.0932H110.545V10.1584H112.045ZM109.543 4.6738C109.073 5.11372 108.96 5.79689 108.96 6.43134H110.46C110.46 6.17937 110.485 6.00501 110.518 5.89148C110.55 5.77872 110.58 5.75827 110.568 5.76929L109.543 4.6738ZM111.4 4.14844C111.032 4.14844 110.69 4.17772 110.389 4.24999C110.093 4.3211 109.787 4.44583 109.543 4.67379L110.568 5.7693C110.554 5.78186 110.587 5.74504 110.74 5.70845C110.887 5.673 111.102 5.64844 111.4 5.64844V4.14844ZM116.431 4.14844H111.4V5.64844H116.431V4.14844ZM118.294 4.67946C118.05 4.44652 117.741 4.321 117.446 4.24998C117.145 4.17764 116.802 4.14844 116.431 4.14844V5.64844C116.732 5.64844 116.948 5.67309 117.095 5.70845C117.248 5.74513 117.276 5.78117 117.257 5.76364L118.294 4.67946ZM118.871 6.43134C118.871 5.79689 118.758 5.11372 118.288 4.6738L117.263 5.76929C117.252 5.75827 117.281 5.77872 117.314 5.89148C117.346 6.00501 117.371 6.17937 117.371 6.43134H118.871ZM118.871 9.86533V6.43134H117.371V9.86533H118.871ZM118.275 11.6358C118.756 11.1956 118.871 10.5057 118.871 9.86533H117.371C117.371 10.1193 117.346 10.2944 117.313 10.4079C117.28 10.5203 117.25 10.5402 117.262 10.5294L118.275 11.6358ZM116.431 12.1557C116.798 12.1557 117.138 12.1264 117.438 12.054C117.733 11.9826 118.038 11.8577 118.281 11.6304L117.256 10.5349C117.269 10.523 117.235 10.5596 117.085 10.596C116.939 10.6312 116.726 10.6557 116.431 10.6557V12.1557ZM111.4 12.1557H116.431V10.6557H111.4V12.1557ZM109.543 11.6304C109.787 11.8584 110.093 11.9831 110.389 12.0542C110.69 12.1265 111.032 12.1557 111.4 12.1557V10.6557C111.102 10.6557 110.887 10.6312 110.74 10.5957C110.587 10.5591 110.554 10.5223 110.568 10.5349L109.543 11.6304ZM108.96 9.86533C108.96 10.5025 109.072 11.1896 109.543 11.6304L110.568 10.5349C110.581 10.5468 110.551 10.5266 110.518 10.412C110.485 10.2969 110.46 10.1203 110.46 9.86533H108.96ZM108.96 6.43134V9.86533H110.46V6.43134H108.96ZM127.967 5.26805H124.347V6.76805H127.967V5.26805ZM128.998 5.55275C128.823 5.41256 128.627 5.34794 128.47 5.31464C128.308 5.28001 128.136 5.26805 127.967 5.26805V6.76805C128.018 6.76805 128.059 6.76993 128.092 6.77278C128.125 6.77565 128.146 6.77922 128.157 6.78159C128.169 6.78405 128.165 6.78412 128.149 6.77775C128.134 6.77142 128.101 6.75572 128.061 6.72381L128.998 5.55275ZM129.438 6.54405C129.438 6.22781 129.348 5.81859 128.985 5.54185L128.075 6.73472C128.007 6.68304 127.968 6.6196 127.949 6.57154C127.933 6.53019 127.938 6.51436 127.938 6.54405H129.438ZM129.438 7.29547V6.54405H127.938V7.29547H129.438ZM128.985 8.29767C129.348 8.02093 129.438 7.61172 129.438 7.29547H127.938C127.938 7.32516 127.933 7.30933 127.949 7.26798C127.968 7.21992 128.007 7.15648 128.075 7.1048L128.985 8.29767ZM127.967 8.57147C128.136 8.57147 128.308 8.55951 128.47 8.52489C128.627 8.49158 128.823 8.42696 128.998 8.28677L128.061 7.11571C128.101 7.0838 128.134 7.0681 128.149 7.06177C128.165 7.0554 128.169 7.05547 128.157 7.05793C128.146 7.0603 128.125 7.06387 128.092 7.06674C128.059 7.06959 128.018 7.07147 127.967 7.07147V8.57147ZM124.347 8.57147H127.967V7.07147H124.347V8.57147ZM123.597 6.01805V7.82147H125.097V6.01805H123.597ZM123.535 11.4057V4.89844H122.035V11.4057H123.535ZM124.347 10.6557H122.785V12.1557H124.347V10.6557ZM123.597 8.94108V11.4057H125.097V8.94108H123.597ZM125.841 8.19108H124.347V9.69108H125.841V8.19108ZM129.07 10.8494L126.344 8.38475L125.338 9.49742L128.064 11.9621L129.07 10.8494ZM130.843 10.6557H128.567V12.1557H130.843V10.6557ZM127.282 9.52771L130.376 11.9924L131.31 10.8191L128.216 8.35445L127.282 9.52771ZM128.642 8.19108H127.749V9.69108H128.642V8.19108ZM129.333 8.06608C129.294 8.0979 129.12 8.19108 128.642 8.19108V9.69108C129.237 9.69108 129.838 9.5889 130.28 9.22998L129.333 8.06608ZM129.417 7.69372C129.417 8.00853 129.334 8.06595 129.333 8.06608L130.28 9.22998C130.76 8.83937 130.917 8.26059 130.917 7.69372H129.417ZM129.417 6.16083V7.69372H130.917V6.16083H129.417ZM129.333 5.78096C129.34 5.78597 129.356 5.80009 129.375 5.8492C129.395 5.90418 129.417 6.00203 129.417 6.16083H130.917C130.917 5.59231 130.762 5.00915 130.28 4.61705L129.333 5.78096ZM128.642 5.64844C129.117 5.64844 129.288 5.7431 129.326 5.77503L130.287 4.62298C129.844 4.25415 129.24 4.14844 128.642 4.14844V5.64844ZM122.785 5.64844H128.642V4.14844H122.785V5.64844ZM133.96 4.89844V11.4057H135.46V4.89844H133.96ZM140.568 4.14844H134.71V5.64844H140.568V4.14844ZM142.218 4.62799C141.777 4.25248 141.166 4.14844 140.568 4.14844V5.64844C141.051 5.64844 141.216 5.74477 141.246 5.77003L142.218 4.62799ZM142.843 6.16083C142.843 5.59231 142.688 5.00915 142.205 4.61706L141.259 5.78095C141.265 5.78597 141.282 5.80009 141.3 5.84919C141.321 5.90418 141.343 6.00203 141.343 6.16083H142.843ZM142.843 7.60355V6.16083H141.343V7.60355H142.843ZM142.212 9.14891C142.687 8.75327 142.843 8.17372 142.843 7.60355H141.343C141.343 7.92507 141.258 7.99174 141.252 7.99686L142.212 9.14891ZM140.568 9.61594C141.162 9.61594 141.764 9.51375 142.205 9.15484L141.259 7.99093C141.22 8.02276 141.045 8.11594 140.568 8.11594V9.61594ZM136.272 9.61594H140.568V8.11594H136.272V9.61594ZM137.022 11.4057V8.86594H135.522V11.4057H137.022ZM134.71 12.1557H136.272V10.6557H134.71V12.1557ZM136.272 6.76805H139.892V5.26805H136.272V6.76805ZM137.022 7.74632V6.01805H135.522V7.74632H137.022ZM139.892 6.99632H136.272V8.49632H139.892V6.99632ZM139.987 7.04057C140.027 7.00865 140.06 6.99296 140.075 6.98662C140.09 6.98026 140.095 6.98033 140.083 6.98279C140.072 6.98516 140.051 6.98873 140.018 6.9916C139.985 6.99445 139.943 6.99632 139.892 6.99632V8.49632C140.062 8.49632 140.234 8.48437 140.396 8.44974C140.552 8.41643 140.749 8.35182 140.924 8.21163L139.987 7.04057ZM139.863 7.22033C139.863 7.25003 139.859 7.23421 139.875 7.19285C139.893 7.14479 139.933 7.08134 140.001 7.02966L140.91 8.22253C141.273 7.94578 141.363 7.53654 141.363 7.22033H139.863ZM139.863 6.54405V7.22033H141.363V6.54405H139.863ZM140.001 6.73472C139.933 6.68304 139.893 6.61959 139.875 6.57152C139.859 6.53017 139.863 6.51435 139.863 6.54405H141.363C141.363 6.22784 141.273 5.8186 140.91 5.54185L140.001 6.73472ZM139.892 6.76805C139.943 6.76805 139.985 6.76993 140.018 6.77278C140.051 6.77565 140.072 6.77922 140.083 6.78159C140.095 6.78405 140.09 6.78412 140.075 6.77775C140.06 6.77142 140.027 6.75572 139.987 6.72381L140.924 5.55275C140.749 5.41256 140.552 5.34795 140.396 5.31464C140.234 5.28001 140.062 5.26805 139.892 5.26805V6.76805Z" fill="#151F43" mask="url(#path-7-inside-1_1313_2123)"/>
</svg>
