<svg width="211" height="20" viewBox="0 0 211 20" fill="none" xmlns="http://www.w3.org/2000/svg">
<path fill-rule="evenodd" clip-rule="evenodd" d="M11.8504 9.31583H3.28729V11.9486H11.3906C12.6645 11.9486 13.5218 12.1548 13.9624 12.5672C14.403 12.9699 14.6233 13.742 14.6233 14.8834V16.5953C14.6233 17.7367 14.3982 18.5135 13.9481 18.9259C13.4979 19.3383 12.6454 19.5446 11.3906 19.5446H3.31599C2.03249 19.5446 1.16089 19.3383 0.701084 18.9259C0.250878 18.5135 0.0258789 17.7367 0.0258789 16.5953V16.2501L2.72691 15.7465V17.214H11.8791V14.3655H3.81886C2.54496 14.3655 1.68286 14.1593 1.23276 13.7469C0.782552 13.3248 0.55745 12.548 0.55745 11.4163V10.0208C0.55745 8.89862 0.782552 8.13135 1.23276 7.71894C1.68286 7.29694 2.54496 7.08594 3.81886 7.08594H11.2038C12.4586 7.08594 13.3158 7.28735 13.7756 7.69017C14.245 8.0834 14.4797 8.78353 14.4797 9.79058V10.0927L11.8504 10.6538V9.31583ZM30.9593 9.31583V19.5446H27.9277V9.31583H21.9221V7.08594H36.9793V9.31583H30.9593ZM47.913 7.08594L40.5281 19.5446H43.5596L45.1258 16.8111H51.5518L50.2875 14.538H46.4188L49.2206 9.3446L51.1529 12.8033L51.1539 12.803L51.3333 13.1254L52.1228 14.538H52.1196L54.1152 18.1238L54.111 18.1256L54.9247 19.5446H58.3292L50.83 7.08594H47.913ZM76.0303 9.37338H67.8557V17.1564H76.0303V14.5093L79.0908 15.128V16.5953C79.0908 17.7271 78.866 18.5039 78.4154 18.9259C77.9648 19.3383 77.1036 19.5446 75.8288 19.5446H68.0562C66.8014 19.5446 65.9487 19.3383 65.4991 18.9259C65.0485 18.5135 64.8237 17.7367 64.8237 16.5953V10.0208C64.8237 8.88903 65.0443 8.11697 65.4844 7.70455C65.935 7.29215 66.7919 7.08594 68.0562 7.08594H75.8288C77.1131 7.08594 77.9753 7.29215 78.4154 7.70455C78.866 8.11697 79.0908 8.88903 79.0908 10.0208V11.2292L76.0303 11.6752V9.37338ZM87.7688 7.08594V19.5446H90.786V7.08594H87.7688ZM98.1132 19.5446L105.498 7.08594H108.415L115.915 19.5446H112.51L111.42 17.6424L109.704 14.538H109.708L109.383 13.957L108.997 13.2582L108.994 13.26L106.806 9.3446L104.004 14.538H107.943L109.198 16.8111H102.711L101.145 19.5446H98.1132Z" fill="white"/>
<path fill-rule="evenodd" clip-rule="evenodd" d="M136.69 9.37338H128.509V17.1564H136.69V14.5093L139.753 15.128V16.5953C139.753 17.7271 139.527 18.5039 139.076 18.9259C138.627 19.3383 137.763 19.5446 136.489 19.5446H128.71C127.455 19.5446 126.601 19.3383 126.151 18.9259C125.7 18.5135 125.475 17.7367 125.475 16.5953V10.0208C125.475 8.88903 125.696 8.11697 126.137 7.70455C126.587 7.29215 127.445 7.08594 128.71 7.08594H136.489C137.773 7.08594 138.636 7.29215 139.076 7.70455C139.527 8.11697 139.753 8.88903 139.753 10.0208V11.2292L136.69 11.6752V9.37338ZM151.168 17.1564H161.205V9.37338H151.168V17.1564ZM148.135 10.0208C148.135 8.88903 148.356 8.11697 148.796 7.70455C149.237 7.29215 150.095 7.08594 151.37 7.08594H161.003C162.287 7.08594 163.145 7.29215 163.577 7.70455C164.018 8.11697 164.239 8.88903 164.239 10.0208V16.5953C164.239 17.7367 164.013 18.5135 163.562 18.9259C163.122 19.3383 162.268 19.5446 161.003 19.5446H151.37C150.095 19.5446 149.237 19.3383 148.796 18.9259C148.356 18.5135 148.135 17.7367 148.135 16.5953V10.0208ZM176.158 9.22951H183.088C183.615 9.22951 183.974 9.30624 184.167 9.45969C184.367 9.61315 184.468 9.87209 184.468 10.2366V11.6752C184.468 12.0396 184.367 12.2986 184.167 12.4521C183.974 12.6055 183.615 12.6822 183.088 12.6822H176.158V9.22951ZM173.167 7.08594V19.5446H176.158V14.8258H179.019L184.238 19.5446H188.595L182.671 14.8258H184.382C185.408 14.8258 186.151 14.6388 186.611 14.2647C187.071 13.8907 187.301 13.2817 187.301 12.4377V9.50286C187.301 8.64926 187.071 8.03544 186.611 7.6614C186.151 7.27776 185.408 7.08594 184.382 7.08594H173.167ZM195.999 19.5446V7.08594H207.214C208.249 7.08594 208.992 7.27776 209.443 7.6614C209.903 8.03544 210.133 8.64926 210.133 9.50286V12.2651C210.133 13.1186 209.903 13.7373 209.443 14.1209C208.983 14.4949 208.24 14.682 207.214 14.682H198.99V19.5446H195.999ZM205.92 9.22951H198.99V12.5384H205.92C206.448 12.5384 206.807 12.4617 206.999 12.3082C207.2 12.1548 207.301 11.8958 207.301 11.5313V10.2366C207.301 9.87209 207.2 9.61315 206.999 9.45969C206.807 9.30624 206.448 9.22951 205.92 9.22951Z" fill="white"/>
<path d="M116.982 0.746094C114.955 0.746094 113.306 2.39593 113.289 4.41515C113.28 5.40013 113.658 6.33586 114.356 7.03355C115.046 7.73946 115.972 8.12524 116.958 8.13345H116.982C119.01 8.13345 120.66 6.48361 120.676 4.46439C120.693 2.42876 119.042 0.762515 116.982 0.746094ZM116.982 7.63275H116.958C116.104 7.62454 115.308 7.28801 114.701 6.6806C114.11 6.08141 113.782 5.277 113.79 4.42335C113.797 2.67502 115.234 1.24679 117.007 1.24679C118.772 1.255 120.192 2.69964 120.183 4.46439C120.167 6.21273 118.731 7.63275 116.982 7.63275Z" fill="white" stroke="white" stroke-width="0.316601"/>
<path d="M118.518 3.80193C118.518 3.12065 117.96 2.5625 117.278 2.5625H115.998C115.866 2.5625 115.759 2.6692 115.759 2.80053V6.1823C115.759 6.31363 115.866 6.42033 115.998 6.42033C116.129 6.42033 116.235 6.31363 116.235 6.1823V3.03857H117.278C117.697 3.03857 118.041 3.38331 118.041 3.80193C118.041 4.22055 117.697 4.56528 117.278 4.56528H116.982C116.884 4.56528 116.802 4.62275 116.761 4.70483C116.72 4.79512 116.737 4.89361 116.802 4.95928L118.049 6.30542C118.14 6.40392 118.288 6.40392 118.386 6.32184C118.484 6.23154 118.484 6.0838 118.403 5.9853L117.508 5.01674C118.082 4.91003 118.518 4.40934 118.518 3.80193Z" fill="white" stroke="white" stroke-width="0.316601"/>
</svg>
